<svg version="1" xmlns="http://www.w3.org/2000/svg" width="1709.333" height="1709.333" viewBox="0 0 1282.000000 1282.000000"><path d="M236.5 300.2c-.8 2.6-10.7 31.4-11.2 32.8-.4.8-.7 1.9-.9 2.5-.1.5-1.3 4.1-2.7 8-3.4 9.4-25.8 73.7-26.1 75-.2.5-.6 1.7-.9 2.5-1.2 3.3-10 28.5-10.2 29.5-.1.5-.8 2.3-1.4 4-.7 1.6-1.4 3.4-1.5 4-.1.5-1.3 4.1-2.6 8-1.3 3.8-2.4 7.2-2.5 7.5 0 .3-.5 1.8-1.2 3.5-1.4 3.7-2.1 5.9-2 6.5 0 .3-.5 1.5-1.2 2.8-.7 1.3-1.4 3.1-1.6 4-.2.9-1.5 4.8-2.9 8.7-7 19.8-18.1 51.8-20.1 58-2.1 6.2-3.5 10.2-6.1 17-.4 1.1-.8 2.2-.9 2.5-1.8 6.2-14.2 41.8-16.4 47.3-.6 1.5-1.4 4-1.7 5.5-.4 1.5-1.1 3.3-1.7 3.9-.5.7-.6 1.3-.3 1.3.4 0 .2.9-.4 2.1-.6 1.1-1.3 2.8-1.5 3.7-.3 1.4-3.1 9.6-5.2 15.2-.3.8-.7 1.9-.9 2.5-.1.5-3 8.9-6.4 18.5-3.4 9.6-7.7 22-9.5 27.5-5.4 15.7-11 31.9-16 46-2.5 7.1-4.8 13.7-5 14.5-.2.8-1.3 4.2-2.5 7.5s-4.8 13.9-8.1 23.5-6.4 18.4-6.9 19.5c-.4 1.1-4.2 11.9-8.4 24-4.1 12.1-10.7 31.2-14.7 42.5-3.9 11.3-8.4 24.3-9.9 29-1.6 4.7-3.6 10.1-4.4 12.1-.8 2-1.2 3.9-.9 4.3.4.3.1.6-.5.6-.7 0-1.1.3-1 .7.2.9-3.8 13.7-5.2 16.8-.5 1.1-2.5 6.7-4.4 12.6-1.9 5.8-4.6 13.6-6 17.3-1.4 3.8-2.6 7-2.6 7.2 0 .2 35.7.4 79.4.4h79.4l.7-2.8c.4-1.5.9-3.6 1.1-4.8.1-1.1.8-4 1.4-6.5.7-2.4 1.4-5.1 1.5-5.9.2-.8 1.3-5.3 2.5-10 1.1-4.7 2.3-9.9 2.6-11.5.8-4 1-4.8 1.7-6.5.5-1.5 4.4-17.7 5.1-21.5.2-1.1 1.4-5.8 2.6-10.5 1.2-4.7 2.3-9.2 2.5-10 .2-.8 1.7-7.3 3.4-14.4 1.8-7.1 3.3-13.6 3.5-14.5.2-.9.6-2.3.9-3.1.3-.8.8-2.9 1.1-4.5 1.2-6 1.7-7.8 2.6-9.5.5-1 .7-1.9.5-2.2-.2-.2 0-2.1.6-4.2 1-3.6 1.2-4.6 2.4-9.7.2-1.1.6-2.8.9-3.7.3-.9.7-2.8 1-4.2.2-1.4.9-3.7 1.4-5.1l1-2.5 70.4.1c38.7.1 71 .5 71.6.9.7.4 1.2.4 1.2-.1 0-.7 10.8-.8 25-.4 3.1.1 14 .2 16 .1.8 0 3.5 0 6 .1s5.2.1 6 0c.8-.1 2.6-.1 4-.1 16.6.4 29 .4 29-.1 0-.3 1.2-.4 2.8-.2 1.5.2 7.3.4 12.8.5 9.4 0 10.2.2 11.2 2.2.8 1.7 15.3 51.6 16.7 57.6.2.8 1.6 5.5 3 10.5 1.5 4.9 2.9 10.1 3.2 11.4.2 1.4.6 2.8.9 3.3.3.4.7 1.6.9 2.5.2 1 1.8 6.5 3.5 12.3 1.7 5.8 3.2 11.4 3.4 12.5.3 1.1.5 2 .6 2 .1 0 .3.7.5 1.5s1.6 5.3 3 10c1.3 4.7 2.7 9.8 3 11.4.3 1.6 1 3.6 1.5 4.6.5.9 1.1 2.7 1.3 4.1.2 1.3.6 3.1.9 3.9 1.1 3.1 2.7 8.7 3.8 12.7l1.1 4.3h73.4c58.1 0 73.3-.3 73.1-1.3-.3-1.6-4.5-14.7-5.6-17.2-1-2.4-5.1-14.2-5.5-15.9-.2-1.2-1.2-4.1-2.5-7.1-.5-1.1-1.4-3.8-2-6-.6-2.2-1.5-4.9-2-6-.5-1.1-3.2-9-6-17.5s-5.6-16.4-6-17.5c-.5-1.1-3.2-9-6-17.5-2.9-8.5-5.4-16.2-5.7-17-.3-.8-.7-2-.9-2.5-.2-.6-2.9-8.2-6-17s-5.9-17.1-6.1-18.5c-.3-1.4-.9-3-1.3-3.5-.4-.6-1.7-4.4-3-8.5s-2.7-8-3.1-8.5c-.4-.6-1-2.2-1.3-3.5-.4-2.5-1-4.4-2.3-7.8-.3-.9-.7-1.9-.8-2.2-.1-.3-.5-1.2-.8-2-.3-.8-2.7-7.8-5.2-15.5-2.6-7.7-5-14.9-5.5-16-.5-1.1-2.3-6.3-4-11.5-1.7-5.2-3.6-10.3-4.1-11.2-.5-1-.9-2.6-.9-3.6s-.3-2.2-.7-2.6c-.5-.4-.9-1.2-.9-1.7-.1-.5-.3-1.1-.4-1.4-.1-.3-.3-.8-.5-1.3-.1-.4-.4-1.4-.8-2.2-.3-.8-1.5-4.4-2.7-8-1.2-3.6-2.5-7.4-3-8.5-.5-1.1-1.3-3.6-1.9-5.5-.9-3.3-10.5-31.7-11.8-35-.4-.8-.7-1.7-.8-2 0-.3-.9-3-2-6-1-3-2-6-2.1-6.5-.6-2.1-12.4-36.1-13.3-38-.5-1.1-1.8-4.9-2.9-8.5-1.2-3.6-4.6-13.9-7.7-23-5.6-16.3-6.1-17.8-6.4-19.2-.1-.4-.9-2.4-1.7-4.5-.9-2-1.7-4.4-1.9-5.2-.4-1.5-6.1-18-10.1-29.1-.9-2.5-1.8-5.2-2-6-.2-.8-3.1-9.4-6.4-19-3.4-9.6-6.3-18-6.4-18.5-.2-.6-.6-1.7-.9-2.5-.3-.8-1.7-4.9-3.1-9-1.4-4.1-6.6-19.4-11.6-34-5-14.6-11.1-32.4-13.5-39.5-2.4-7.2-6-17.5-8-23-1.9-5.5-3.7-10.9-4-12-.2-1.1-1.6-5.2-3-9-1.5-3.9-2.9-7.9-3.2-9-.2-1.1-.9-2.9-1.4-4-.8-1.9-11.9-34.5-11.9-35.2 0-.2-40.3-.3-89.5-.3-70.8 0-89.6.3-90 1.2zM325 413.1c0 .9 1.3 5.4 2.9 10 1.6 4.6 8.2 24.6 14.6 44.4 6.4 19.8 12.7 38.9 14 42.5 1.2 3.6 2.3 6.8 2.4 7.2.1.4.3 1.3.5 2 .3.7 1.2 3.8 2.1 6.8.9 3 2 6.4 2.5 7.5.5 1.1 2.9 8.5 5.5 16.5 5.4 16.8 5.2 16.3 5.4 17 0 .3 2.3 7 5 15 2.6 8 5.8 17.9 7.1 22 1.2 4.1 2.8 8.8 3.5 10.5.8 1.6 1.7 4.3 2.1 6 .8 3.4 8.1 25.9 9.4 29 .4 1.1 2.3 6.7 4.1 12.5 1.8 5.8 4.9 15.7 7 21.9 2.1 6.3 3.6 11.7 3.4 12-.2.5-177.5.6-178.2.2-.1-.1.7-3.1 1.8-6.9 1.1-3.7 2.2-7.4 2.4-8.2.2-.8 2.9-10.1 6-20.5 3.1-10.5 6.5-21.9 7.4-25.5 1-3.6 3.1-10.6 4.6-15.5 7.1-23.6 9.6-32.2 10-34.1.3-1.2 1.1-4 2-6.3.8-2.3 1.4-4.2 1.3-4.4-.1-.3 2.3-8.6 4.4-15.2 1.1-3.3 2.1-6.7 2.3-7.5.1-.8 1.5-5.6 3-10.5 1.4-5 4.2-14.4 6.1-21 2-6.6 4.2-14.3 5-17 .8-2.8 1.7-5.7 1.9-6.5.2-.8 1.8-6.2 3.5-12 1.8-5.8 4.3-14.3 5.7-19 1.3-4.7 3.1-10.8 3.9-13.5.8-2.8 1.7-5.7 1.9-6.5.2-.8 1.1-3.8 1.9-6.5.8-2.8 3.2-10.9 5.2-18.2 3.2-11.2 4-12.9 5.1-11.5.7.9 1.3 2.4 1.3 3.3zM673.6 301.7c1 1.6 2.9 4.8 4.3 7.1 1.5 2.4 3.3 5.5 4.1 6.8.8 1.3 5 8.1 9.4 15.1 4.3 7 10.4 16.8 13.5 21.8 3.1 4.9 6.3 10.2 7 11.7.8 1.6 1.8 2.8 2.3 2.8.4 0 .8.4.8.9 0 .9 12.8 22.1 17.1 28.3 1.1 1.5 1.9 3.1 1.9 3.7 0 .5.4 1.1.8 1.3.4.1 3.5 4.8 6.7 10.3 3.3 5.5 6.3 10.1 6.7 10.3.4.2.8.8.8 1.2 0 .5 1.4 2.9 3 5.3 1.7 2.5 3 4.8 3 5.1 0 .3 1.5 2.8 3.4 5.5s3.3 5.1 3 5.3c-.2.3.5 1.3 1.6 2.3 1.1 1 2 2.1 2 2.6 0 .6 16.8 28 18.7 30.4.4.6 1.9 3 3.2 5.5 1.4 2.5 2.8 4.7 3.1 5 .4.3 2.8 4.1 5.4 8.5 2.6 4.4 7.6 12.7 11.1 18.4 3.6 5.7 6.5 10.7 6.5 11.1 0 .5.4 1 .8 1.2.7.3 8.2 11.9 13.7 21.3 4.3 7.3 7.9 13 8.4 13.5.4.3 1.2 1.6 1.9 3 1.3 2.7 3.4 6.2 4.2 7 .8.8 2.9 4.2 4.7 7.7.9 1.8 2 3.3 2.5 3.3.4 0 .8.5.8 1.1 0 .6 3.8 7.2 8.5 14.5 4.7 7.4 8.5 13.9 8.5 14.4 0 .6.5 1 1 1 .6 0 1 .4 1 1 0 .5 1.8 3.8 4 7.2 4 6.3 4.7 8.3 3.2 9-.4.1-4.8 6.8-9.7 14.8-4.9 8-9.3 14.6-9.7 14.8-.5.2-.8.7-.8 1.2 0 .8-15 25.4-16.8 27.6-.5.5-1.5 2.1-2.2 3.5-.7 1.3-1.6 2.6-1.9 2.9-.3.3-1.2 1.5-1.8 2.7-.7 1.3-1.9 3.3-2.5 4.5-.7 1.3-1.6 2.5-1.9 2.8-.7.6-11.1 17.3-12.4 20-.5 1.1-1.3 2-1.7 2-.5 0-.8.5-.8 1.2 0 .6-1.1 2.6-2.5 4.3-1.3 1.8-2.1 3.5-1.8 3.9.4.3.2.6-.4.6-.5 0-2.2 2.1-3.7 4.7-1.5 2.7-4 6.8-5.6 9.3-1.6 2.5-4.3 6.9-6 9.8-1.7 2.8-3.7 5.8-4.3 6.5-.7.7-1.9 2.6-2.8 4.2-2.3 4.2-37.2 59.9-38 60.5-.3.3-1.2 1.7-2 3.2-.8 1.5-5.4 9.1-10.4 16.9-4.9 7.9-9.9 15.7-11 17.5-1.1 1.8-4 6.4-6.5 10.4-2.5 3.9-5.2 8.3-6 9.8-.8 1.5-1.7 2.9-2 3.2-1.3 1.2-31 49.1-31 50 0 .6-.4 1-.8 1-.5 0-1.5 1.2-2.3 2.7-.8 1.6-1.6 3-1.9 3.3-.3.3-2.6 3.8-5 7.8-2.5 4-5.3 8.5-6.2 10-1 1.5-2.5 4.2-3.5 5.9-.9 1.8-2 3.3-2.5 3.3-.4 0-.8.7-.8 1.5 0 1.3 8.8 1.5 73 1.5h73l2.5-4c1.4-2.2 3.5-6 4.7-8.3 1.2-2.3 2.6-4.7 3.1-5.2.4-.6 5.6-9.1 11.4-19 5.9-9.9 12.1-20.5 13.9-23.5 1.8-3 4.3-7.4 5.5-9.8 1.2-2.3 2.5-4.2 3-4.2s.9-.5.9-1.1c0-.8 13-23.2 21.7-37.4.7-1.1 1.6-2.7 2-3.5.4-.8 3.7-6.6 7.5-12.8 3.7-6.2 6.8-11.7 6.8-12.2 0-.6.5-1 1-1 .6 0 1-.4 1-.9 0-1.2 10.1-18.4 11.3-19.2.5-.3.9-1 .9-1.5 0-.9 4.8-9.5 5.8-10.4.3-.3 1.1-1.6 1.8-3 .6-1.4 2-3.9 3-5.5 1-1.7 6.4-10.7 12-20.2 5.6-9.4 10.2-17.6 10.2-18.2 0-.5.3-1.1.8-1.3.9-.4 7.2-10.7 7.2-11.9 0-.5.5-.9 1-.9.6 0 1-.5 1-1 0-.6 1.7-3.8 3.8-7.3 2-3.4 4.6-7.9 5.7-10 1.1-2 2.3-3.7 2.7-3.7.5 0 .8-.4.8-.9 0-.6 1.6-3.7 3.5-7 3.8-6.4 5.3-6.9 7.2-2.3.7 1.5 2.4 4.7 3.8 7.2 1.5 2.5 5.2 8.8 8.2 14 3 5.2 6.4 10.7 7.4 12.2 1.1 1.5 1.9 2.9 1.9 3.2 0 .2 2.9 5.4 6.5 11.5 3.6 6 6.5 11.4 6.5 12 0 .6.4 1.1.8 1.1s1.8 1.9 3 4.2c1.2 2.4 3.3 6.1 4.7 8.3 1.3 2.2 2.9 4.9 3.4 6 .5 1.1 2.1 3.7 3.5 5.8 1.4 2.1 2.6 4.1 2.6 4.4 0 .3 1.4 2.9 3.2 5.7 1.7 2.8 3.9 6.6 5 8.3 4.1 7.4 5.7 10.1 8.8 15.3 3.8 6.4 6.3 10.7 9.8 17 1.3 2.5 3.1 5.2 3.8 6.1.8.8 1.4 1.9 1.4 2.2 0 .4 1.7 3.6 3.8 7 2.1 3.5 4.2 7 4.6 7.7.4.8 1.8 3.3 3.2 5.5 1.3 2.2 3 5.2 3.6 6.7.7 1.6 1.6 2.8 2 2.8.4 0 .8.4.8.9 0 .6 3.2 6.2 7 12.7 3.9 6.4 7 11.8 7 12 0 .1 3.3 5.8 7.3 12.6 4.1 6.8 10.7 18.1 14.8 25.1 4.1 7 8.2 14 9.1 15.5 1 1.5 2.1 3.4 2.4 4.2.4.8 1.9 3.4 3.3 5.7l2.6 4.3h79.9c77.4 0 79.9-.1 78.3-1.8-1-1-1.7-2.2-1.7-2.6 0-.4-2.2-4-5-8.1-2.7-4.1-5-7.8-5-8.4 0-.5-.4-1.1-.8-1.3-.4-.1-4.5-6.2-9.1-13.3-4.5-7.2-11.7-18.4-15.9-25.1-8.7-13.7-8.3-13-13.7-21-2.1-3.3-4.4-6.8-5.1-7.9-.6-1.1-4.8-7.6-9.2-14.5-4.5-6.9-10.9-17-14.4-22.5-3.4-5.5-6.6-10.2-7-10.3-.5-.2-.8-.7-.8-1.2s-2.2-4.1-4.8-8.2c-2.6-4-7.1-10.9-9.9-15.3-2.9-4.4-5.5-8.5-6-9-.4-.6-1.5-2.3-2.3-3.7-1.8-3.1-11.4-18.1-21-32.8-3.8-5.8-7.7-12-8.6-13.8-.9-1.7-2-3.2-2.5-3.2s-.9-.4-.9-1c0-.9-12.8-21.3-14.9-23.7-.6-.7-1.1-1.4-1.1-1.7 0-.5-17.8-28.3-27.2-42.4-2.6-4-4.8-7.5-4.8-7.7 0-.3-1.5-2.7-3.3-5.3-1.8-2.6-6.4-9.7-10.2-15.7-3.8-6.1-7.3-11.2-7.7-11.3-.5-.2-.8-.8-.8-1.3 0-.4-2.4-4.6-5.4-9.1-4.8-7.3-5.3-8.5-4-9.9.8-.8 1.4-2 1.4-2.6 0-.6.3-1.3.8-1.5.4-.2 2.7-3.7 5.2-7.8 2.4-4.1 4.7-7.7 5.1-8 .3-.3 1.4-2 2.3-3.7.9-1.8 2.8-4.9 4.1-7 3.8-5.7 3.8-5.6 14-22.2 5.2-8.4 9.5-15.5 9.5-15.7 0-.2 1.6-2.6 3.5-5.3 1.9-2.6 3.5-5.1 3.5-5.4 0-.2 4.8-8.1 10.6-17.3 5.9-9.3 11.4-18.1 12.3-19.6.9-1.5 4.3-7 7.6-12.3 3.3-5.3 6.9-11.2 8-13 1.1-1.9 2.6-4.2 3.2-5.2 3.5-5 12.3-19.6 12.3-20.4 0-.5.4-.9.9-.9s1.3-1 1.7-2.3c.4-1.2 1-2.4 1.4-2.7.4-.3 2-2.7 3.6-5.3 1.6-2.7 3.7-6.1 4.7-7.5.9-1.5 2-3.5 2.3-4.5.4-.9 1-1.7 1.5-1.7s.9-.4.9-.9c0-.8 24.8-41.2 26.8-43.6.4-.6 2.2-3.5 4-6.5 1.8-3 3.7-6.2 4.2-7 5.7-8.8 13.3-21.1 14.6-23.5.9-1.7 3.1-5.3 4.9-8 10.7-16.7 25.5-40.8 25.5-41.6 0-.5.4-.9.8-.9.5 0 1.6-1.6 2.5-3.5l1.7-3.5h-144.9l-1.3 2.4c-.7 1.4-4.2 7.3-7.8 13.2-3.6 5.9-7.5 12.4-8.6 14.3-8.9 14.9-33.6 55.9-34.4 57.1-.6.8-3.1 5.1-5.7 9.5s-5 8.2-5.3 8.5c-.7.7-2.9 4.2-3.7 6-.3.8-2.1 3.9-4 6.8-1.8 2.9-3.3 5.7-3.3 6.2 0 .6-.4 1-.9 1s-1.2.8-1.5 1.7c-.3 1-1.2 2.7-1.9 3.8-.7 1.1-5.9 9.8-11.7 19.3-5.8 9.5-11.5 19-12.8 21-1.2 2-3 5.2-3.9 6.9-.9 1.8-2 3.3-2.5 3.3-.4 0-.8.5-.8 1 0 1.1-12.9 23-14.1 24-.3.3-.8 1-1 1.6-.2.6-6 10.4-12.8 21.7l-12.4 20.5-7.4-12.6c-4-6.9-7.3-12.9-7.3-13.3 0-.4-.3-.9-.7-1.1-.5-.2-1.5-1.7-2.4-3.3-.9-1.7-5.8-10.2-10.9-19-5.1-8.8-12.3-21.2-15.9-27.5-3.6-6.3-6.9-11.7-7.3-11.8-.4-.2-.8-.8-.8-1.4 0-.6-1.8-3.9-4-7.4-2.2-3.5-4-6.5-4-6.7 0-.2-4.6-8.2-10.1-17.8-5.6-9.6-11-18.9-12-20.7-1.1-1.7-2.7-4.7-3.8-6.5-1-1.7-3.2-5.6-5-8.5-1.7-2.9-3.1-5.7-3.1-6.2 0-.6-.4-1-1-1-.5 0-1-.4-1-.9s-5.5-10.3-12.1-21.8c-6.7-11.4-13.1-22.4-14.2-24.3-1-1.9-5-8.7-8.7-15-3.7-6.3-7.7-13.1-8.8-15.1-1.1-2-2.6-4.6-3.3-5.8l-1.4-2.1H671.8l1.8 2.7z"/></svg>