<svg version="1" xmlns="http://www.w3.org/2000/svg" width="1309.333" height="1309.333" viewBox="0 0 982.000000 982.000000"><path d="M462.9.4c-.2.2-4.9.6-10.4 1-5.5.3-11.1.8-12.5 1-1.4.3-5.2.7-8.5 1.1-5.1.5-19.8 2.7-27 4-1.1.1-3.8.6-6 1-12.1 2.1-39.6 9-55.5 14-6.3 2-29.5 10.2-32.5 11.5-1.1.5-6.5 2.8-11.9 5-5.4 2.3-10.6 4.5-11.5 5-.9.5-6.3 3.1-12.1 5.9-16.5 8-40.2 21.4-52.6 29.8-2.3 1.5-6.8 4.5-10 6.7-7.8 5.1-29.2 21.5-37.4 28.5-3.5 3.1-8 6.9-10 8.6-12.6 10.7-42 41.7-57.9 61-29.8 36.3-58.9 87.7-76.5 135.3-7.3 19.9-15.4 46.7-18 59.8-.2 1.1-1.1 4.8-1.9 8.4-.8 3.6-1.8 8.1-2.1 10-.3 1.9-.7 4.4-1 5.5-.2 1.1-.9 5.6-1.6 10-.7 4.4-1.4 8.8-1.6 9.8-.5 2.9-2.3 19.8-3.1 29.4C-.2 471 .5 530.6 2.4 542c.3 1.4.7 5 1 8 .7 5.8 3.3 23.8 4.1 28 .8 4 1.4 7.2 2.5 12.5.6 2.7 1.2 5.9 1.4 7 .2 1.1 1.4 5.8 2.6 10.5 1.2 4.7 2.4 9.6 2.6 10.8.9 4.6 9.4 31.1 13.8 42.8 12.8 34.2 24.8 58.5 45.7 92.4 20.6 33.4 56.9 76.1 87.9 103.4 3 2.7 6.7 5.9 8.2 7.3 7.4 6.5 26.8 21.4 39.3 30.1 32.3 22.4 68.2 41.4 102.4 54.4 5.8 2.2 11.5 4.3 12.6 4.8 1.1.5 7 2.5 13.1 4.4 26.4 8.4 53.4 14.7 76.9 18.1 3 .4 18.5 2.5 22.5 2.9 22.8 2.8 87.2 2.9 103 .2 1.4-.3 5.2-.7 8.5-1.1 8-.8 14.4-1.8 20.5-2.9 1.4-.3 4.1-.8 6-1 3.6-.6 4.8-.8 13.6-2.6 2.8-.6 6.2-1.3 7.5-1.5 2.1-.4 14-3.4 19.9-5 15.7-4.3 21.2-5.9 30-9 5.8-2.1 11.5-3.9 12.8-4.2 1.2-.3 2.5-.9 2.8-1.4.3-.5 1.2-.9 1.9-.9 5 0 53.3-23 73.8-35.2 15.3-9 45-28.8 47.7-31.8.3-.3 2.3-1.9 4.5-3.5 12.7-9.5 36.5-30.6 49.7-44.2 54.6-55.9 94.1-121.2 117.4-193.8 4.4-13.7 11.7-40.9 12.8-47.6.3-1.9 1.2-6.6 2-10.4.8-3.9 1.7-9 2.1-11.5.3-2.5 1-7.2 1.5-10.5s1.2-8.5 1.6-11.5c.3-3 .7-6.6 1-8 2.7-16.1 2.6-79.7-.1-102.5-.3-2.2-.7-6-1-8.5-1.1-9.3-1.9-14.8-3-20-.3-1.4-.7-4.1-.9-6-.7-5.2-5.5-27.4-7.8-36-1.1-4.1-2.1-8-2.2-8.5-5.4-22.9-23.3-68.6-37.9-96.4-6.6-12.6-18.1-32.4-22.3-38.4-1.9-2.6-3.4-4.9-3.4-5.2 0-1.7-26.2-36.8-34.5-46.1-.5-.6-3-3.6-5.5-6.5-8.5-10.2-40.5-41.6-53.3-52.3C752.8 69.7 690.8 36.8 623.6 18c-12.4-3.5-38.3-9.4-45.6-10.5-3.1-.4-9.6-1.5-12.2-2-1.1-.3-4.6-.7-7.7-1.1-3.1-.3-6.3-.8-7.2-.9-.9-.2-5.2-.6-9.5-1s-9-.9-10.4-1.2c-3-.5-67.6-1.4-68.1-.9zM510 246.5c4.1.4 9.1.8 11 1 21.4 1.9 51.9 10.7 75.6 22 55.2 26.1 101.6 76.1 123.1 132.5 2.7 7.1 7.3 20.6 7.8 23 .2.8 1 4.2 1.8 7.5 1.3 5.3 2.5 11 3.2 15.5.2.8.6 3.3 1 5.5.3 2.2.8 5.1 1 6.4.8 4.6 1.8 21.7 1.8 30.6 0 9.2-1.2 30.5-1.7 31.4-.2.4-.6 2.8-1 5.6-.5 4-4 21.3-6.1 29.7-.2 1-2 6.6-4 12.4-28.3 82.8-99.1 145.2-183.5 161.8-1.4.3-3.5.7-4.7 1-1.1.2-4.3.7-7 1.1-2.6.4-5.9.9-7.3 1.1-13.2 2.1-48.3 2-61.3-.1-17.2-2.9-22.6-3.9-30.7-6.1-24.1-6.5-50.2-17.6-66.4-28.2-2.3-1.5-4.9-3.2-5.7-3.7-18.5-11.5-42.5-33.4-58.1-53-19.4-24.4-35-54.3-43.3-83.2-2.4-8.4-2.9-10.3-3.9-16.1-.3-1.2-.7-3-1-4-.7-2.2-1.5-6.6-2.1-11.7-.3-2.2-.8-5.1-1-6.5-3-18.8-2.1-51.6 2-74.5 2-10.9 2.1-11.1 4-18.5 18.7-72.2 70.9-132.9 140.1-163.3 17.1-7.5 43.3-14.9 60.9-17.3 2.8-.4 5.9-.8 7-1 1.1-.2 6.3-.7 11.5-1 5.2-.3 9.6-.7 9.7-.7.4-.4 20.5.2 27.3.8z"/></svg>