<svg version="1" xmlns="http://www.w3.org/2000/svg" width="2560" height="2560" viewBox="0 0 1920.000000 1920.000000"><path d="M533.5 547.2c-.4 1.3-1.8 5-3 8.3-1.3 3.3-4.9 13-8 21.5-3 8.5-6 16.4-6.5 17.5-.8 1.7-18.3 48.7-91 244.5-7.3 19.5-17.8 47.9-23.5 63-5.7 15.1-21.4 57.4-34.9 94-13.6 36.6-25.5 68.5-26.6 71-1.1 2.5-3.1 7.9-4.5 12s-2.8 8.2-3.2 9c-.3.8-.7 1.7-.8 2-.5 1.4-1.8 4.7-2.5 6.5-.5 1.1-4.1 10.8-8 21.5-4 10.7-8.2 22.2-9.5 25.5-1.3 3.3-4.2 11.2-6.5 17.5-2.3 6.3-5.2 14.2-6.5 17.5-1.2 3.3-4.8 13-7.9 21.5-3.2 8.5-6.1 16.4-6.6 17.5-1.1 2.3-5.9 15.3-6.5 17.5-.2.8-7.6 20.6-16.3 44-8.8 23.4-16.3 43.5-16.6 44.8l-.7 2.2 85.7-.2 85.7-.3 26.7-80 26.6-80 141.1-.3 141-.2 11.7 34.7c6.4 19.2 18.6 55.3 27 80.3l15.3 45.5 85.7.3c47.1.1 85.6 0 85.6-.3 0-.8-25.8-70.5-27.4-74-1.3-2.7-31.8-84.2-45.5-121.5-1.6-4.1-4.8-12.9-7.3-19.5s-5-13.4-5.6-15c-.6-1.7-2.7-7.3-4.7-12.5s-4.9-12.9-6.4-17c-3.9-10.6-12.9-34.6-15.2-40.5-3.2-8.2-23-60.9-23.3-62-.2-.6-.6-1.7-.9-2.5-.4-.8-3.1-8-6-16-15.8-42.6-22.9-61.7-23.7-63.5-.5-1.1-4.6-11.9-9-24-4.5-12.1-9.2-24.7-10.5-28-1.2-3.3-3.9-10.5-6-16-2-5.5-4-10.9-4.5-12-2.2-5.7-6-15.6-30.5-81.5-14.7-39.3-27.7-74.2-29-77.5-1.3-3.3-3-7.8-3.8-10-.8-2.2-4.9-13.2-9.2-24.5-4.2-11.3-8.6-23-9.6-26-1.8-5-3.7-10-6-15.5-.4-1.1-2.4-6.3-4.3-11.5l-3.5-9.5-75-.3-75-.2-.6 2.2zm87.3 230.4c27.1 80.5 86.2 256.8 86.2 257.1 0 .2-43.9.3-97.4.3h-97.5l2-5.8c1.1-3.1 2.2-6.2 2.3-6.7.2-.6.6-1.7.9-2.5.3-.8 20.9-62.9 45.8-138 24.8-75.1 45.4-136.9 45.6-137.3.3-.5.6-.7.8-.5.1.2 5.2 15.2 11.3 33.4zM1049 548.7c-.1 5.8-.1 774.6-.1 776.1.1 1.1 31.2 1.2 169.9.9 93.3-.2 171.1-.6 172.7-.9 1.7-.3 6.6-.9 11-1.3 4.4-.3 8.7-.8 9.5-1 .8-.2 3.9-.7 6.9-1 3-.4 6.2-.8 7.2-1 .9-.2 3.9-.7 6.6-1.1 2.6-.5 5-.9 5.3-.9.3-.1 2.5-.5 5-.9s5.9-1.2 7.5-1.7c1.7-.4 7.5-2 13-3.4 72.1-18 125.6-60.9 148.7-119 5.1-12.8 9.7-27.6 11.2-35.5.2-1.4 1.1-6.3 2-11 .9-4.7 1.8-11 2.1-14 .3-3 .8-8.4 1.1-12 .9-9.1.9-37.2.1-45.4-3.1-29.9-10.9-54.5-24.2-76.6-3.7-6.2-8.3-12.9-9.6-14-.3-.3-1-1.3-1.5-2.2-.5-.9-4.5-5.6-8.9-10.3-11.9-13-25.7-23.6-42.5-32.7-7.7-4.2-27.3-12-34.7-13.9-2.9-.7-5.3-1.6-5.3-2.1 0-.4.5-.8 1.1-.8.6 0 5.9-2.3 11.7-5.2 40.6-19.6 70.2-51.7 85.6-93.1 3.8-10.2 8.1-26.6 9.1-35.2.4-2.8 1-7.6 1.4-10.8.9-6.7.7-38.2-.3-47.2-1-8.7-3.3-22.1-5.1-29.6-.9-3.5-1.8-7.4-2.1-8.7-1.1-5.5-7.9-22.6-12.8-32.4-24-47.6-68.2-80.8-133.1-99.7-6.8-2-31-7.5-37-8.4-1.6-.3-5.9-1-9.5-1.6-6-.9-9.9-1.5-19-2.6-1.9-.2-7.1-.7-11.5-1-4.4-.4-9.1-.9-10.5-1.3-1.4-.3-74.2-.7-161.7-.9l-159.3-.4v3.8zm304.5 127.7c25.7 2.9 46.7 9.5 61.8 19.2 6.4 4.2 18.7 15.6 18.7 17.5 0 .4.6 1.4 1.3 2.1 3.4 3.5 9.7 18.5 12.1 29 3.8 16.8 4 45.1.3 57.9-8 27.2-21.1 43.4-44.7 55.1-8.5 4.3-26.5 9.8-36 11.1-1.9.3-4.8.8-6.5 1.1-1.6.4-4.8.9-7 1.2-2.2.3-35.4.8-73.7 1.1-67.2.5-69.8.4-69.9-1.4-.1-2.4-.1-193.5 0-194.6.1-1 134.7-.3 143.6.7zm25.5 311c1.9.3 6.9 1.3 11.1 2.1 41.9 8.1 67.9 33.9 75.4 74.9 3.9 21.5 3.6 40.3-1 61.1-.3 1.6-2 6.3-3.7 10.5-8.2 19.9-24 36.5-44.5 46.8-5.8 3-21.2 8.5-26.5 9.6-4.5.9-13.3 2.6-17.3 3.2-2.2.4-39.7.9-83.2 1.1-65.2.4-79.3.2-79.4-.9-.1-1.7-.1-205.7 0-208.1.1-1.8 3.5-1.8 82.9-1.4 45.5.2 84.3.7 86.2 1.1z"/></svg>