<svg id="ad85a2f0-cfd4-40f6-bdd0-bbbc2273687c" data-name="Слой 1" xmlns="http://www.w3.org/2000/svg" viewBox="0 0 360.89 360.89"><defs><style>.a81a17f4-8ed3-4da7-b3ee-77e65791a2db,.ff951f1b-875f-4086-8e6c-5f88d0f2752a{fill:#7a48fb;}.ff951f1b-875f-4086-8e6c-5f88d0f2752a{opacity:0.4;}.a7bf1acc-6edd-4e0f-af0a-0ccb03754913{fill:none;stroke:#7a48fb;stroke-miterlimit:10;stroke-width:16px;}</style></defs><rect class="ff951f1b-875f-4086-8e6c-5f88d0f2752a" x="37.11" y="150.11" width="286.67" height="41.67"/><path class="a81a17f4-8ed3-4da7-b3ee-77e65791a2db" d="M7078.07,7221.24l6-61.87h21l5.87,61.87H7099.2l-.88-10h-7.45l-.78,10Zm13.68-19.86h5.62l-2.71-31.46h-.56Z" transform="translate(-7019.06 -7019.06)"/><path class="a81a17f4-8ed3-4da7-b3ee-77e65791a2db" d="M7114.7,7221.24v-61.87h12.73l5.69,29.64v-29.64h12v61.87H7133l-6.18-30.93v30.93Z" transform="translate(-7019.06 -7019.06)"/><path class="a81a17f4-8ed3-4da7-b3ee-77e65791a2db" d="M7155.87,7221.24v-50h-7.35v-11.88h27.07v11.88h-7.34v50Z" transform="translate(-7019.06 -7019.06)"/><path class="a81a17f4-8ed3-4da7-b3ee-77e65791a2db" d="M7184.84,7221.24v-47.67a8.89,8.89,0,0,1-3.48,2.45,10.83,10.83,0,0,1-4.18.93v-9.88a16.34,16.34,0,0,0,4-1.21,15.26,15.26,0,0,0,4-2.57,10.82,10.82,0,0,0,2.83-4H7198v61.91Z" transform="translate(-7019.06 -7019.06)"/><path class="a81a17f4-8ed3-4da7-b3ee-77e65791a2db" d="M7202.84,7221.24v-61.87h18.84l5.21,37.72,5.16-37.72h19v61.87h-11.32v-44.57l-7.1,44.57h-11.11l-7.52-44.57v44.57Z" transform="translate(-7019.06 -7019.06)"/><path class="a81a17f4-8ed3-4da7-b3ee-77e65791a2db" d="M7254.87,7221.24l6-61.87h21l5.87,61.87H7276l-.88-10h-7.45l-.78,10Zm13.68-19.86h5.62l-2.71-31.46h-.56Z" transform="translate(-7019.06 -7019.06)"/><path class="a81a17f4-8ed3-4da7-b3ee-77e65791a2db" d="M7306.2,7221.81q-8.47,0-12.22-4.22t-3.74-13.43v-6.05h12.23v7.74a7.19,7.19,0,0,0,.65,3.35,2.36,2.36,0,0,0,2.27,1.22,2.59,2.59,0,0,0,2.34-1,6.08,6.08,0,0,0,.65-3.23,17.43,17.43,0,0,0-.56-4.77,10.9,10.9,0,0,0-1.95-3.65,40.75,40.75,0,0,0-3.85-4.06l-5.56-5.28q-6.22-5.86-6.22-13.43,0-7.91,3.67-12.05t10.64-4.15q8.51,0,12.07,4.53t3.57,13.78h-12.58v-4.25a2.6,2.6,0,0,0-.73-2,3.16,3.16,0,0,0-4.11.12,3.2,3.2,0,0,0-.68,2.13,6.64,6.64,0,0,0,.7,2.81,12.31,12.31,0,0,0,2.78,3.48l7.13,6.86a39.92,39.92,0,0,1,3.94,4.31,18.43,18.43,0,0,1,2.88,5.27,21.53,21.53,0,0,1,1.09,7.33q0,8.72-3.21,13.66T7306.2,7221.81Z" transform="translate(-7019.06 -7019.06)"/><path class="a7bf1acc-6edd-4e0f-af0a-0ccb03754913" d="M9,8H351.89a1,1,0,0,1,1,1V351.89a1,1,0,0,1-1,1H8.22a.22.22,0,0,1-.22-.22V9A1,1,0,0,1,9,8Z"/></svg>