<svg xmlns="http://www.w3.org/2000/svg" viewBox="0 0 1085 1085"><defs><style>.cls-1{fill:#fff}</style></defs><title>Ресурс 1</title><g id="Слой_2" data-name="Слой 2"><path class="cls-1" d="M542.5 0C242.89 0 0 242.89 0 542.5S242.89 1085 542.5 1085 1085 842.11 1085 542.5 842.11 0 542.5 0zm0 1001.11c-253.28 0-458.61-205.33-458.61-458.61S289.22 83.89 542.5 83.89s458.61 205.33 458.61 458.61-205.33 458.61-458.61 458.61zm0-667.41c-115.32 0-208.8 93.48-208.8 208.8s93.48 208.8 208.8 208.8 208.8-93.48 208.8-208.8c0-115.31-93.48-208.8-208.8-208.8zm0 333.7a124.91 124.91 0 1 1 124.91-124.9A125.17 125.17 0 0 1 542.5 667.41z" id="Logo"/></g></svg>