<svg version="1" xmlns="http://www.w3.org/2000/svg" width="933.333" height="933.333" viewBox="0 0 700.000000 700.000000"><path d="M329.8.5c-.1.1-4.1.5-8.8.9-17.8 1.2-38.8 4.7-58.1 9.6-65 16.6-124.1 52.1-170.8 102.6-9.4 10.3-10.1 11.1-18.2 21.5C32.4 188.3 7 253.2 1.2 321c-.9 11-.8 50.3.1 60 1.2 10.9 2.7 22.6 4.1 29.5.2 1.1.6 3.6 1 5.5 4.9 27.2 15.6 59.5 28.3 85.7C66 566.3 115.9 619.6 178 654.6c25.4 14.4 46.1 23 78.5 32.7 11.1 3.3 35.4 8.3 45.8 9.3 3.4.3 6.5.8 6.8.9 1.5 1 22.7 2 40.9 2 18.7 0 33.9-.7 43-2.1 14.4-2.1 29.5-4.8 34.5-6.1 3.3-.8 6.7-1.6 7.5-1.8 10.9-2.2 38.8-11.7 55-18.8 11.9-5.1 30.5-14.6 35.2-17.8 1.4-1.1 2.9-1.9 3.3-1.9 1.3 0 26.9-17.5 36.2-24.8 18-14 34.4-29.4 47.6-44.7 3.3-3.9 6.3-7.2 6.7-7.5 1.8-1.4 18.2-23.8 24.6-33.6 31-47.8 50.3-103.9 55.2-160.9 1.4-16.1.7-54-1.2-69.5-.2-1.9-.7-5.8-1-8.6-.4-2.8-.8-5.9-1-7-.2-1-1.1-6-2.1-10.9C677.9 200.1 629.3 122.2 561 71c-4.7-3.5-10.2-7.7-12.2-9.2-2-1.5-4.1-2.8-4.6-2.8s-1.5-.7-2.2-1.5c-.7-.8-2.4-2.1-3.9-2.8-1.4-.8-5.7-3.3-9.6-5.7-23.5-14.5-58.2-29.1-88-37-18.8-5-28.3-6.8-57.5-10.6-4.7-.6-52.6-1.5-53.2-.9zM378 55.4c1.4.3 7 1 12.5 1.6 5.5.7 10.2 1.3 10.5 1.5.3.2 2.5.6 5 1s4.7.8 5.1 1c.3.2 2.1.7 4 1 8.9 1.5 36.4 10 45.4 14 1.7.7 6.4 2.8 10.5 4.6 15.2 6.4 35.7 18.3 51 29.3 49.6 35.7 86.6 84.8 106.7 141.6 4.2 11.9 11.5 39 12.8 47.5.3 2.2.8 5.8 1.1 8 .3 2.2.8 5.1 1 6.5 1.1 7.6 1.9 21.5 1.9 36.5 0 22.4-1.1 34.9-4.6 53.5-1.1 5.8-2.3 11.8-2.6 13.5-1.6 8.9-11.1 38.5-16 49.5-5.5 12.5-15.3 31.4-20.2 39-17.8 27.5-39.1 52.4-59.1 69.1-3.6 3-6.7 5.7-7 6-2.1 2.5-33 23.9-34.5 23.9-.2 0-2.8 1.5-5.7 3.3-6.6 4.2-23.8 12.5-34.3 16.7-28 11.3-56 18-85.5 20.7-21.2 1.9-65.9 0-77-3.2-.8-.3-3.3-.7-5.5-1.1-2.2-.3-4.3-.8-4.6-1-.3-.2-2.1-.6-4-.9-1.9-.3-4.2-.8-5.1-1.1-.9-.3-2.6-.7-3.7-.9-4-.7-25.6-7.7-33.1-10.7-24.6-9.6-47.2-22.1-69-38.1-5.2-3.9-9.7-7.3-10-7.6-.3-.3-3.2-2.8-6.5-5.5-16-13.2-39.7-39.7-51.5-57.5-2.7-4.2-5.4-8.1-5.9-8.7-2.1-2.5-12.2-20.8-16.5-29.9C67.9 445.8 58 409.7 55.2 375c-.9-10.7-.8-40.1.1-50 4.9-55.6 23.9-106 57-151 45.4-61.7 116.1-104.6 191.2-116.1 3.9-.6 8-1.2 9.3-1.4 1.2-.2 6.4-.7 11.5-1.1 5-.3 9.4-.8 9.5-.9.6-.5 41.4.3 44.2.9z"/><path d="M339.7 215.6c-.1.1-2.7.5-5.7.8-4.5.6-14 2.4-21 4.1-.8.2-4.9 1.5-9 3-29.2 10.6-53.6 31-70.3 58.8-2.6 4.3-4.7 8.1-4.7 8.5 0 .4-.7 2-1.5 3.5-3.2 6.1-8.3 22.1-9.9 31.2-2.6 13.9-2.6 34.1-.1 48 1.3 7.3 1.9 9.5 4.6 18 9.4 29.8 30.5 56.6 57.4 73.2 47.4 29.1 108.4 25.9 152.5-8 23.1-17.8 40.4-43.6 47.9-71.7 2-7.4 2.3-9 3.6-18.3 1.1-7.3 1.2-23.1.3-30-.4-3.4-1-7.9-1.3-10-.2-2.1-1-5.7-1.6-8-.6-2.3-1.2-4.9-1.4-5.7-.9-4.2-6.9-19.1-10.5-25.8-6.8-12.5-12.9-20.9-22.4-30.6-18.4-18.7-37.3-29.9-62.3-36.7-4.3-1.2-8.9-2.3-10.3-2.4-1.4-.1-5-.6-8-1-4.6-.7-25.7-1.4-26.3-.9zm22.3 55c6.4 1 6.4 1 13.8 3.3 14.6 4.5 31.7 17.5 40.7 31.1 35.2 53-.6 122.8-64.3 125.4-13.4.6-30.9-4-43.4-11.4-8-4.8-18.6-14.4-23.1-20.9-1.7-2.6-3.4-4.8-3.8-5.1-.7-.5-6-11.7-7.7-16.5-5.4-14.9-6-33-1.6-48.3 11.4-39.1 49.7-63.8 89.4-57.6z"/></svg>