<?xml version="1.0" standalone="no"?>
<!DOCTYPE svg PUBLIC "-//W3C//DTD SVG 20010904//EN"
 "http://www.w3.org/TR/2001/REC-SVG-20010904/DTD/svg10.dtd">
<svg version="1.0" xmlns="http://www.w3.org/2000/svg"
 width="700.000000pt" height="700.000000pt" viewBox="0 0 700.000000 700.000000"
 preserveAspectRatio="xMidYMid meet">
<metadata>
Created by potrace 1.14, written by Peter Selinger 2001-2017
</metadata>
<g transform="translate(0.000000,700.000000) scale(0.100000,-0.100000)"
fill="#000000" stroke="none">
<path d="M105 6984 c-43 -22 -64 -44 -86 -86 -18 -36 -19 -123 -18 -3400 0
-2581 3 -3371 12 -3397 7 -19 29 -48 50 -65 l39 -31 3392 0 3393 0 37 29 c21
16 47 48 57 71 19 42 19 129 17 3413 l-3 3370 -31 39 c-17 21 -44 45 -60 53
-26 13 -426 15 -3399 17 -3039 3 -3373 1 -3400 -13z m6585 -3484 l0 -3190
-3190 0 -3190 0 0 3190 0 3190 3190 0 3190 0 0 -3190z"/>
<path d="M5475 4283 c-84 -19 -130 -50 -170 -113 -13 -21 -27 -53 -30 -72 -4
-21 -12 -35 -21 -35 -8 0 -13 6 -10 12 2 6 -2 12 -9 12 -9 0 -11 -6 -6 -16 10
-22 6 -58 -9 -76 -8 -9 -8 -15 -2 -15 12 0 27 38 24 58 -2 6 1 12 6 12 6 0 10
-26 10 -57 0 -32 3 -69 5 -83 3 -14 7 -32 9 -41 2 -9 12 -28 21 -42 10 -15 14
-27 9 -27 -11 0 -43 56 -35 64 3 3 4 6 1 6 -3 0 -12 -8 -19 -17 -8 -9 -9 -14
-3 -10 6 3 16 -5 22 -18 8 -16 8 -25 1 -25 -5 0 -12 6 -15 14 -12 32 -29 23
-29 -15 0 -27 3 -35 11 -28 8 7 12 2 12 -17 0 -18 -4 -22 -11 -15 -7 7 -14 6
-22 -5 -9 -13 -15 -13 -37 -3 -15 6 -27 19 -27 28 0 9 -2 33 -5 53 -5 43 5 56
25 31 12 -15 12 -16 -5 -9 -19 7 -19 6 -2 -13 15 -17 16 -23 6 -36 -9 -11 -9
-15 -1 -15 7 0 10 -4 7 -9 -3 -5 1 -12 10 -15 21 -8 24 -8 24 5 0 5 -4 8 -9 5
-5 -3 -12 1 -15 10 -9 24 -7 28 9 14 9 -8 15 -8 15 -2 0 6 -6 13 -12 16 -10 5
-10 7 0 12 6 3 12 10 12 16 0 6 -7 4 -17 -3 -15 -12 -16 -12 -10 4 4 10 7 21
7 23 0 3 5 2 10 -1 6 -3 10 -1 10 5 0 7 -8 9 -19 5 -11 -3 -22 -1 -26 5 -3 6
-11 8 -16 5 -5 -4 -9 1 -9 10 0 10 5 13 12 9 7 -5 8 -3 3 6 -5 8 -3 11 6 8 7
-2 21 5 31 16 10 12 17 16 18 10 0 -5 -9 -20 -20 -32 -12 -12 -18 -22 -14 -22
4 0 16 11 28 23 20 22 21 26 8 45 -8 12 -10 22 -4 22 5 0 12 -7 16 -15 3 -8
11 -15 18 -15 9 0 9 3 -2 10 -12 7 -12 12 -2 22 6 6 12 17 12 23 0 5 -5 3 -10
-6 -6 -10 -19 -15 -32 -13 -58 9 -63 8 -60 -3 1 -7 -2 -13 -8 -13 -5 0 -11 10
-11 23 -3 64 -7 104 -12 124 -3 12 -8 54 -11 94 -4 39 -8 75 -11 79 -3 5 -95
8 -205 9 -198 0 -200 -1 -201 -22 -1 -24 -5 -55 -14 -126 -3 -25 -8 -62 -10
-81 -3 -19 -6 -60 -7 -91 -2 -38 -7 -56 -16 -56 -7 0 -11 6 -8 14 3 7 2 12 -2
12 -27 -4 -41 3 -39 21 1 13 6 19 15 15 7 -3 17 -5 20 -5 4 0 0 -5 -8 -10 -12
-7 -11 -9 6 -8 16 2 21 8 20 29 -1 15 -5 31 -10 36 -5 5 -6 2 -1 -6 5 -9 3
-12 -6 -9 -16 5 -19 37 -6 55 5 7 13 11 17 8 5 -3 12 0 16 6 4 7 3 9 -4 5 -6
-3 -16 2 -22 11 -11 17 -11 17 -6 -1 5 -13 2 -17 -8 -13 -11 4 -13 1 -9 -10 5
-12 3 -14 -8 -8 -12 8 -12 6 0 -8 17 -21 14 -24 -22 -31 -19 -3 -27 -1 -24 7
2 7 13 11 23 10 10 -1 13 0 6 3 -6 3 -10 10 -6 15 3 5 1 9 -5 9 -5 0 -13 9
-16 21 -4 11 -9 18 -12 16 -2 -3 0 -15 6 -26 13 -23 -2 -57 -29 -65 -8 -3 -4
-4 9 -3 13 1 26 -4 28 -11 3 -8 -2 -10 -14 -6 -17 5 -17 5 0 -6 9 -6 17 -16
17 -22 0 -7 -5 -6 -15 2 -11 9 -15 9 -15 1 0 -7 -5 -9 -12 -5 -7 4 -8 3 -4 -4
4 -6 14 -8 24 -5 14 6 15 4 4 -9 -17 -21 9 -32 42 -17 32 15 64 -16 62 -60 0
-17 -3 -31 -6 -31 -3 0 -6 -21 -6 -48 -2 -78 -7 -116 -17 -129 -6 -9 -5 -13 3
-13 8 0 9 -4 4 -12 -5 -7 -9 -39 -9 -70 0 -40 -4 -58 -12 -58 -7 0 -13 -5 -13
-11 0 -5 5 -7 10 -4 6 3 10 1 10 -4 0 -6 -4 -11 -10 -11 -5 0 -10 -7 -10 -15
0 -8 -5 -15 -12 -15 -6 0 -8 -3 -4 -7 4 -5 14 1 23 12 15 20 15 20 11 0 -2
-11 -7 -23 -13 -27 -6 -5 -5 -11 4 -17 8 -5 9 -11 3 -15 -6 -3 -8 -14 -5 -24
3 -12 -4 -23 -21 -32 -14 -7 -26 -18 -26 -24 0 -6 5 -5 12 2 7 7 19 12 27 12
11 0 10 -4 -5 -16 -10 -8 -13 -12 -5 -8 11 5 12 -9 7 -82 -4 -49 -9 -97 -12
-106 -5 -16 5 -18 115 -18 l121 0 1 38 c1 61 8 145 12 149 7 6 127 9 136 3 9
-5 20 -92 21 -157 l0 -33 115 0 115 0 -6 73 c-11 119 -11 121 10 139 19 16 22
16 34 1 6 -9 12 -12 12 -6 0 7 -5 15 -10 18 -6 4 -8 11 -5 16 11 17 20 9 22
-20 3 -42 47 -132 79 -163 42 -40 99 -60 185 -65 156 -11 244 39 289 165 17
47 26 60 35 52 9 -7 16 -6 25 5 7 9 19 14 25 11 7 -2 18 0 26 5 10 6 20 2 32
-14 10 -12 15 -16 11 -8 -4 9 0 19 12 28 19 14 19 14 0 11 -10 -2 -21 3 -23
10 -3 8 2 10 14 6 11 -4 14 -3 6 3 -16 11 -20 45 -7 50 7 2 11 -4 10 -13 0 -9
5 -18 12 -20 7 -1 8 0 2 3 -5 2 -10 9 -10 14 0 6 5 7 10 4 6 -3 10 -1 10 4 0
6 -5 11 -11 11 -5 0 -7 5 -4 10 10 17 32 -6 30 -31 -1 -11 -8 -25 -16 -30 -8
-5 -11 -9 -6 -9 4 0 16 6 28 13 17 10 22 9 32 -8 25 -44 9 -66 -31 -41 -13 8
-7 26 9 26 6 0 7 -4 4 -10 -3 -5 -1 -10 4 -10 13 0 14 10 3 27 -10 17 -38 -6
-38 -32 0 -17 7 -20 42 -20 23 0 40 4 37 9 -3 5 3 16 13 24 14 11 15 13 3 9
-17 -6 -39 9 -39 26 0 5 7 4 15 -3 9 -7 18 -10 22 -6 3 3 1 6 -5 6 -7 0 -12 4
-12 9 0 5 11 9 25 9 25 0 34 -12 15 -21 -6 -3 -5 -4 2 -3 7 2 12 14 11 27 -3
24 -3 24 13 4 13 -15 15 -16 11 -3 -6 18 19 46 31 33 4 -4 1 -10 -5 -12 -7 -3
-13 -9 -13 -15 0 -7 5 -6 14 1 11 9 14 6 14 -14 0 -21 -3 -23 -14 -14 -12 10
-13 9 -8 -5 4 -12 13 -15 28 -10 18 6 19 5 7 -9 -7 -9 -17 -14 -22 -11 -5 3
-6 -1 -3 -9 5 -15 -22 -17 -44 -3 -13 8 -7 26 9 26 6 0 7 -4 4 -10 -3 -5 -1
-10 4 -10 13 0 14 10 3 27 -10 17 -38 -6 -38 -32 0 -17 7 -20 42 -20 26 0 40
4 37 11 -6 15 23 38 32 24 3 -5 1 -10 -4 -10 -6 0 -11 -5 -11 -11 0 -8 4 -8
15 1 8 6 18 9 22 7 5 -3 8 14 8 38 0 28 -4 41 -12 38 -6 -3 -16 5 -22 16 -15
28 -14 30 13 27 26 -3 26 18 1 28 -8 3 -12 0 -9 -7 2 -8 -4 -13 -17 -14 -17
-2 -18 1 -9 13 8 9 9 14 2 14 -19 0 -19 -25 -1 -49 10 -13 16 -28 13 -33 -3
-5 4 -20 17 -34 12 -13 18 -24 12 -24 -14 0 -54 45 -47 53 4 3 -1 18 -10 32
l-17 26 -19 -23 c-11 -13 -19 -18 -20 -11 0 6 5 15 10 18 6 3 10 10 10 16 0 5
-8 1 -18 -8 -11 -10 -17 -21 -15 -25 4 -8 -16 -21 -37 -24 -8 -1 -19 -2 -25
-4 -27 -7 -44 1 -42 20 1 11 5 20 9 20 4 0 8 5 8 11 0 8 -6 7 -17 -2 -14 -12
-16 -12 -11 1 7 23 43 19 43 -5 1 -11 -4 -23 -10 -27 -15 -11 7 -10 24 1 12 8
12 13 -3 35 -9 14 -23 26 -31 26 -21 0 -19 16 5 33 19 13 18 14 -11 14 -18 0
-25 -3 -17 -8 7 -4 9 -11 5 -15 -4 -4 -15 0 -24 9 -23 23 -13 29 53 31 43 1
59 -3 69 -16 6 -10 15 -15 18 -12 3 4 -3 14 -14 23 -19 15 -19 18 -6 30 13 10
20 9 42 -5 l26 -17 -22 -24 c-18 -19 -20 -26 -10 -36 10 -10 12 -8 9 7 -1 10
2 21 9 23 7 3 10 -6 8 -23 -2 -26 -2 -27 11 -9 10 14 11 22 2 32 -6 7 -9 14
-7 16 49 28 71 38 76 34 3 -3 -8 -14 -24 -24 -27 -16 -35 -43 -12 -43 4 0 6 8
2 18 -5 13 -1 12 16 -5 27 -29 41 -30 16 -3 -17 19 -17 22 -3 37 15 14 15 18
1 40 -14 21 -14 25 1 42 12 13 14 21 6 26 -5 3 -8 11 -5 16 4 5 1 9 -4 9 -6 0
-11 -7 -11 -17 0 -9 -3 -13 -7 -10 -3 4 -12 -1 -19 -11 -11 -14 -16 -15 -33
-4 -12 6 -24 12 -28 12 -5 0 -2 -4 6 -9 8 -5 15 -19 16 -30 2 -25 -20 -48 -30
-31 -3 5 -1 10 4 10 6 0 11 5 11 11 0 5 -4 7 -10 4 -5 -3 -10 -2 -10 4 0 5 5
12 10 14 6 3 5 4 -2 3 -7 -2 -12 -11 -12 -20 1 -9 -3 -15 -10 -13 -13 5 -9 39
7 50 8 6 5 7 -7 3 -14 -5 -17 -2 -12 10 3 8 6 18 6 20 0 2 5 4 11 4 5 0 7 -5
3 -12 -5 -7 -2 -9 8 -5 9 3 24 0 34 -7 15 -12 21 -9 42 16 14 16 30 27 36 25
7 -3 11 10 11 37 0 34 -3 41 -21 42 -23 2 -54 -35 -32 -37 7 -1 16 -1 20 -1 3
1 12 -6 20 -15 11 -15 11 -16 -5 -10 -10 4 -16 3 -13 -2 3 -5 -2 -15 -11 -22
-14 -12 -15 -11 -9 7 5 15 2 24 -10 28 -14 5 -15 4 -5 -8 9 -11 7 -13 -14 -13
-20 0 -23 2 -14 13 7 9 8 14 1 14 -6 0 -12 -6 -15 -12 -2 -7 -8 -10 -12 -6
-13 12 15 37 32 31 11 -4 9 1 -5 15 l-22 22 -20 -20 c-11 -11 -16 -20 -11 -20
6 0 13 5 16 10 3 6 12 10 18 10 7 -1 2 -9 -11 -20 l-22 -18 30 -22 c17 -12 29
-25 25 -28 -3 -3 -18 3 -33 15 -27 20 -52 20 -52 1 0 -6 6 -6 15 2 16 14 18
10 9 -14 -3 -9 -10 -13 -15 -10 -5 3 -6 -1 -3 -9 6 -16 -23 -44 -33 -33 -4 4
-1 11 7 16 8 5 11 12 7 16 -4 4 -14 -1 -21 -12 -12 -16 -12 -20 0 -27 8 -4 18
-5 23 -2 6 3 9 -4 8 -15 -2 -25 -12 -25 -40 0 -17 17 -19 24 -10 39 6 10 10
30 9 45 -3 21 0 25 13 21 10 -3 25 1 35 8 16 12 16 13 -6 12 -12 0 -33 -4 -46
-9 -28 -9 -54 18 -46 49 3 12 2 15 -3 9 -4 -6 -17 -16 -28 -23 -12 -8 -14 -11
-4 -8 17 6 39 -10 39 -26 0 -5 -7 -4 -15 3 -8 6 -18 9 -23 6 -6 -3 -15 1 -22
9 -10 12 -7 17 14 26 20 10 23 15 15 26 -9 10 -8 13 7 10 30 -4 46 -18 40 -33
-3 -8 -3 -21 0 -29 5 -13 11 -12 35 6 16 11 29 16 29 10 0 -6 5 -11 11 -11 8
0 7 6 -2 16 -12 15 -11 16 7 10 15 -5 24 -2 28 10 5 14 4 15 -8 5 -11 -9 -13
-7 -13 14 0 20 2 23 13 14 8 -6 14 -7 14 -3 0 5 -9 15 -20 22 -11 7 -20 17
-20 23 0 6 12 1 26 -10 15 -12 32 -21 38 -21 6 0 4 5 -4 11 -12 8 -11 9 5 7
13 -3 19 -11 18 -23 -1 -11 0 -14 3 -7 9 20 22 13 22 -13 0 -25 -12 -34 -21
-15 -3 6 -4 5 -3 -2 2 -7 9 -13 17 -13 9 0 14 11 13 33 0 19 4 31 10 29 6 -2
10 -13 8 -23 -3 -19 -3 -19 11 0 8 10 18 16 23 13 5 -3 9 14 9 38 0 30 -4 41
-13 38 -10 -4 -10 -8 0 -21 11 -14 10 -15 -6 -8 -19 7 -19 6 -1 -14 16 -18 8
-30 -9 -13 -4 4 -15 8 -24 8 -21 0 -23 36 -2 43 13 5 13 3 1 -11 -7 -10 -9
-17 -3 -17 16 0 22 28 8 39 -15 13 -14 53 2 59 7 2 9 -6 6 -22 -5 -29 12 -44
29 -26 9 10 8 12 -6 6 -13 -4 -17 -2 -14 6 2 7 11 12 20 12 15 -2 16 31 1 45
-4 3 -4 -2 -1 -12 5 -13 3 -17 -5 -14 -7 2 -11 11 -9 18 2 8 3 22 3 31 0 9 6
22 13 28 12 10 12 15 -2 36 -13 21 -13 27 -2 42 12 15 12 16 -2 5 -9 -7 -19
-9 -24 -5 -4 4 -2 -3 4 -16 7 -13 10 -28 7 -35 -2 -7 -8 -2 -11 11 -4 12 -11
22 -17 22 -5 0 -4 -9 3 -21 7 -14 8 -24 1 -31 -13 -13 -42 -3 -42 13 0 8 4 8
15 -1 10 -9 15 -9 15 -1 0 6 -4 11 -8 11 -4 0 -8 9 -9 20 -1 11 4 20 13 20 8
0 14 4 14 8 0 4 -9 8 -19 8 -11 0 -18 -4 -15 -7 5 -9 -35 -39 -51 -39 -5 1 1
10 15 22 l25 21 -24 -8 c-18 -5 -22 -4 -16 5 5 8 4 11 -3 6 -6 -4 -8 -14 -5
-24 6 -15 5 -15 -10 -3 -9 7 -17 10 -17 5 0 -5 24 -24 52 -43 51 -33 52 -33
80 -16 16 9 32 15 35 12 3 -3 -8 -14 -24 -24 -17 -10 -30 -22 -31 -28 0 -5 -5
-11 -12 -13 -6 -2 -9 2 -8 9 4 16 -62 61 -80 54 -10 -3 -12 0 -8 10 4 13 2 14
-14 5 -25 -13 -23 -66 3 -62 16 3 19 -4 19 -48 0 -43 -3 -49 -22 -47 -12 1
-18 7 -16 14 3 7 -1 10 -9 7 -12 -5 -12 -9 -1 -27 16 -27 13 -62 -6 -85 -16
-18 -14 -42 4 -42 7 0 7 5 -1 13 -8 11 -4 14 21 14 l31 0 -28 -25 -28 -24 -18
23 c-16 22 -16 24 4 51 11 15 18 31 14 35 -4 3 -7 1 -7 -5 0 -7 -4 -12 -9 -12
-5 0 -8 11 -8 25 0 25 11 34 20 15 3 -6 4 -5 3 2 -2 7 -14 12 -27 11 -24 -3
-24 -3 -4 13 15 13 16 15 3 11 -18 -6 -46 19 -33 31 4 4 10 1 12 -5 3 -7 9
-13 15 -13 7 0 6 5 -1 14 -9 11 -6 14 14 14 21 0 23 -3 14 -14 -10 -12 -9 -13
5 -8 11 4 15 13 10 26 -5 16 -3 19 7 13 8 -5 6 1 -4 13 -12 12 -16 26 -11 34
5 9 2 8 -11 -2 -17 -13 -18 -13 -13 0 3 9 -3 26 -13 39 -11 13 -19 20 -19 16
0 -4 -11 0 -25 9 -24 16 -31 12 -26 -16 1 -10 -13 -10 -22 -1 -4 3 -2 12 5 20
6 7 8 17 4 20 -10 10 -37 13 -31 3 2 -4 -7 -7 -20 -7 -14 0 -25 4 -25 10 0 6
-2 8 -5 5 -3 -3 -3 -13 1 -22 5 -14 9 -14 22 -4 13 11 14 10 8 -10 -5 -14 -3
-22 4 -22 6 0 9 4 6 9 -3 4 3 16 14 26 11 10 20 13 20 7 0 -6 -5 -14 -10 -17
-6 -4 -8 -11 -5 -16 4 -5 -1 -12 -10 -15 -12 -5 -13 -10 -4 -20 6 -8 15 -11
20 -8 5 3 9 1 9 -5 0 -17 -17 -21 -30 -6 -12 15 -40 10 -40 -7 0 -6 6 -6 14 2
12 9 15 8 13 -9 -1 -14 -6 -20 -15 -16 -8 3 -10 0 -6 -6 4 -7 1 -10 -6 -7 -8
2 -14 18 -15 35 -1 21 3 29 11 26 6 -2 15 1 20 8 4 7 3 10 -4 6 -13 -9 -44 2
-37 14 3 4 13 5 22 2 15 -6 16 -5 3 9 -8 9 -19 13 -24 10 -5 -3 -7 5 -4 16 4
12 3 22 -1 22 -4 0 -17 24 -29 53 -13 30 -35 65 -50 80 -49 47 -196 79 -277
60z m84 -239 c6 -15 10 -27 9 -28 -2 0 -13 -7 -25 -14 -15 -8 -23 -8 -23 -2 0
6 7 13 15 16 11 5 12 11 5 24 -12 23 -13 30 -2 30 5 0 14 -12 21 -26z m-664
-29 c-2 -30 0 -45 8 -45 7 0 6 -4 -3 -10 -8 -5 -10 -10 -5 -10 6 0 12 -11 13
-25 1 -14 -3 -25 -8 -25 -5 0 -7 8 -3 18 3 9 3 14 -1 11 -21 -19 -9 -88 13
-75 3 2 6 -18 6 -45 0 -47 -7 -61 -20 -39 -4 6 -1 19 6 28 11 14 9 14 -7 -1
-19 -18 -19 -19 5 -38 14 -11 25 -29 26 -39 1 -15 -1 -17 -12 -9 -7 6 -11 14
-9 18 3 4 -5 13 -16 20 -20 12 -20 12 1 -18 12 -17 19 -35 16 -41 -3 -5 0 -7
8 -4 8 3 14 -2 14 -11 0 -9 -6 -14 -14 -11 -7 3 -13 1 -13 -4 0 -6 6 -10 14
-10 23 0 26 -27 5 -54 -21 -26 -18 -73 3 -60 7 4 6 9 -2 14 -7 4 -10 15 -7 24
11 28 23 17 24 -21 1 -21 4 -49 5 -62 3 -21 -1 -24 -32 -24 -65 1 -68 2 -66
28 1 30 4 31 23 8 11 -13 10 -10 -1 9 -19 33 -21 68 -3 68 9 0 9 2 -1 9 -12 7
-13 54 0 66 3 3 3 22 1 41 -3 27 -1 34 9 28 10 -6 11 -5 1 7 -9 11 -10 25 -3
47 6 23 5 32 -3 32 -8 0 -8 3 -2 8 6 4 10 31 10 60 -1 30 3 56 8 59 5 3 3 9
-4 14 -8 5 -9 9 -3 9 7 0 10 13 8 32 -4 31 3 68 12 68 2 0 2 -20 -1 -45z m688
26 c-2 -6 1 -11 5 -11 4 0 8 -9 8 -20 0 -14 -5 -19 -16 -15 -12 5 -13 4 -2 -6
20 -21 14 -33 -8 -14 -11 10 -20 14 -20 8 0 -5 11 -16 25 -23 14 -7 25 -18 25
-23 0 -5 -11 -2 -25 7 -14 9 -25 12 -25 6 0 -5 5 -10 11 -10 5 0 7 -5 3 -12
-5 -7 -3 -8 5 -4 7 5 21 0 32 -10 10 -9 22 -14 26 -11 9 9 34 -13 27 -24 -3
-5 -1 -9 5 -9 5 0 11 5 13 12 2 6 10 8 17 4 9 -6 8 -11 -7 -22 -19 -13 -48
-12 -75 1 -6 4 -1 -2 13 -14 23 -18 27 -19 48 -5 12 8 22 11 22 7 0 -5 9 7 21
26 11 18 23 31 26 28 3 -3 -3 -19 -13 -36 -14 -24 -16 -33 -6 -43 22 -22 12
-32 -10 -11 -23 20 -48 21 -48 1 0 -6 7 -5 16 3 15 12 16 11 10 -8 -10 -30 10
-38 42 -17 15 10 33 17 40 16 6 -2 12 2 12 8 0 6 -5 8 -10 5 -6 -3 -13 1 -16
9 -3 9 -11 16 -16 16 -6 0 -4 -7 3 -17 12 -14 12 -16 -1 -11 -26 8 -18 43 10
46 14 1 30 3 37 4 7 1 10 5 7 10 -3 4 0 8 5 8 6 0 11 5 11 11 0 8 -6 7 -17 -2
-15 -12 -16 -12 -10 4 6 15 4 16 -13 7 -13 -7 -21 -7 -25 0 -5 8 -12 7 -22 -2
-17 -14 -63 -19 -63 -7 0 14 31 31 59 33 16 1 28 -1 25 -5 -4 -7 41 -4 84 5
12 3 22 1 22 -4 0 -12 -17 -22 -23 -13 -2 5 -2 2 0 -5 4 -20 -27 -62 -42 -56
-7 3 -16 1 -20 -5 -3 -7 0 -8 9 -5 11 4 16 0 17 -12 4 -49 -1 -78 -13 -86 -10
-7 -8 -8 5 -4 9 3 17 1 17 -4 0 -21 -20 -19 -47 5 -25 23 -25 25 -6 20 24 -7
41 11 25 27 -7 7 -18 4 -36 -8 -24 -18 -35 -37 -18 -31 4 1 18 -8 30 -19 29
-27 75 -30 67 -4 -6 19 8 33 39 37 15 3 16 0 7 -10 -8 -11 -5 -16 15 -26 21
-9 24 -14 14 -26 -7 -8 -16 -12 -22 -9 -5 3 -15 0 -23 -6 -11 -9 -15 -9 -15
-1 0 6 -5 11 -11 11 -9 0 -9 -4 0 -13 9 -11 5 -14 -19 -15 -16 0 -32 3 -35 9
-3 5 0 6 8 3 8 -3 18 -1 22 5 3 6 0 9 -8 5 -9 -3 -50 28 -108 86 -76 73 -91
92 -79 100 8 5 10 10 5 10 -6 0 -17 -6 -24 -12 -9 -9 -12 -9 -7 -1 3 7 -2 14
-13 18 -13 4 -18 11 -14 22 4 11 2 14 -5 9 -14 -8 -46 39 -37 54 3 5 1 10 -4
10 -6 0 -9 10 -7 23 3 12 5 25 5 30 1 4 8 7 16 7 16 0 21 -25 6 -35 -12 -7 -8
-44 7 -70 11 -18 11 -16 7 13 -5 28 -2 34 20 42 28 11 29 13 14 42 -9 16 -8
19 3 15 7 -2 12 -10 11 -16z m401 -7 c9 -8 16 -13 16 -9 0 3 6 0 14 -7 9 -8
11 -17 5 -24 -6 -7 0 -15 17 -23 21 -9 24 -14 14 -26 -7 -8 -16 -12 -22 -9 -5
3 -20 -2 -34 -11 l-25 -16 23 -19 c13 -11 18 -19 11 -20 -6 0 -15 5 -18 10 -3
6 -10 10 -16 10 -5 0 -1 -8 9 -18 9 -11 20 -17 23 -16 10 5 30 -22 22 -29 -3
-4 -1 -12 5 -19 7 -9 6 -16 -2 -23 -20 -17 -33 -15 -51 5 -11 12 -13 20 -7 20
7 0 12 5 12 11 0 8 -4 8 -14 0 -11 -9 -13 -6 -13 14 0 21 2 23 13 14 12 -10
13 -9 8 5 -7 18 -7 18 -28 10 -13 -5 -14 -10 -5 -20 8 -10 6 -13 -10 -11 -27
2 -26 11 2 38 18 18 19 21 4 15 -13 -4 -17 -2 -14 6 2 7 13 12 23 11 18 -1 18
-1 -1 13 -22 17 -26 55 -6 62 9 3 11 0 6 -9 -5 -8 1 -6 13 4 12 11 26 16 33
11 7 -4 10 -3 5 4 -3 5 0 13 6 16 7 3 3 3 -9 0 -19 -4 -22 -2 -17 13 4 11 3
14 -3 7 -4 -6 -15 -14 -23 -17 -12 -4 -11 -6 3 -6 10 -1 15 -6 12 -12 -5 -7
-13 -5 -24 5 -10 9 -21 13 -26 9 -4 -5 -6 -1 -3 7 3 8 13 15 24 15 10 0 18 6
17 13 -4 17 12 15 31 -4z m196 1 c-7 -8 -17 -12 -22 -9 -6 4 -5 10 3 15 22 14
33 10 19 -6z m-85 -25 c3 -5 1 -10 -4 -10 -6 0 -11 5 -11 10 0 6 2 10 4 10 3
0 8 -4 11 -10z m58 -16 c10 -4 16 -13 13 -20 -3 -8 0 -11 10 -7 8 3 14 2 13
-3 -5 -28 1 -34 21 -22 11 7 20 19 20 26 0 7 4 11 10 7 14 -9 2 -31 -27 -46
-22 -12 -27 -11 -37 4 -7 9 -16 14 -19 10 -6 -6 -11 12 -8 30 0 4 -3 7 -9 7
-16 0 -12 -18 8 -37 18 -17 17 -19 -10 -60 -19 -28 -34 -40 -43 -37 -8 4 -15
10 -15 15 0 4 6 6 14 3 18 -7 29 11 31 50 3 39 -12 69 -31 62 -8 -3 -14 -3
-14 1 0 11 35 32 45 28 6 -3 18 -8 28 -11z m-1535 -6 c12 -6 22 -16 22 -21 0
-5 -11 -2 -24 6 -26 18 -35 10 -31 -30 1 -12 -5 -25 -13 -28 -20 -7 -27 2 -14
18 6 7 9 24 8 38 -3 29 14 34 52 17z m567 -34 c14 -14 14 -19 3 -29 -7 -7 -22
-16 -33 -19 -16 -4 -21 -1 -22 13 -1 11 5 22 13 25 9 3 12 10 9 16 -10 16 12
11 30 -6z m731 4 c4 -6 -2 -18 -12 -26 -16 -12 -16 -14 -2 -9 19 7 34 -8 19
-18 -5 -3 -10 -13 -10 -23 0 -9 -1 -24 -3 -32 -2 -8 0 -15 4 -15 17 0 56 -49
56 -71 0 -20 -3 -22 -14 -13 -12 9 -13 9 -9 -3 3 -8 -1 -21 -10 -28 -12 -10
-18 -10 -30 0 -9 7 -13 20 -10 28 4 12 3 12 -9 3 -11 -9 -13 -7 -13 14 0 19 3
23 12 15 9 -8 14 -6 19 5 7 19 -3 47 -15 39 -12 -7 -11 13 2 38 8 15 8 19 0
14 -6 -4 -11 -5 -11 -2 0 2 -3 13 -7 23 -6 16 -5 16 10 4 9 -7 17 -9 17 -3 0
15 -26 22 -38 10 -8 -8 -6 -15 4 -25 19 -20 18 -34 -3 -27 -11 4 -14 3 -7 -3
21 -16 23 -42 4 -65 -11 -13 -19 -19 -20 -14 0 5 -9 1 -20 -9 -19 -17 -20 -17
-20 -1 0 9 5 14 10 11 6 -3 10 -4 10 -1 0 2 3 11 6 20 3 9 1 16 -6 16 -6 0 -8
-4 -5 -10 3 -5 2 -10 -3 -10 -5 0 -10 12 -10 28 0 34 51 109 84 124 18 8 21
14 12 20 -9 5 -10 8 -1 8 6 0 15 -5 19 -12z m-251 -38 c-8 -12 -55 -9 -55 5 0
7 11 10 30 7 16 -2 28 -8 25 -12z m545 -19 c0 -4 -6 -13 -12 -20 -10 -11 -10
-13 0 -7 16 9 16 -6 0 -22 -10 -10 -10 -17 0 -32 8 -13 8 -20 2 -20 -6 0 -13
7 -16 15 -5 11 -11 12 -26 4 -14 -8 -23 -7 -35 2 -13 12 -13 15 7 31 12 10 19
18 16 18 -4 0 1 11 9 24 11 16 22 22 35 19 11 -3 20 -8 20 -12z m-441 -22 c-7
-4 -17 -5 -22 -2 -5 3 -3 9 4 14 7 4 17 5 22 2 5 -3 3 -9 -4 -14z m-859 1 c0
-5 -4 -10 -10 -10 -5 0 -10 5 -10 10 0 6 5 10 10 10 6 0 10 -4 10 -10z m1190
-44 c0 -3 -4 -8 -10 -11 -5 -3 -10 -1 -10 4 0 6 5 11 10 11 6 0 10 -2 10 -4z
m-845 -37 c4 -6 12 -8 19 -6 21 8 58 -12 52 -28 -3 -8 -1 -15 5 -15 5 0 16 -6
23 -12 11 -11 10 -18 -6 -40 -11 -16 -17 -28 -14 -28 2 0 11 -3 20 -6 9 -3 16
-1 16 6 0 6 -4 8 -10 5 -5 -3 -10 -1 -10 4 0 6 5 11 11 11 5 0 7 5 4 10 -3 6
1 10 10 10 11 0 15 -5 12 -14 -4 -10 -1 -13 7 -10 7 3 26 -10 41 -28 16 -18
32 -32 37 -30 5 1 7 -2 3 -8 -4 -6 -15 -8 -26 -5 -11 4 -19 2 -19 -5 0 -6 4
-9 9 -5 5 3 12 1 16 -5 3 -5 -1 -10 -9 -10 -9 0 -16 -4 -16 -8 0 -17 30 -8 36
10 8 27 39 18 40 -12 2 -45 4 -51 13 -46 5 3 14 -1 21 -9 11 -13 9 -15 -9 -12
-34 5 -55 41 -40 69 11 21 11 22 -4 9 -10 -7 -17 -20 -17 -27 0 -8 -8 -13 -17
-11 -30 4 -45 18 -38 34 4 13 3 13 -9 4 -11 -9 -13 -7 -13 14 0 18 3 23 11 16
8 -7 16 -3 25 12 11 18 11 20 0 10 -19 -18 -34 -16 -19 2 10 13 11 18 1 28
-10 9 -11 8 -6 -5 8 -20 -10 -25 -19 -5 -3 6 -3 2 -1 -10 6 -21 -7 -35 -33
-39 -8 -2 -11 4 -7 16 4 12 -1 22 -12 28 -15 9 -15 14 -5 38 16 33 3 51 -26
35 -10 -6 -22 -7 -26 -4 -3 3 -6 1 -6 -6 0 -7 9 -11 22 -9 11 2 23 -2 25 -7 5
-15 -43 -13 -58 2 -15 15 5 45 26 37 7 -3 18 3 23 13 9 15 7 19 -8 19 -13 0
-16 -4 -9 -12 7 -8 2 -11 -16 -11 -20 0 -23 2 -15 12 8 10 6 15 -9 20 -12 3
-21 11 -21 16 0 12 17 11 25 -2z m455 1 c0 -5 -4 -10 -10 -10 -5 0 -10 5 -10
10 0 6 5 10 10 10 6 0 10 -4 10 -10z m190 0 c0 -5 -4 -10 -10 -10 -5 0 -10 5
-10 10 0 6 5 10 10 10 6 0 10 -4 10 -10z m204 1 c8 -12 -22 -36 -32 -26 -4 4
-1 10 6 12 6 3 10 9 6 14 -3 5 -1 9 5 9 5 0 12 -4 15 -9z m-334 -21 c0 -5 -4
-10 -10 -10 -5 0 -10 5 -10 10 0 6 5 10 10 10 6 0 10 -4 10 -10z m490 -54 c9
-12 8 -15 -9 -13 -21 1 -26 8 -14 20 9 9 9 9 23 -7z m-1075 -12 c15 -15 15
-18 1 -32 -12 -13 -18 -13 -28 -4 -9 9 -8 12 5 12 9 0 17 4 17 10 0 5 -6 7
-13 4 -8 -3 -14 2 -14 11 0 20 11 19 32 -1z m56 9 c9 -56 8 -64 -7 -52 -12 10
-13 9 -8 -5 7 -18 7 -18 28 -10 12 5 14 10 6 19 -7 9 -2 12 20 12 20 0 30 -6
31 -16 4 -44 -1 -75 -13 -83 -9 -7 -8 -8 5 -4 14 4 16 1 11 -19 -4 -15 -2 -25
5 -25 6 0 8 8 4 18 -6 15 -5 15 10 3 27 -22 20 -32 -20 -30 -21 1 -49 -1 -63
-6 -23 -7 -24 -6 -11 9 8 9 20 15 27 12 10 -4 11 0 2 20 l-11 24 -24 -22 c-12
-12 -25 -19 -28 -16 -3 2 4 13 14 22 19 18 18 46 -1 46 -6 0 -6 -6 2 -14 9
-12 8 -15 -9 -13 -13 1 -19 6 -17 14 3 7 -1 10 -10 6 -27 -10 -12 -29 19 -24
5 1 7 -4 4 -11 -2 -7 -10 -12 -16 -10 -17 3 -13 -5 12 -29 17 -17 18 -21 5
-16 -10 4 -18 5 -18 3 0 -3 -3 -13 -6 -23 -4 -12 -3 -14 3 -6 5 7 23 15 39 16
l30 4 0 -87 c-1 -89 -15 -127 -42 -116 -8 3 -11 0 -7 -10 3 -7 0 -14 -7 -14
-6 0 -10 8 -8 18 1 9 -1 23 -5 30 -5 7 -4 12 2 12 6 0 11 5 11 11 0 5 -3 8 -8
6 -4 -3 -7 8 -7 24 -1 29 15 35 23 9 3 -8 0 -10 -9 -5 -8 5 -11 4 -6 -1 5 -5
16 -9 25 -9 21 0 23 -36 2 -43 -13 -5 -13 -3 -1 11 7 10 9 17 3 17 -16 0 -22
-28 -8 -39 20 -17 44 33 26 54 -10 12 -10 18 1 33 13 15 12 16 -3 4 -13 -11
-20 -11 -37 0 -12 7 -21 17 -22 23 -1 5 -2 30 -4 55 -1 25 -6 70 -9 101 -6 52
-5 56 19 69 14 8 24 19 21 26 -2 6 1 17 7 23 13 13 26 14 28 4z m89 -3 c0 -5
-2 -10 -4 -10 -3 0 -8 5 -11 10 -3 6 -1 10 4 10 6 0 11 -4 11 -10z m715 0 c3
-5 1 -10 -4 -10 -6 0 -11 5 -11 10 0 6 2 10 4 10 3 0 8 -4 11 -10z m-108 -34
c-1 -10 4 -20 11 -22 7 -1 8 0 2 3 -19 9 -10 21 15 21 24 0 34 -12 18 -21 -5
-2 -1 -2 7 1 19 6 51 5 58 -2 2 -3 -1 -13 -9 -23 -9 -11 -10 -14 -1 -9 15 9
16 -6 0 -22 -16 -16 6 -56 38 -71 23 -10 29 -5 25 22 -1 10 17 9 23 -2 12 -19
-29 -40 -71 -36 -25 2 -49 -2 -60 -10 -17 -13 -17 -15 10 -43 l28 -29 -27 -18
c-23 -15 -28 -15 -41 -2 -14 14 -13 17 5 28 17 11 18 16 8 33 -6 12 -11 28
-10 36 1 8 2 23 3 33 0 10 7 17 14 16 24 -3 37 1 37 12 0 8 -5 8 -15 -1 -10
-8 -15 -9 -15 -1 0 6 9 16 19 23 16 9 17 15 9 26 -9 10 -8 16 3 23 8 5 10 9 4
9 -20 0 -38 -17 -26 -24 6 -4 11 -13 11 -19 -1 -7 -9 -2 -19 11 -19 22 -38 31
-26 12 3 -5 1 -10 -4 -10 -6 0 -11 -5 -11 -11 0 -8 5 -8 15 1 11 9 15 9 15 1
0 -17 -29 -26 -42 -13 -8 8 -8 15 1 25 9 12 8 16 -4 21 -18 6 -45 -2 -45 -15
0 -5 -5 -9 -11 -9 -5 0 -8 4 -4 9 7 13 -36 10 -53 -2 -19 -15 -40 9 -23 26 12
10 13 9 7 -7 -7 -19 -6 -19 12 -3 11 10 25 16 33 14 8 -2 11 -2 7 0 -15 8 -8
25 7 19 8 -3 20 0 27 7 18 20 47 16 45 -7z m277 -47 c-9 -16 -20 -10 -21 12
-2 17 1 18 12 9 8 -7 12 -16 9 -21z m-874 1 c0 -5 -4 -10 -10 -10 -5 0 -10 5
-10 10 0 6 5 10 10 10 6 0 10 -4 10 -10z m590 5 c0 -3 -9 -15 -20 -27 -18 -19
-22 -20 -45 -8 -20 11 -27 11 -40 0 -10 -8 -15 -9 -15 -2 0 21 36 32 56 18 16
-12 20 -12 32 5 12 18 32 26 32 14z m-596 -47 c-5 -7 -2 -8 7 -2 8 4 22 10 33
11 15 3 16 1 7 -11 -10 -12 -8 -16 8 -21 12 -3 21 -11 21 -16 0 -15 -15 -10
-38 11 -12 12 -22 17 -22 12 0 -19 46 -39 88 -37 24 0 46 -3 48 -7 3 -5 -22
-7 -55 -5 -33 2 -63 0 -65 -5 -2 -5 -3 -3 -2 3 1 7 -8 22 -21 35 -23 23 -33
61 -13 49 6 -4 7 -11 4 -17z m923 4 c-10 -11 -14 -27 -10 -42 3 -15 2 -22 -3
-17 -5 5 -9 14 -9 20 0 5 -7 12 -15 14 -9 3 -11 1 -5 -4 17 -14 17 -43 0 -49
-22 -9 -43 12 -28 27 6 6 10 17 7 23 -2 6 11 19 29 28 42 22 54 22 34 0z
m-392 -20 c1 -12 -4 -27 -12 -33 -10 -9 -15 -6 -22 12 -4 13 -6 30 -3 37 7 21
35 9 37 -16z m75 16 c15 -10 22 -10 32 0 25 25 29 11 4 -18 -24 -29 -29 -71
-11 -100 4 -6 1 -18 -6 -26 -10 -13 -15 -13 -35 1 -13 9 -24 11 -24 5 0 -5 5
-10 12 -10 9 0 9 -3 0 -12 -7 -7 -12 -16 -12 -22 0 -5 6 -1 14 9 14 19 15 19
35 1 20 -18 20 -36 0 -36 -6 0 -8 4 -5 8 2 4 1 14 -3 21 -6 9 -11 10 -15 2 -4
-6 -3 -11 1 -11 13 0 13 -37 0 -37 -7 0 -18 -2 -26 -4 -7 -2 -16 2 -18 9 -3 7
1 10 10 6 8 -3 18 -1 22 5 3 7 0 8 -9 5 -11 -4 -16 0 -17 12 -1 11 -2 31 -3
46 0 14 -4 30 -8 34 -13 12 -9 19 20 32 16 7 34 23 39 35 9 20 7 26 -11 36
-17 11 -19 11 -8 0 14 -16 16 -39 2 -39 -5 0 -10 7 -10 15 0 8 -5 15 -10 15
-7 0 -7 -7 0 -20 14 -26 3 -43 -22 -37 -11 3 -17 3 -14 0 3 -4 1 -12 -4 -18
-8 -9 -6 -14 5 -19 13 -4 14 -10 5 -26 -7 -14 -8 -26 0 -39 12 -23 13 -34 3
-28 -5 3 -9 -6 -10 -20 0 -16 2 -21 7 -13 5 8 10 9 14 2 3 -6 -3 -17 -14 -25
-11 -7 -17 -17 -14 -20 4 -3 15 4 25 16 22 27 25 10 3 -21 -14 -20 -17 -21
-30 -7 -9 8 -13 19 -9 24 6 10 8 128 3 171 -2 14 4 33 14 44 9 10 15 23 12 30
-3 9 7 18 44 35 1 0 11 -5 22 -11z m180 -4 c0 -8 -5 -12 -10 -9 -6 4 -8 11 -5
16 9 14 15 11 15 -7z m-875 -44 c-10 -11 -20 -18 -23 -15 -7 6 18 35 31 35 5
0 2 -9 -8 -20z m302 -2 c38 -42 51 -74 58 -140 4 -36 -8 -53 -17 -25 -3 6 -5
-2 -5 -20 0 -29 2 -31 14 -15 13 15 13 15 7 -8 -8 -30 -19 -43 -39 -46 -16 -2
-20 8 -7 20 4 4 8 20 8 34 1 15 2 35 3 46 1 13 6 16 19 11 13 -5 14 -3 5 5 -8
9 -16 9 -30 1 -10 -6 -14 -11 -10 -11 4 0 3 -9 -3 -20 -8 -14 -8 -26 0 -40 9
-16 8 -22 -5 -26 -8 -3 -12 -11 -8 -18 4 -6 -1 -5 -10 3 -10 8 -15 16 -12 19
3 3 0 11 -6 18 -6 7 -8 42 -6 83 3 39 1 68 -4 65 -5 -3 -6 1 -3 9 2 7 12 14
20 14 9 0 13 -6 9 -16 -5 -11 -1 -11 14 3 22 20 18 42 -10 51 -10 4 -19 11
-19 16 0 16 16 10 37 -13z m410 -190 c-4 -12 -1 -29 5 -37 10 -13 10 -14 -2
-4 -9 8 -19 9 -31 3 -11 -7 -20 -7 -24 0 -3 5 1 10 9 10 9 0 16 5 16 11 0 5
-4 8 -9 4 -5 -3 -12 -1 -15 4 -9 14 20 21 33 8 7 -7 12 -7 11 -2 -3 15 -1 25
6 25 4 0 4 -10 1 -22z m309 -5 c-7 -7 -26 7 -26 19 0 6 6 6 15 -2 9 -7 13 -15
11 -17z"/>
<path d="M4884 3831 c0 -11 5 -17 13 -14 10 4 11 9 2 19 -15 18 -15 18 -15 -5z"/>
<path d="M4875 3700 c3 -5 8 -10 11 -10 2 0 4 5 4 10 0 6 -5 10 -11 10 -5 0
-7 -4 -4 -10z"/>
<path d="M4875 3670 c3 -5 8 -10 11 -10 2 0 4 5 4 10 0 6 -5 10 -11 10 -5 0
-7 -4 -4 -10z"/>
<path d="M4866 3634 c-7 -19 2 -37 15 -29 15 10 10 -12 -7 -30 -17 -16 -13
-45 6 -45 6 0 9 -4 6 -8 -2 -4 7 -8 22 -9 26 -2 26 -1 5 7 -13 5 -23 14 -23
20 0 6 -4 8 -10 5 -16 -10 -12 5 11 36 19 28 16 35 -14 30 -5 -1 -7 4 -4 11 5
13 9 14 42 3 14 -4 12 -2 -5 9 -32 19 -37 19 -44 0z"/>
<path d="M4882 3485 c-7 -8 -9 -15 -4 -15 5 0 15 7 22 15 16 19 -1 19 -18 0z"/>
<path d="M4925 3491 c-3 -5 -2 -12 3 -15 5 -3 9 1 9 9 0 17 -3 19 -12 6z"/>
<path d="M5695 3920 c-3 -5 -1 -10 4 -10 6 0 11 5 11 10 0 6 -2 10 -4 10 -3 0
-8 -4 -11 -10z"/>
<path d="M5575 3910 c-3 -5 -1 -10 4 -10 6 0 11 5 11 10 0 6 -2 10 -4 10 -3 0
-8 -4 -11 -10z"/>
<path d="M5620 3880 c0 -5 5 -10 10 -10 6 0 10 5 10 10 0 6 -4 10 -10 10 -5 0
-10 -4 -10 -10z"/>
<path d="M5832 3734 c2 -16 9 -21 27 -21 22 0 22 0 5 10 -10 6 -22 15 -26 21
-4 6 -6 1 -6 -10z"/>
<path d="M5967 3964 c-3 -3 -3 -13 1 -22 5 -15 4 -15 -11 -3 -10 7 -17 9 -17
3 0 -19 25 -19 48 -1 13 10 31 15 40 12 9 -3 14 -3 10 2 -9 9 -63 16 -71 9z"/>
<path d="M5990 3830 c0 -5 5 -10 10 -10 6 0 10 5 10 10 0 6 -4 10 -10 10 -5 0
-10 -4 -10 -10z"/>
<path d="M5990 3802 c0 -5 7 -9 15 -9 8 0 12 4 9 9 -3 4 -9 8 -15 8 -5 0 -9
-4 -9 -8z"/>
<path d="M5170 3939 c0 -5 -4 -8 -9 -4 -5 3 -12 1 -15 -4 -4 -5 2 -8 11 -7 15
3 33 26 19 26 -3 0 -6 -5 -6 -11z"/>
<path d="M5828 3859 c-16 -28 -13 -35 15 -30 5 1 6 -9 2 -21 -5 -20 -4 -21 5
-5 12 19 4 41 -11 32 -15 -10 -10 12 6 29 8 8 12 17 7 20 -4 2 -15 -9 -24 -25z"/>
<path d="M5940 3779 c0 -5 5 -7 10 -4 6 3 10 8 10 11 0 2 -4 4 -10 4 -5 0 -10
-5 -10 -11z"/>
<path d="M5910 3770 c0 -5 5 -10 10 -10 6 0 10 5 10 10 0 6 -4 10 -10 10 -5 0
-10 -4 -10 -10z"/>
<path d="M5910 3740 c0 -5 5 -10 10 -10 6 0 10 5 10 10 0 6 -4 10 -10 10 -5 0
-10 -4 -10 -10z"/>
<path d="M6166 3891 c-4 -5 -4 -16 0 -24 3 -9 -3 -16 -17 -20 -13 -4 -21 -9
-17 -12 3 -3 17 0 32 6 21 10 24 15 14 26 -9 11 -9 17 3 24 9 5 10 9 2 9 -6 0
-14 -4 -17 -9z"/>
<path d="M5220 3699 c0 -5 5 -7 10 -4 6 3 10 8 10 11 0 2 -4 4 -10 4 -5 0 -10
-5 -10 -11z"/>
<path d="M5186 3654 c-11 -7 -16 -17 -11 -21 4 -5 10 -2 12 5 3 6 9 12 14 12
6 0 7 -4 4 -10 -3 -5 -1 -10 4 -10 13 0 14 10 3 27 -5 8 -12 8 -26 -3z"/>
<path d="M5290 3661 c0 -9 -38 -24 -53 -22 -4 1 -3 -8 3 -19 13 -24 18 -25 16
-4 0 9 4 19 10 21 7 2 10 -8 8 -29 -3 -29 -2 -31 8 -13 12 19 20 75 12 75 -2
0 -4 -4 -4 -9z"/>
<path d="M5285 3560 c3 -5 8 -10 11 -10 2 0 4 5 4 10 0 6 -5 10 -11 10 -5 0
-7 -4 -4 -10z"/>
<path d="M5194 3478 c-19 -23 -19 -23 2 -5 25 21 41 23 24 2 -9 -10 -9 -15 -1
-15 6 0 11 5 11 11 0 5 5 7 10 4 6 -3 10 -2 10 3 0 8 -22 22 -34 22 -2 0 -11
-10 -22 -22z"/>
<path d="M5203 3439 c10 -6 23 -6 33 -1 12 7 8 9 -18 10 -26 1 -30 -1 -15 -9z"/>
<path d="M5890 3675 c-11 -13 -10 -14 4 -9 9 3 16 10 16 15 0 13 -6 11 -20 -6z"/>
<path d="M6016 3555 c-10 -8 -23 -12 -27 -9 -5 3 -9 0 -9 -5 0 -16 15 -13 41
9 28 22 23 26 -5 5z"/>
<path d="M5975 3440 c-8 -13 5 -13 25 0 13 8 13 10 -2 10 -9 0 -20 -4 -23 -10z"/>
<path d="M6195 3540 c3 -5 8 -10 11 -10 2 0 4 5 4 10 0 6 -5 10 -11 10 -5 0
-7 -4 -4 -10z"/>
<path d="M5836 3592 c-2 -4 -1 -14 4 -22 7 -11 9 -9 7 8 -1 24 -3 26 -11 14z"/>
<path d="M5875 3540 c3 -5 8 -10 11 -10 2 0 4 5 4 10 0 6 -5 10 -11 10 -5 0
-7 -4 -4 -10z"/>
<path d="M5901 3501 c-9 -6 -10 -11 -2 -15 6 -4 11 -2 11 3 0 6 5 11 11 11 6
0 9 -7 6 -15 -8 -19 12 -30 26 -16 9 9 7 10 -8 5 -17 -7 -18 -6 -7 8 10 13 10
17 -4 22 -19 7 -16 8 -33 -3z"/>
<path d="M5535 3474 c-16 -14 -23 -24 -15 -22 8 2 23 12 33 23 11 12 16 14 13
5 -3 -8 -9 -23 -12 -33 -4 -10 -13 -16 -20 -13 -7 3 -16 0 -20 -6 -5 -7 -3 -8
5 -4 15 10 11 -25 -4 -36 -5 -4 -6 -10 -2 -15 9 -8 28 17 21 28 -6 10 35 38
50 35 6 -2 8 -1 3 1 -4 3 -4 10 0 16 4 7 -1 6 -10 -2 -10 -8 -17 -9 -17 -3 0
6 7 15 16 20 12 7 13 11 2 19 -10 8 -21 5 -43 -13z"/>
<path d="M5521 3343 c7 -12 15 -20 18 -17 3 2 -3 12 -13 22 -17 16 -18 16 -5
-5z"/>
<path d="M1260 4267 c-1 -36 -12 -135 -16 -152 -3 -11 -7 -47 -10 -79 -2 -33
-6 -61 -8 -64 -2 -2 -14 1 -25 8 -20 10 -26 4 -22 -22 0 -5 -3 -8 -7 -8 -17 0
-21 13 -9 31 9 14 9 21 -1 31 -22 22 -13 32 11 11 31 -28 47 -36 47 -24 0 6
-7 11 -15 11 -9 0 -15 6 -14 13 3 24 -1 37 -12 37 -8 0 -8 -5 1 -15 15 -18 -1
-20 -18 -3 -16 16 -15 28 3 28 8 0 15 4 15 8 0 4 -9 8 -19 8 -11 0 -18 -4 -15
-7 2 -4 -6 -15 -18 -24 l-23 -17 25 8 c22 6 23 5 11 -9 -10 -13 -17 -14 -34
-5 -21 11 -21 11 4 31 l24 20 -24 -8 c-18 -5 -22 -4 -16 5 5 8 4 11 -3 6 -6
-4 -8 -14 -5 -24 6 -15 5 -15 -10 -3 -9 7 -17 9 -17 5 0 -5 9 -15 20 -22 11
-7 20 -17 20 -22 0 -6 -13 -1 -30 11 -22 17 -27 26 -20 38 6 13 4 17 -11 17
-11 0 -15 -4 -10 -9 5 -5 7 -16 4 -23 -3 -8 0 -14 7 -14 6 0 8 -5 4 -11 -8
-14 -29 5 -29 28 0 20 -37 34 -56 22 -12 -8 -12 -10 1 -8 36 4 49 -2 47 -21
-1 -11 -5 -20 -9 -20 -4 0 -8 -5 -8 -11 0 -8 6 -7 17 2 14 12 16 12 11 -1 -7
-23 -43 -19 -43 5 -1 11 4 24 10 28 6 5 4 7 -5 4 -8 -2 -14 -10 -13 -16 2 -6
-2 -11 -7 -11 -6 0 -10 7 -10 15 0 8 -5 15 -10 15 -7 0 -7 -7 1 -21 7 -14 8
-24 1 -31 -13 -13 -42 -3 -42 13 0 8 4 8 15 -1 10 -9 15 -9 15 -1 0 6 -4 11
-8 11 -4 0 -8 9 -9 20 -1 11 4 20 13 20 8 0 14 4 14 8 0 4 -9 8 -19 8 -11 0
-18 -4 -15 -7 5 -9 -35 -39 -51 -39 -5 1 1 10 15 22 l25 21 -24 -8 c-18 -5
-22 -4 -16 5 5 8 4 11 -3 6 -6 -4 -8 -14 -5 -24 6 -15 5 -15 -10 -3 -9 7 -17
10 -17 5 0 -5 24 -24 52 -43 41 -27 55 -31 69 -23 22 14 71 -7 64 -26 -3 -8
-5 -18 -5 -23 0 -6 -5 -7 -11 -4 -6 4 -8 13 -5 20 6 16 -18 27 -38 19 -8 -3
-12 -12 -10 -19 3 -7 1 -16 -4 -19 -5 -3 -12 3 -15 14 -6 23 -67 62 -86 55 -8
-3 -11 0 -8 9 4 11 1 13 -10 9 -12 -5 -14 -3 -8 8 4 8 4 11 0 6 -5 -4 -18 0
-31 8 -20 13 -23 12 -28 -1 -3 -9 -3 -20 0 -26 3 -5 -2 -19 -13 -30 -10 -12
-12 -18 -4 -13 10 5 12 3 7 -11 -3 -11 -2 -25 3 -32 6 -10 10 -10 21 3 11 13
10 18 -3 33 -14 16 -14 19 2 40 l17 23 25 -20 c13 -11 19 -20 12 -21 -6 0 -20
-3 -30 -7 -16 -6 -16 -5 -4 10 7 10 9 17 3 17 -18 0 -20 -24 -4 -42 14 -16 14
-20 0 -35 -16 -19 -14 -43 4 -43 6 0 6 6 -2 15 -16 19 -7 19 30 0 27 -14 33
-14 61 0 23 12 29 21 24 36 -4 10 -2 19 3 19 5 0 12 -9 15 -20 4 -15 -5 -27
-37 -49 -37 -26 -43 -27 -52 -14 -8 13 -14 14 -31 5 -17 -10 -23 -8 -35 10
-15 22 -15 22 -13 -10 1 -21 -2 -31 -9 -29 -7 3 -12 -3 -12 -12 0 -10 9 -18
20 -19 10 0 23 -7 29 -14 6 -9 7 -8 3 5 -3 9 -2 17 3 17 16 0 20 -13 10 -31
-16 -31 5 -21 23 10 14 26 14 30 1 35 -8 3 -19 3 -24 0 -11 -7 -39 14 -39 28
0 6 7 5 15 -2 12 -10 19 -10 27 -2 7 7 16 12 22 12 5 0 6 -3 3 -7 -4 -3 1 -12
11 -19 16 -12 16 -14 0 -41 -16 -27 -16 -30 0 -39 13 -8 21 -6 34 7 16 17 16
18 -2 16 -10 -1 -16 -5 -14 -9 3 -4 0 -8 -6 -8 -6 0 -10 8 -8 17 3 19 35 24
55 10 13 -9 6 -40 -7 -32 -5 3 -13 -2 -18 -12 -9 -15 -14 -15 -37 -5 -14 7
-24 8 -21 3 3 -5 -1 -12 -10 -15 -24 -9 -28 -7 -14 9 7 9 8 15 2 15 -17 0 -22
-28 -7 -40 15 -13 11 -30 -6 -30 -6 0 -8 4 -5 9 3 5 -1 14 -9 21 -12 10 -12
15 1 35 13 20 13 24 -1 35 -12 10 -18 11 -28 1 -9 -10 -9 -11 4 -6 21 8 21
-24 0 -49 -9 -11 -10 -16 -3 -12 13 8 17 -6 5 -18 -10 -10 -11 -46 -1 -40 5 3
7 13 6 21 -2 9 2 18 9 20 16 6 7 -48 -10 -60 -8 -6 -5 -7 6 -3 12 4 17 2 14
-6 -2 -7 -13 -12 -23 -10 -18 3 -18 3 1 -11 20 -15 20 -15 0 -38 -11 -12 -15
-20 -9 -16 7 4 11 -5 11 -23 0 -16 -3 -27 -6 -26 -3 2 -7 -8 -8 -22 l-1 -27
16 30 c8 17 17 25 19 18 2 -7 -1 -21 -7 -33 -6 -11 -8 -25 -4 -31 3 -6 -2 -20
-13 -31 -10 -12 -12 -18 -5 -14 6 4 12 3 12 -1 0 -5 -6 -15 -12 -23 -11 -12
-10 -12 5 -1 9 8 21 10 25 6 4 -4 1 -10 -5 -12 -7 -3 -13 -9 -13 -15 0 -7 5
-6 14 1 11 9 14 6 14 -14 0 -21 -3 -23 -14 -14 -12 10 -13 9 -8 -5 4 -11 13
-15 28 -10 20 6 20 6 3 -12 -18 -19 -19 -18 -38 5 -10 13 -19 19 -19 13 0 -5
7 -15 15 -22 9 -7 14 -18 12 -24 -3 -7 3 -12 13 -12 10 0 16 5 13 12 -2 6 9
22 25 36 25 21 28 27 16 42 -7 10 -10 25 -7 34 4 10 2 13 -5 8 -7 -4 -12 -2
-12 3 0 6 2 11 4 11 2 0 12 3 20 6 12 5 15 2 10 -12 -4 -12 -3 -15 3 -7 11 16
45 20 50 7 2 -7 -4 -11 -13 -10 -9 0 -19 -6 -21 -14 -4 -13 -3 -13 6 0 5 8 13
11 17 7 4 -3 1 -14 -7 -23 -12 -14 -14 -14 -26 2 -17 23 -17 10 0 -17 10 -17
9 -22 -5 -33 -10 -7 -15 -16 -11 -19 3 -4 -1 -7 -10 -7 -10 0 -17 -5 -17 -11
0 -5 4 -8 9 -4 5 3 13 0 16 -5 5 -8 13 -6 26 6 17 15 20 15 43 1 21 -14 26
-14 36 -2 15 19 52 15 45 -4 -4 -10 1 -9 16 5 17 15 21 15 17 3 -4 -9 -1 -16
7 -16 7 0 11 6 9 12 -6 15 24 41 34 30 4 -4 1 -10 -5 -12 -7 -3 -13 -9 -13
-15 0 -6 7 -4 17 3 14 12 16 12 11 -1 -4 -12 3 -15 37 -15 38 0 41 2 39 22 -1
13 2 23 7 23 5 0 9 5 9 12 0 6 -8 4 -19 -6 -11 -10 -18 -23 -15 -30 3 -7 -4
-12 -17 -12 -27 0 -57 42 -41 58 13 13 42 4 42 -13 0 -8 -4 -8 -15 1 -10 9
-15 9 -15 1 0 -6 5 -11 11 -11 5 0 7 -4 4 -10 -13 -21 8 -9 27 16 11 14 26 23
33 21 6 -3 12 1 12 7 0 8 -10 12 -24 10 -15 -1 -23 2 -20 9 2 7 13 10 23 9 15
-3 17 -1 7 9 -10 10 -16 10 -25 1 -17 -17 -33 -15 -18 3 9 10 9 15 1 15 -6 0
-11 -5 -11 -11 0 -8 -4 -8 -15 1 -17 14 -36 5 -28 -15 3 -8 0 -15 -6 -15 -6 0
-11 5 -11 11 0 8 -5 8 -15 -1 -10 -8 -15 -9 -15 -2 0 6 7 15 16 20 12 6 8 9
-16 9 -17 0 -27 -3 -22 -6 28 -19 18 -55 -18 -63 -8 -2 -23 -16 -33 -32 -24
-37 -34 -26 -11 12 16 29 16 31 -6 62 -21 30 -22 33 -5 48 16 16 17 16 11 -5
-9 -28 37 -84 54 -66 17 16 2 35 -21 28 -21 -7 -21 -8 -21 98 -1 74 4 86 26
68 8 -6 19 -10 24 -9 6 2 17 -6 25 -16 13 -18 14 -17 12 12 -2 35 6 40 25 17
9 -10 9 -15 1 -15 -6 0 -11 -5 -11 -11 0 -5 4 -8 9 -5 5 3 15 -2 22 -11 12
-14 11 -15 -9 -9 -14 5 -22 3 -22 -4 0 -6 4 -9 9 -6 11 7 33 -18 24 -27 -9 -9
-43 -9 -42 1 5 29 -2 34 -21 17 -11 -10 -22 -16 -25 -13 -3 3 1 11 9 17 16 13
11 41 -6 41 -6 0 -5 -6 2 -15 8 -9 9 -15 2 -15 -6 0 -17 9 -25 20 -13 19 -14
18 -14 -11 0 -18 3 -25 8 -17 4 7 11 9 15 5 4 -4 -1 -16 -11 -27 -14 -16 -15
-22 -5 -35 8 -10 9 -15 1 -15 -6 0 -11 -5 -11 -11 0 -6 7 -5 19 3 11 8 45 13
90 12 39 -1 74 2 77 7 3 5 10 9 16 9 7 0 7 -5 -1 -14 -9 -10 -8 -15 3 -19 9
-4 18 -1 22 5 4 6 3 8 -3 5 -6 -4 -10 4 -10 18 0 14 3 22 8 19 5 -3 6 2 3 10
-3 9 -1 16 5 16 11 0 8 -81 -4 -100 -3 -6 0 -10 7 -10 8 0 9 -3 2 -8 -5 -4
-10 -21 -9 -39 0 -17 -2 -30 -5 -28 -3 2 -4 -25 -4 -58 1 -34 -2 -86 -5 -114
l-7 -53 118 0 c116 0 118 0 119 23 1 56 11 162 15 166 5 5 135 4 140 -1 1 -2
6 -45 10 -96 l7 -92 114 0 114 0 -6 73 c-4 39 -8 90 -10 111 -4 40 18 72 39
59 5 -3 -2 -11 -14 -18 -15 -8 -19 -15 -11 -19 6 -4 11 -2 11 5 0 8 5 7 17 -2
14 -12 16 -12 8 0 -5 9 -2 19 11 28 16 12 16 14 2 11 -9 -2 -24 6 -32 17 -14
19 -14 19 -13 1 1 -10 -4 -21 -12 -24 -9 -3 -11 0 -7 7 4 7 2 19 -6 28 -9 12
-9 15 0 9 6 -4 12 -2 12 3 0 6 -4 11 -9 11 -5 0 -8 22 -7 50 2 27 0 47 -3 45
-4 -2 -6 21 -6 51 0 30 -2 54 -5 54 -3 0 -5 24 -5 53 0 28 -4 55 -8 58 -4 3 3
10 16 16 36 17 64 -8 49 -42 -6 -14 -17 -25 -23 -25 -7 0 -6 9 4 24 15 22 15
25 0 30 -9 4 -18 4 -21 1 -3 -3 0 -5 6 -5 7 0 12 -5 12 -11 0 -5 -5 -7 -12 -3
-7 5 -9 2 -5 -8 3 -9 1 -20 -5 -26 -7 -7 -3 -10 16 -8 17 2 30 -4 40 -19 14
-21 12 -25 -20 -60 -31 -35 -49 -64 -22 -37 20 20 32 13 14 -7 -13 -14 -14
-21 -5 -27 8 -5 10 -3 4 6 -5 9 -2 10 13 6 13 -5 22 -1 26 10 5 14 4 15 -8 5
-11 -9 -13 -7 -13 14 0 20 2 23 13 14 9 -7 14 -8 14 -1 0 6 -6 12 -12 15 -7 2
-10 8 -6 12 4 4 16 2 25 -6 15 -11 16 -11 6 1 -17 19 -16 31 2 24 17 -7 21
-44 5 -44 -5 0 -10 -5 -10 -11 0 -5 4 -8 9 -4 5 3 12 1 16 -5 3 -5 1 -10 -6
-10 -12 0 -38 -29 -39 -42 0 -5 5 -8 11 -8 5 0 8 4 5 9 -3 5 2 15 11 22 14 12
15 11 8 -10 -4 -13 -3 -21 2 -18 5 3 7 -10 5 -29 -2 -19 -8 -34 -14 -34 -5 0
-6 6 -1 13 4 6 -5 4 -20 -5 -31 -21 -38 -22 -34 -7 1 6 -5 14 -13 16 -12 4
-12 3 -2 -5 8 -5 13 -12 13 -16 -3 -24 1 -27 19 -11 11 10 22 16 25 13 3 -3
-1 -11 -9 -17 -16 -13 -11 -41 6 -41 6 0 6 6 -2 14 -9 12 -8 15 9 13 17 -1 21
-8 21 -35 0 -19 -4 -31 -10 -27 -5 3 -10 2 -10 -4 0 -5 6 -11 12 -13 9 -3 13
-34 13 -104 l0 -99 118 -3 117 -3 0 98 c1 92 2 99 25 115 36 27 50 14 64 -60
7 -37 18 -86 23 -109 l10 -43 117 0 116 0 0 139 c0 77 2 138 5 136 3 -2 5 41
5 96 0 54 -2 99 -5 99 -3 0 -5 11 -5 24 0 13 4 22 8 19 7 -4 3 28 -9 65 -2 6
1 12 6 12 6 0 10 -5 10 -11 0 -7 5 -8 13 -3 18 14 47 11 57 -6 5 -8 10 -12 10
-7 0 4 -5 16 -12 27 -11 16 -9 23 10 40 27 25 27 28 5 26 -22 -1 -24 35 -3 42
13 5 13 3 1 -11 -9 -11 -10 -17 -2 -17 6 0 11 6 11 13 1 6 7 1 14 -11 13 -24
13 -24 13 7 0 18 -3 27 -7 21 -4 -7 -13 -4 -23 8 -16 18 -16 19 13 19 30 0 32
-4 32 -47 0 -46 -2 -52 -18 -46 -8 3 -12 2 -9 -4 11 -17 24 -11 40 20 14 27
14 33 0 61 -12 22 -21 28 -34 24 -10 -3 -24 1 -30 9 -10 12 -8 17 8 25 12 7
22 7 26 2 3 -5 0 -11 -7 -14 -7 -2 -5 -3 5 -1 11 1 27 -12 42 -34 14 -20 25
-32 25 -26 0 5 -5 15 -12 22 -7 7 -8 12 -3 12 5 0 -1 7 -13 16 -19 13 -21 19
-11 30 7 8 17 13 24 11 6 -3 11 6 10 23 0 16 -4 26 -8 23 -5 -3 -6 -11 -3 -19
3 -8 2 -14 -3 -14 -18 0 -20 15 -6 37 9 13 12 23 7 23 -5 0 -13 -10 -19 -22
-5 -12 -12 -18 -15 -12 -7 11 38 84 51 84 5 0 9 -51 9 -112 0 -95 -3 -117 -19
-137 -21 -27 -24 -41 -8 -41 5 0 8 4 5 9 -3 4 1 16 8 27 13 17 14 15 14 -17 0
-34 -1 -35 -36 -33 -21 1 -41 3 -47 4 -5 1 -16 2 -23 1 -17 -1 8 -41 26 -41 7
0 11 -4 7 -9 -3 -6 2 -14 12 -19 15 -9 15 -14 5 -37 -7 -14 -8 -24 -3 -21 5 3
12 -1 15 -10 9 -24 7 -28 -9 -14 -9 7 -15 8 -15 2 0 -19 28 -21 44 -3 19 20
20 31 5 31 -5 0 -7 -4 -4 -10 3 -5 2 -10 -3 -10 -6 0 -13 7 -16 16 -9 22 -8
24 8 18 8 -3 17 -1 21 5 3 7 0 8 -9 5 -11 -4 -16 0 -16 10 0 9 0 19 -1 23 0 4
4 9 10 11 7 2 9 -4 5 -15 -5 -14 -4 -15 4 -3 6 8 8 18 6 22 -3 4 -1 8 4 8 6 0
10 -42 10 -95 1 -57 -3 -93 -9 -90 -5 4 -9 1 -9 -4 0 -6 4 -11 9 -11 5 0 9
-18 9 -40 0 -22 -4 -40 -9 -40 -6 0 -8 10 -4 23 5 19 5 20 -5 4 -9 -14 -9 -22
0 -32 7 -8 16 -13 20 -10 5 3 6 -4 3 -14 -3 -13 -10 -18 -21 -14 -10 4 -13 2
-8 -5 4 -7 3 -12 -2 -12 -6 0 -13 7 -16 16 -9 23 -8 24 12 18 11 -4 13 -3 5 3
-15 11 -25 63 -12 63 5 0 9 5 9 11 0 8 -4 8 -14 0 -11 -9 -13 -6 -13 14 0 19
3 23 12 15 9 -7 11 -2 10 21 -1 19 2 28 9 26 7 -3 12 4 12 14 0 16 -2 17 -15
5 -12 -13 -17 -13 -37 0 -15 10 -24 12 -29 5 -3 -6 -11 -11 -17 -11 -7 0 -6 6
2 15 7 9 8 15 2 15 -19 0 -20 -26 -2 -48 20 -24 35 -28 45 -11 4 6 0 9 -10 7
-10 -2 -20 2 -22 8 -5 13 28 15 45 1 18 -14 15 -25 -9 -32 -16 -5 -18 -10 -8
-21 8 -9 8 -14 1 -14 -6 0 -16 8 -22 18 -10 14 -11 14 -6 0 2 -9 -1 -24 -8
-34 -12 -15 -10 -20 8 -35 20 -17 21 -18 2 -36 -18 -17 -18 -17 -12 3 5 15 1
24 -10 28 -14 5 -15 4 -5 -8 9 -11 7 -13 -14 -13 -20 0 -23 2 -14 13 8 10 8
14 0 14 -6 0 -11 -5 -11 -11 0 -5 -5 -7 -12 -3 -6 4 -8 3 -4 -4 3 -6 2 -13 -4
-17 -5 -3 -10 -12 -10 -18 0 -8 4 -7 9 2 5 8 19 15 30 16 25 2 48 -20 31 -30
-5 -3 -10 -1 -10 4 0 6 -5 11 -11 11 -5 0 -7 -4 -4 -10 3 -5 2 -10 -4 -10 -5
0 -12 6 -15 13 -3 6 -3 1 1 -13 5 -22 4 -23 -11 -11 -9 8 -16 9 -16 3 0 -18
24 -20 44 -3 17 14 19 14 14 0 -4 -9 -1 -16 7 -16 7 0 11 6 8 13 -2 6 4 18 15
25 10 8 25 25 32 39 7 14 15 20 17 13 3 -7 -1 -22 -7 -34 -7 -12 -8 -19 -2
-15 5 3 13 -1 16 -10 9 -24 7 -28 -9 -14 -9 8 -15 8 -15 2 0 -18 24 -20 43 -4
9 8 20 12 24 9 3 -4 6 -56 7 -117 l0 -110 68 -1 c38 0 88 -1 113 -1 25 -1 49
2 52 6 4 4 7 66 8 139 l0 132 34 -2 c19 -1 38 -8 42 -15 6 -10 9 -10 9 -1 0
14 -59 48 -68 39 -3 -3 1 -6 8 -6 7 0 11 -2 8 -5 -3 -3 -13 -3 -22 1 -13 5
-14 9 -4 21 8 10 8 17 1 21 -11 7 -10 24 3 56 5 12 4 17 -3 13 -5 -3 -9 3 -8
14 2 26 26 43 37 26 13 -20 9 -30 -7 -17 -10 9 -15 9 -15 1 0 -6 5 -11 11 -11
5 0 7 -6 3 -12 -4 -7 3 -4 15 6 30 27 58 27 77 -1 12 -20 13 -27 3 -40 -12
-13 -15 -13 -30 5 -12 16 -19 18 -28 9 -8 -8 -11 -8 -11 1 0 6 8 16 18 21 9 6
12 11 6 11 -6 0 -19 -9 -29 -20 -10 -11 -21 -18 -24 -16 -4 3 -6 -7 -5 -21 1
-35 64 -86 64 -52 0 5 -4 8 -8 5 -17 -10 -50 23 -45 44 6 23 14 25 31 8 17
-17 15 -33 -3 -18 -10 9 -15 9 -15 1 0 -11 13 -15 38 -12 12 2 15 -11 14 -61
-1 -33 4 -35 18 -8 12 22 2 49 -33 88 -11 12 -16 22 -10 22 13 0 63 -57 63
-71 0 -6 4 -7 10 -4 20 12 9 -11 -20 -43 -33 -36 -40 -52 -13 -31 14 12 16 12
11 -1 -4 -11 0 -16 12 -16 10 0 18 3 18 6 -2 21 4 40 12 40 5 0 9 -10 7 -22
-1 -15 4 -23 16 -24 11 -1 12 0 2 3 -8 2 -14 14 -12 25 3 29 -21 34 -31 7 -5
-12 -12 -18 -15 -12 -3 5 1 19 9 31 15 21 40 20 57 -2 5 -7 6 -4 3 7 -4 12 -2
17 6 14 15 -5 11 -38 -5 -50 -8 -6 -5 -7 7 -3 13 4 17 2 13 -7 -3 -8 1 -14 9
-14 7 0 11 4 8 8 -7 12 26 60 37 53 5 -3 17 0 26 6 16 9 15 10 -4 5 -15 -4
-23 -2 -24 7 0 7 -2 21 -4 31 -2 9 1 17 6 17 5 0 9 5 9 11 0 8 -4 8 -14 0 -11
-9 -13 -6 -13 14 0 21 2 23 13 14 12 -10 13 -9 8 5 -4 11 -13 15 -28 11 -21
-6 -21 -6 -1 11 12 10 14 14 5 11 -8 -2 -23 0 -33 5 -12 6 -24 4 -40 -7 -21
-15 -21 -15 16 -11 34 5 37 3 26 -10 -7 -8 -19 -12 -28 -9 -9 3 -5 -3 7 -13
23 -18 23 -19 5 -37 -17 -18 -17 -18 0 -12 19 7 57 -11 57 -28 -1 -14 -39 -63
-40 -50 0 6 7 20 15 32 13 19 13 22 0 27 -8 3 -21 3 -29 0 -15 -6 -29 10 -33
40 -3 16 -1 17 12 6 9 -7 15 -8 15 -2 0 20 -28 20 -46 1 -14 -15 -14 -19 -3
-14 10 4 16 0 16 -10 0 -10 -6 -14 -14 -10 -8 3 -17 5 -19 5 -12 0 -1 29 16
45 l21 19 -23 12 c-13 7 -30 24 -38 38 -12 23 -11 28 6 44 18 18 20 18 53 -2
36 -21 28 -36 -9 -16 -11 6 -27 7 -35 3 -11 -7 -10 -12 6 -33 16 -21 19 -22
17 -6 -2 10 3 21 10 23 8 3 10 -2 6 -14 -4 -13 -3 -14 3 -5 10 14 38 18 63 10
8 -3 12 -3 8 -1 -17 9 -7 21 17 21 25 0 34 -12 15 -21 -6 -3 -5 -4 2 -3 7 2
13 9 13 17 0 17 -44 21 -62 7 -16 -13 -17 4 -2 19 6 6 19 9 28 6 10 -3 8 0 -4
8 -11 7 -23 17 -28 23 -4 6 -6 0 -5 -13 2 -13 -2 -26 -8 -28 -7 -2 -10 9 -9
28 2 30 1 31 -12 13 -8 -10 -20 -17 -26 -15 -7 2 -21 4 -32 5 -24 1 -28 37 -5
44 13 5 13 3 1 -11 -9 -11 -10 -17 -2 -17 6 0 11 4 11 8 0 4 9 8 21 9 17 2 18
-1 9 -13 -8 -8 -8 -14 -2 -14 17 0 22 28 7 40 -8 7 -13 22 -12 33 1 17 -3 21
-19 20 -14 -2 -24 4 -27 17 -3 14 6 26 34 44 47 31 55 32 69 5 9 -16 8 -26 -5
-45 -15 -23 -10 -30 18 -25 5 1 5 -9 1 -21 -7 -23 -6 -23 14 2 19 24 20 50 0
50 -6 0 -6 -6 2 -14 9 -12 8 -15 -9 -13 -25 2 -26 10 -7 30 11 11 12 17 4 25
-7 7 -9 15 -5 18 3 4 16 -10 28 -30 11 -20 22 -36 23 -36 1 0 2 9 2 19 0 11
-3 18 -7 15 -4 -2 -10 3 -13 12 -9 24 -7 28 8 15 11 -9 15 -8 20 5 8 21 8 21
-10 28 -14 5 -15 4 -5 -8 9 -11 7 -13 -14 -13 -20 0 -23 2 -14 13 8 10 8 14 0
14 -6 0 -11 -4 -11 -9 0 -9 -49 -5 -59 5 -3 2 0 9 6 15 6 6 9 18 6 25 -4 10 0
12 13 8 12 -4 15 -3 7 3 -16 11 -20 45 -7 50 7 2 11 -4 10 -13 0 -9 5 -18 12
-20 7 -1 8 0 2 3 -5 2 -10 9 -10 14 0 6 5 7 10 4 6 -3 10 -1 10 4 0 6 -5 11
-11 11 -5 0 -7 5 -4 10 10 17 32 -6 30 -31 -1 -11 -8 -25 -16 -30 -8 -5 -11
-9 -6 -9 4 0 16 6 27 12 16 10 22 10 33 -5 12 -17 13 -17 13 2 0 11 -3 19 -6
19 -27 -2 -39 5 -37 22 1 11 5 20 9 20 4 0 8 5 8 11 0 8 -6 7 -17 -2 -15 -12
-16 -12 -10 4 4 10 7 21 7 23 0 3 9 0 20 -6 21 -11 23 -38 5 -53 -6 -5 -4 -7
4 -5 23 6 23 45 0 62 -19 13 -58 12 -45 -2 6 -5 -24 -31 -37 -32 -4 0 -12 10
-17 23 -6 16 -9 17 -9 5 -1 -9 4 -20 9 -23 6 -4 8 -11 5 -16 -7 -11 -26 -12
-24 -1 3 20 -2 31 -15 26 -21 -8 -36 24 -37 80 0 26 5 28 35 12 23 -11 24 -15
10 -20 -10 -4 -21 -1 -26 6 -4 7 -8 9 -8 3 0 -20 17 -38 24 -26 4 6 11 11 17
11 5 0 4 -9 -3 -19 -7 -11 -16 -17 -20 -15 -4 3 -8 0 -8 -5 0 -14 17 -14 25
-2 3 6 18 9 33 7 15 -1 42 6 61 17 26 14 32 15 28 3 -3 -8 0 -17 7 -19 9 -4
11 2 8 18 -2 12 1 26 8 30 8 5 11 -24 10 -107 0 -62 1 -139 2 -170 3 -59 -12
-84 -30 -51 -8 13 -13 10 -31 -16 -13 -17 -27 -29 -32 -26 -5 4 -9 1 -9 -5 0
-7 8 -9 22 -4 20 6 21 5 10 -8 -10 -13 -10 -17 4 -22 21 -8 21 -8 28 10 5 14
4 15 -8 5 -11 -9 -13 -7 -13 14 0 20 2 23 13 14 9 -7 14 -8 14 -1 0 6 -6 12
-12 15 -7 2 -10 8 -6 12 4 4 14 2 22 -4 8 -7 19 -11 23 -8 4 3 8 -119 8 -271
l0 -277 127 -3 127 -3 3 103 c3 97 4 103 23 100 16 -2 17 -1 5 7 -8 5 -17 8
-20 6 -3 -2 -5 35 -6 81 0 46 4 84 8 84 4 0 6 -15 4 -33 -3 -18 0 -40 5 -48 8
-10 9 -9 4 8 -3 12 -1 25 7 29 25 16 35 11 35 -16 0 -19 -5 -26 -14 -23 -7 3
-13 0 -13 -7 0 -6 4 -9 9 -6 13 8 34 -21 25 -35 -4 -8 -3 -9 4 -5 7 4 12 1 12
-9 0 -9 -4 -14 -9 -11 -5 3 -11 0 -14 -8 -3 -8 1 -13 11 -12 15 1 17 -12 17
-101 l-1 -103 108 0 108 0 1 103 c1 56 2 204 2 329 1 138 5 224 11 221 5 -4 6
-1 0 8 -9 14 -16 144 -7 135 2 -2 5 -17 7 -33 1 -15 5 -34 9 -41 5 -6 6 -12 4
-12 -2 0 0 -24 5 -52 16 -95 21 -132 21 -165 -1 -20 3 -30 10 -26 6 4 8 -2 5
-14 -3 -11 -1 -28 4 -37 6 -11 6 -22 -2 -32 -10 -11 -9 -14 3 -14 13 0 15 -8
12 -36 -3 -19 -1 -33 3 -30 4 2 9 -7 10 -20 1 -14 -5 -27 -13 -30 -8 -4 -12
-11 -8 -17 4 -6 0 -8 -10 -4 -10 3 -17 2 -17 -2 0 -20 29 -19 35 0 6 18 20 18
20 1 0 -4 6 -34 13 -67 7 -33 16 -82 20 -110 l7 -50 107 -3 c95 -2 107 -1 112
15 7 23 14 64 21 128 7 58 7 58 41 58 17 0 22 2 13 7 -6 5 -18 6 -25 3 -10 -3
-13 4 -11 26 1 17 8 31 15 31 6 0 12 -4 12 -8 0 -4 -6 -14 -12 -21 -7 -8 -8
-11 -2 -8 6 4 19 0 30 -7 16 -12 20 -12 31 3 15 20 16 31 3 31 -6 0 -9 -5 -8
-11 2 -6 -3 -14 -11 -17 -8 -2 -11 0 -8 6 4 5 0 15 -8 22 -10 8 -13 21 -9 34
6 21 6 21 -10 1 -15 -19 -15 -19 -10 5 6 26 14 103 15 133 0 10 8 21 17 24 22
9 47 33 33 33 -5 0 -13 -4 -16 -10 -7 -12 -25 -13 -25 -2 0 5 11 15 25 22 27
14 29 31 4 38 -11 3 -11 2 -1 -6 10 -7 10 -11 -3 -22 -14 -12 -15 -8 -13 28 2
22 6 38 9 36 4 -2 9 3 13 11 12 33 21 12 23 -55 1 -39 -2 -68 -7 -65 -5 3 -12
-4 -15 -15 -5 -17 -10 -19 -21 -9 -8 7 -14 7 -14 1 0 -5 6 -12 13 -14 17 -7
38 2 31 13 -3 5 -1 9 3 9 5 0 10 -51 10 -112 1 -62 1 -164 2 -225 l1 -113 110
0 110 0 2 103 c0 56 0 113 -1 125 -1 16 2 21 9 17 9 -5 9 -2 3 11 -14 27 -14
236 -1 228 7 -5 8 -2 2 7 -11 19 -13 129 -1 129 5 0 7 -7 3 -15 -5 -14 -1 -17
33 -19 7 -1 21 -12 29 -25 16 -23 15 -23 -5 -17 -14 4 -24 2 -30 -7 -4 -8 -15
-16 -23 -19 -8 -3 10 -5 40 -5 30 1 47 2 37 5 -9 2 -15 8 -11 13 3 5 11 6 17
2 7 -4 5 2 -3 12 -11 14 -12 19 -2 22 6 3 12 9 12 15 0 6 -7 4 -17 -3 -15 -12
-16 -12 -10 4 4 10 7 20 7 23 0 2 8 1 18 -3 9 -3 14 -3 10 1 -3 4 -18 9 -32
10 -20 3 -24 0 -16 -9 8 -9 4 -12 -14 -12 -27 0 -41 28 -23 46 14 14 37 14 37
1 0 -5 4 -10 10 -10 5 0 9 4 7 9 -1 5 7 16 17 24 19 14 19 16 4 40 -11 15 -26
25 -43 25 -23 0 -24 -2 -8 -13 22 -16 13 -27 -23 -27 -16 0 -21 -3 -14 -8 7
-4 8 -10 4 -12 -5 -3 -2 -3 6 0 29 8 43 7 47 -5 3 -7 -3 -10 -15 -7 -10 3 -24
-2 -31 -10 -8 -9 -16 -16 -20 -16 -12 0 -7 138 5 150 9 9 12 5 12 -14 0 -15
-5 -23 -11 -19 -6 3 -7 1 -3 -5 4 -6 13 -9 22 -5 12 4 12 8 2 21 -11 13 -10
15 5 9 10 -4 21 -7 23 -7 3 0 2 -4 -1 -10 -3 -5 0 -7 8 -4 9 3 24 -6 36 -22
11 -15 21 -22 21 -17 0 5 -5 14 -12 21 -8 8 -8 12 -1 12 6 0 14 8 17 17 4 10
4 14 0 10 -4 -4 -18 0 -31 8 -13 9 -23 12 -23 7 0 -5 10 -13 22 -19 12 -5 18
-12 12 -15 -11 -7 -88 41 -80 50 4 3 11 1 18 -6 8 -8 14 -7 25 4 16 16 37 19
28 5 -9 -15 15 -25 28 -12 9 9 8 11 -6 5 -10 -3 -17 -3 -16 2 5 29 -2 34 -25
19 -29 -19 -52 -11 -71 26 -18 34 -19 53 -3 43 7 -5 8 -3 2 7 -9 16 -11 48
-13 201 l-1 107 -185 0 c-167 0 -185 -2 -186 -17 -1 -19 -3 -33 -21 -142 -7
-41 -11 -79 -10 -84 2 -5 -4 -6 -12 -3 -20 8 -32 -11 -17 -26 9 -9 10 -7 5 7
-5 13 -4 17 4 12 17 -10 15 -36 -3 -36 -8 0 -15 -4 -15 -10 0 -5 8 -7 18 -4
12 4 9 -1 -8 -16 l-25 -23 25 8 c20 7 23 5 14 -6 -6 -8 -10 -24 -9 -36 1 -12
-2 -20 -7 -17 -5 3 -6 -7 -3 -23 6 -26 5 -26 -7 -8 -17 27 -18 67 0 60 7 -2
10 0 7 5 -3 6 -13 10 -21 10 -15 0 -19 16 -5 24 4 3 8 29 8 59 -1 29 3 59 8
67 8 13 6 13 -8 1 -13 -11 -17 -11 -17 -1 0 8 -3 11 -6 8 -3 -4 0 -16 6 -28 6
-11 9 -26 7 -33 -3 -7 -9 0 -15 15 -6 14 -17 30 -24 34 -10 6 -10 4 1 -9 7 -9
11 -26 8 -36 -3 -15 -1 -18 11 -14 10 4 13 2 8 -5 -4 -6 -2 -20 3 -30 7 -13 7
-22 -1 -30 -7 -7 -7 -16 0 -27 9 -18 5 -55 -7 -55 -18 1 -38 29 -39 55 0 17
-4 43 -8 59 -5 21 -4 27 5 22 6 -4 8 -12 5 -18 -4 -6 -2 -8 4 -4 7 4 10 -9 8
-38 -1 -25 1 -43 6 -40 4 3 8 0 8 -7 0 -7 3 -10 6 -7 3 4 1 15 -4 25 -6 11 -7
25 -2 33 9 15 0 39 -27 66 -20 19 -28 54 -13 54 6 0 10 5 10 10 0 6 -5 9 -12
8 -7 -2 -13 2 -13 7 -3 23 -19 141 -21 148 -1 4 -2 13 -3 21 -1 12 -33 14
-183 13 l-183 -2 0 -98 c0 -76 -3 -96 -13 -92 -7 2 -10 0 -7 -5 7 -11 -23 -9
-41 3 -7 4 -14 1 -17 -6 -4 -10 6 -13 39 -12 30 2 41 -1 37 -9 -11 -17 -12
-36 -2 -36 4 0 6 -7 2 -16 -5 -15 -7 -15 -15 0 -5 9 -14 16 -21 16 -7 0 -6 -4
3 -10 8 -5 13 -10 10 -11 -3 0 -16 -2 -29 -5 -20 -4 -22 -2 -12 10 10 11 8 16
-7 20 -11 4 -19 16 -19 29 -1 12 -1 68 -2 125 l-1 102 -95 0 c-92 0 -95 -1
-112 -27 -34 -54 -101 -101 -165 -117 -17 -4 -29 -14 -29 -24 -5 -65 -14 -86
-31 -76 -6 4 -6 10 1 17 12 12 15 31 4 24 -5 -3 -8 41 -8 96 l0 102 -262 2
-263 2 0 -105 c0 -63 -4 -104 -10 -104 -5 0 -10 5 -10 12 0 6 -3 8 -7 5 -3 -4
6 -18 20 -31 16 -15 28 -20 31 -13 3 9 5 8 5 0 1 -7 6 -13 12 -13 5 0 7 5 4
10 -3 6 -1 10 4 10 6 0 11 -4 11 -10 0 -5 5 -10 11 -10 5 0 8 4 5 8 -3 5 1 9
9 9 8 0 12 -4 9 -9 -3 -4 0 -8 5 -8 6 0 11 4 11 8 0 5 7 9 15 9 9 0 15 -10 15
-24 0 -12 -5 -23 -11 -23 -6 0 -9 7 -6 14 4 10 1 13 -9 9 -10 -4 -12 -9 -4
-18 8 -9 4 -12 -15 -12 -18 0 -23 3 -16 11 8 9 0 12 -30 11 -33 -1 -43 3 -49
19 -5 12 -9 15 -9 8 -1 -7 5 -21 12 -33 10 -17 9 -22 -8 -35 -20 -15 -20 -15
-1 -29 17 -13 18 -18 8 -41 -7 -14 -9 -32 -5 -39 7 -11 13 -10 33 6 21 16 22
19 6 17 -10 -2 -21 2 -22 7 -2 6 9 10 26 10 38 1 37 -23 -3 -47 -35 -23 -44
-23 -57 3 -9 16 -8 26 3 43 14 21 14 24 -14 40 -27 16 -29 21 -28 77 1 51 3
57 14 42 9 -12 10 -20 3 -24 -6 -4 -5 -9 3 -13 11 -5 11 -7 2 -12 -7 -3 -13
-10 -13 -16 0 -6 6 -6 15 2 10 8 15 9 15 2 0 -6 -8 -16 -17 -21 -10 -6 -13
-10 -8 -10 6 0 17 5 26 12 15 11 15 15 3 31 -7 11 -11 22 -9 26 3 4 -5 18 -18
32 -19 21 -22 34 -22 103 1 44 -1 85 -3 92 -3 9 -37 12 -117 12 l-113 0 0 -47
c0 -151 -5 -232 -13 -226 -5 3 -7 16 -5 30 4 21 2 23 -15 14 -10 -6 -19 -16
-18 -23 0 -9 2 -9 6 1 10 25 18 11 19 -35 0 -26 6 -49 12 -51 14 -4 16 -32 3
-32 -5 0 -12 6 -14 13 -4 9 -6 9 -6 -1 -1 -7 5 -15 12 -18 9 -3 14 -25 15 -64
1 -59 -11 -86 -15 -32 -1 15 -4 41 -7 57 -14 76 -16 92 -18 117 0 15 -4 26 -7
23 -4 -2 -8 8 -10 23 -4 41 -7 56 -13 72 -4 8 -11 44 -18 80 -19 108 -5 99
-143 99 l-122 1 0 -133 c0 -147 -3 -170 -19 -164 -6 2 -19 -10 -29 -26 -10
-16 -21 -27 -24 -24 -3 3 3 19 13 36 14 24 16 33 6 43 -23 23 -12 31 12 9 18
-17 26 -19 31 -10 6 8 4 10 -4 5 -8 -5 -12 -3 -10 5 3 26 -1 39 -12 39 -8 0
-8 -5 1 -15 15 -18 -1 -20 -18 -3 -16 16 -15 28 3 28 8 0 15 4 15 8 0 4 -9 8
-20 8 -10 0 -17 -2 -15 -5 3 -2 -3 -13 -12 -23 -16 -18 -16 -18 3 -12 17 7 17
6 6 -9 -13 -15 -47 -13 -38 2 3 4 1 12 -3 19 -5 9 -13 6 -26 -10 -11 -13 -13
-17 -5 -10 16 13 31 16 28 5 -3 -9 38 -53 48 -53 4 0 0 7 -7 17 -12 14 -12 16
1 11 22 -7 19 -43 -3 -42 -13 2 -15 -1 -7 -11 8 -9 4 -12 -15 -12 -24 0 -34
11 -17 20 4 2 1 2 -6 0 -8 -1 -12 3 -9 9 2 7 13 12 23 10 18 -2 18 -2 0 13
-23 18 -32 19 -41 5 -4 -6 1 -7 12 -3 15 5 16 4 7 -8 -22 -28 -2 -71 26 -54 9
5 80 -72 80 -87 0 -4 8 -8 17 -8 14 0 13 -3 -6 -16 -15 -11 -21 -23 -18 -36 4
-15 1 -18 -13 -13 -11 4 -20 -1 -24 -11 -5 -14 -4 -15 8 -5 11 9 14 7 14 -14
0 -20 -3 -23 -14 -14 -9 7 -14 8 -14 1 0 -6 6 -12 13 -15 6 -2 9 -8 5 -12 -4
-4 -13 -3 -20 1 -20 13 -50 15 -43 4 3 -5 2 -10 -4 -10 -5 0 -9 14 -9 30 1 17
5 30 10 30 5 0 7 -4 4 -9 -3 -5 1 -12 10 -15 21 -8 24 -8 24 5 0 5 -4 8 -9 5
-5 -3 -11 1 -15 9 -3 8 -13 15 -21 15 -9 0 -13 5 -10 11 5 7 15 5 31 -6 13 -8
24 -12 25 -8 0 5 2 18 5 30 3 17 -3 26 -24 37 -24 12 -29 13 -29 1 0 -8 3 -14
6 -13 27 3 40 -4 38 -22 -1 -23 -5 -24 -32 -7 -13 7 -22 24 -23 42 -2 41 -11
134 -16 170 -2 18 2 37 11 47 13 15 13 16 -9 12 -12 -2 -17 -2 -11 2 9 4 10
11 4 22 -8 15 -19 102 -20 159 l-1 22 -205 0 c-152 0 -205 -3 -205 -12z m207
-243 c1 -25 4 -66 7 -92 l7 -47 -19 30 c-10 17 -16 32 -12 35 3 3 6 25 5 50
-1 39 3 70 9 70 1 0 3 -20 3 -46z m-697 22 c0 -3 -4 -8 -10 -11 -5 -3 -10 -1
-10 4 0 6 5 11 10 11 6 0 10 -2 10 -4z m130 -11 c-7 -8 -17 -12 -22 -9 -6 4
-5 10 3 15 22 14 33 10 19 -6z m2021 -5 c6 0 8 4 5 8 -3 5 1 9 9 9 8 0 13 -2
10 -5 -2 -2 2 -11 10 -19 18 -17 20 -34 4 -30 -16 3 -21 -15 -10 -32 8 -13 12
-13 26 -1 14 12 18 12 26 -1 5 -8 7 -19 4 -26 -5 -14 21 -43 39 -43 6 0 12 -8
13 -18 1 -15 -5 -18 -29 -17 -28 2 -29 1 -13 -11 10 -8 20 -25 21 -40 2 -20 0
-23 -10 -15 -19 16 -44 -33 -27 -53 7 -9 8 -16 2 -20 -5 -4 -12 3 -16 13 -5
17 -10 19 -31 9 -29 -14 -30 -19 -4 -36 11 -7 20 -17 20 -24 0 -6 -8 -4 -19 6
-12 11 -27 15 -39 12 -12 -4 -19 -2 -19 8 0 8 6 12 14 9 7 -3 13 0 13 6 0 6
-6 11 -13 11 -21 0 -16 76 7 90 17 11 18 10 11 -7 -4 -10 -8 -26 -9 -35 0 -10
-5 -18 -11 -18 -5 0 -4 -4 4 -9 8 -5 21 -7 29 -4 12 5 12 7 -1 14 -22 13 -10
45 24 70 l29 21 -22 18 c-13 11 -18 19 -11 20 6 0 15 -4 18 -10 3 -5 10 -10
16 -10 5 0 0 9 -11 20 l-20 20 -22 -22 c-14 -14 -16 -19 -5 -15 17 6 45 -19
32 -31 -4 -4 -10 -1 -12 6 -3 6 -9 12 -15 12 -7 0 -7 -5 1 -13 9 -11 5 -14
-20 -15 -29 -1 -30 0 -13 14 16 11 16 13 2 8 -12 -4 -16 -1 -13 13 2 10 4 21
4 24 1 4 8 6 17 5 9 0 18 5 20 12 1 7 0 8 -3 2 -7 -14 -24 -13 -22 3 3 23 -1
38 -9 33 -4 -2 -7 17 -6 42 2 58 4 71 11 55 2 -7 9 -13 14 -13z m104 3 c11 -6
26 -8 33 -6 6 3 12 0 12 -5 0 -14 -28 -23 -35 -12 -10 15 -25 12 -32 -7 -8
-22 -35 -43 -45 -37 -10 7 -10 24 0 23 28 -5 33 2 18 23 -9 12 -16 25 -16 29
0 9 42 4 65 -8z m-1946 -17 c10 -11 8 -17 -9 -29 -15 -10 -18 -17 -10 -22 9
-6 9 -9 1 -15 -7 -3 2 -7 19 -7 19 0 26 3 18 8 -7 4 -9 11 -5 15 4 4 15 0 24
-9 20 -20 14 -28 -23 -29 -59 -1 -66 1 -59 21 3 11 -1 24 -11 31 -14 12 -13
15 8 32 28 21 32 22 47 4z m76 -21 c0 -14 -6 -19 -19 -18 -15 1 -13 -4 12 -23
30 -24 31 -26 16 -49 -13 -20 -20 -23 -34 -15 -13 7 -23 6 -32 -4 -12 -11 -18
-11 -37 5 -26 21 -41 24 -41 8 0 -5 4 -8 8 -5 17 10 50 -23 45 -44 -6 -23 -14
-25 -31 -8 -17 17 -15 33 3 18 10 -9 15 -9 15 -1 0 11 -13 15 -37 12 -13 -2
-15 7 -15 49 0 40 2 50 13 50 6 0 8 -8 4 -19 -11 -34 53 -49 110 -25 18 7 18
6 6 -9 -7 -9 -9 -17 -3 -17 23 0 19 30 -8 55 -25 24 -32 26 -45 15 -22 -18
-18 0 5 25 26 28 65 28 65 0z m2331 -5 c-3 -28 -2 -29 13 -17 9 7 23 13 31 12
8 -1 21 -3 28 -3 9 -2 10 -7 3 -20 -7 -13 -6 -23 1 -30 7 -7 9 -12 4 -12 -4 0
-14 6 -21 14 -10 10 -11 16 -2 25 6 6 7 11 1 11 -5 0 -15 -9 -22 -21 -7 -12
-16 -18 -19 -15 -3 3 0 14 8 23 11 15 11 16 -1 6 -25 -23 -38 -15 -37 22 1 19
5 35 9 35 4 0 6 -14 4 -30z m-2615 4 c9 -3 16 -17 16 -33 0 -36 -36 -54 -72
-38 -14 7 -25 15 -25 18 0 12 30 32 37 25 4 -4 2 -11 -5 -15 -8 -5 0 -8 20 -8
18 0 27 2 20 5 -10 3 -10 7 -1 18 8 10 8 14 0 14 -6 0 -11 -5 -11 -11 0 -8 -4
-8 -14 0 -7 6 -21 9 -30 5 -9 -3 -16 -2 -16 3 0 11 42 32 55 27 6 -2 17 -7 26
-10z m1705 -7 c4 -14 9 -16 20 -6 15 13 17 9 8 -15 -3 -9 -10 -13 -15 -10 -5
3 -6 -1 -3 -9 6 -16 -10 -30 -38 -34 -10 -2 -18 3 -18 12 0 8 -7 18 -16 23
-14 8 -14 10 0 21 9 8 16 19 16 27 0 19 39 12 46 -9z m-366 -19 c0 -19 -2 -20
-10 -8 -13 19 -13 30 0 30 6 0 10 -10 10 -22z m-1240 -8 c0 -11 -4 -20 -10
-20 -5 0 -10 9 -10 20 0 11 5 20 10 20 6 0 10 -9 10 -20z m-210 0 c0 -5 -4
-10 -10 -10 -5 0 -10 5 -10 10 0 6 5 10 10 10 6 0 10 -4 10 -10z m450 -1 c0
-5 4 -8 8 -5 5 3 9 -1 9 -8 0 -8 -10 -13 -23 -12 -15 1 -22 7 -21 19 1 18 27
25 27 6z m640 -15 c0 -21 -3 -24 -21 -19 -15 5 -19 4 -15 -4 4 -6 14 -11 22
-11 8 0 14 -3 15 -7 0 -5 2 -16 4 -25 3 -15 0 -16 -17 -7 -11 6 -17 13 -14 16
3 4 -3 13 -15 21 -16 11 -18 17 -8 28 7 8 19 12 27 9 12 -4 13 -3 2 10 -10 12
-10 15 4 15 11 0 16 -9 16 -26z m610 -4 c0 -5 5 -9 11 -7 18 3 22 -20 6 -35
-13 -11 -12 -17 5 -40 11 -16 26 -28 33 -28 14 0 15 -31 1 -63 -5 -10 -4 -23
3 -30 18 -23 -8 -66 -39 -64 -24 2 -25 5 -30 84 -3 45 -2 79 2 77 6 -4 2 56
-7 99 -2 9 1 17 6 17 5 0 9 -4 9 -10z m-1465 -32 c1 -15 12 -39 25 -53 27 -29
36 -84 14 -86 -8 -1 -23 -1 -34 -1 -43 0 -49 3 -47 22 1 11 7 18 13 16 6 -2
11 3 10 12 -1 21 35 23 42 2 5 -13 3 -13 -11 -1 -11 9 -17 10 -17 2 0 -6 6
-11 13 -11 6 -1 1 -7 -11 -14 -23 -12 -23 -13 10 -13 18 0 27 2 20 5 -10 3
-10 8 2 21 15 16 14 19 -9 31 -18 10 -28 10 -38 2 -17 -15 -69 7 -62 26 3 6 8
19 12 29 4 11 3 14 -5 9 -7 -4 -12 -14 -12 -21 0 -9 -8 -14 -21 -12 -12 1 -24
-5 -26 -13 -4 -13 -3 -13 5 -1 9 12 13 12 26 2 9 -7 14 -16 11 -20 -2 -4 6 -7
18 -7 19 1 22 -4 20 -32 -1 -26 3 -35 28 -47 26 -14 32 -14 60 0 22 12 28 21
24 34 -3 10 1 24 10 31 8 7 15 18 15 24 0 20 37 45 49 33 7 -7 15 -6 26 3 10
8 15 9 15 1 0 -6 -5 -11 -11 -11 -5 0 -7 -5 -3 -11 9 -16 25 11 19 32 -7 20
26 51 32 31 3 -6 10 -9 15 -6 6 4 9 3 6 -2 -7 -11 -21 -102 -20 -128 1 -11 -7
-25 -16 -32 -9 -7 -14 -16 -9 -20 4 -4 7 -2 7 4 0 7 5 12 10 12 14 0 8 -23
-10 -36 -12 -10 -12 -14 -1 -28 9 -11 10 -16 2 -16 -6 0 -11 -5 -11 -11 0 -5
4 -8 10 -4 5 3 7 -14 4 -44 -3 -28 -6 -63 -7 -79 -1 -17 -5 -28 -8 -26 -4 2
-18 -11 -32 -29 -25 -33 -26 -33 -109 -32 -66 0 -83 3 -83 15 0 8 7 14 17 12
9 -1 19 2 23 8 3 5 11 10 16 10 6 0 7 -5 4 -10 -11 -18 38 -29 51 -12 13 19
10 62 -6 72 -9 6 -7 11 6 20 14 8 14 10 3 7 -9 -3 -22 0 -28 6 -15 15 -14 32
2 19 18 -14 62 -10 62 7 0 8 -6 15 -13 17 -7 1 -8 0 -2 -3 19 -9 10 -20 -15
-20 -24 0 -34 11 -17 20 4 2 0 2 -8 -1 -25 -8 -53 -4 -63 10 -7 10 -8 9 -4 -3
4 -12 -1 -16 -21 -16 -23 0 -24 1 -9 12 21 15 22 26 2 19 -8 -4 -15 -1 -15 5
0 6 6 11 13 11 7 0 18 9 25 20 12 20 6 26 -22 21 -5 -1 -6 5 -3 13 4 10 1 13
-9 9 -14 -5 -17 5 -16 62 1 22 -2 26 -8 15 -6 -8 -10 -13 -11 -10 0 3 -2 14
-4 25 -2 11 -9 21 -15 23 -5 2 -7 9 -4 15 5 8 2 8 -7 0 -18 -18 -26 -16 -32 7
-3 13 3 24 19 35 13 8 24 13 24 9 0 -4 9 5 20 18 14 19 28 25 52 24 29 -1 33
-5 33 -28z m2497 17 c0 -5 -5 -11 -10 -13 -5 -1 -9 4 -9 13 0 9 4 14 9 13 5
-2 10 -8 10 -13z m71 -29 c-3 -4 -9 -2 -14 5 -5 8 -9 9 -9 4 0 -6 5 -16 12
-23 7 -7 8 -12 2 -12 -17 0 -33 22 -27 38 4 10 2 13 -5 8 -17 -10 -11 -48 12
-74 19 -22 19 -23 2 -40 -17 -16 -18 -16 -11 7 5 16 4 21 -4 17 -6 -4 -11 -14
-11 -23 0 -10 -6 -13 -16 -9 -9 3 -12 2 -9 -5 4 -6 14 -8 22 -5 9 4 13 1 10
-6 -2 -7 -13 -12 -23 -11 -10 1 -13 0 -6 -3 13 -6 7 -24 -8 -24 -4 0 -7 25 -7
55 1 37 6 55 14 55 7 0 13 -4 13 -10 0 -5 -5 -10 -11 -10 -5 0 -7 -5 -3 -11 5
-8 9 -7 15 4 11 19 1 47 -15 41 -7 -3 -12 4 -12 15 0 16 3 18 15 8 12 -10 13
-9 7 1 -5 8 -1 21 9 32 16 18 19 18 40 2 13 -9 21 -21 18 -26z m-653 30 c0 -3
-4 -8 -10 -11 -5 -3 -10 -1 -10 4 0 6 5 11 10 11 6 0 10 -2 10 -4z m-1440 -54
c-6 -2 -10 -8 -10 -13 0 -4 6 -6 13 -3 8 3 13 -3 13 -15 0 -16 -3 -18 -15 -8
-12 9 -13 9 -8 0 4 -7 2 -21 -5 -33 -16 -24 -32 -27 -19 -2 5 9 8 41 7 70 -2
53 -2 53 15 30 10 -13 14 -24 9 -26z m3054 6 c-11 -17 -24 -6 -24 19 0 26 1
26 14 8 8 -11 12 -23 10 -27z m-1999 2 c3 -5 1 -10 -4 -10 -6 0 -11 5 -11 10
0 6 2 10 4 10 3 0 8 -4 11 -10z m79 1 c3 -5 -1 -14 -9 -21 -11 -9 -14 -8 -12
9 1 22 12 28 21 12z m951 -24 c6 2 11 -6 11 -17 0 -19 -1 -19 -23 2 -13 12
-23 26 -23 32 0 6 6 4 13 -5 7 -9 17 -14 22 -12z m475 8 c7 4 14 -2 17 -14 3
-12 9 -21 13 -21 5 0 6 -10 4 -22 -2 -13 -7 -40 -10 -61 -5 -30 -10 -37 -23
-33 -12 5 -11 2 3 -9 22 -17 17 -29 -7 -19 -9 3 -16 16 -15 27 1 12 -2 33 -6
46 -6 16 -5 21 3 17 6 -4 11 -13 11 -21 0 -8 4 -17 10 -20 6 -4 7 1 3 10 -3
10 0 21 8 27 11 8 11 9 -2 5 -12 -4 -16 2 -16 25 l0 31 19 -23 c10 -12 18 -18
18 -12 0 5 -7 15 -15 22 -8 7 -12 16 -9 21 3 5 2 9 -3 8 -25 -4 -43 3 -43 17
0 13 3 14 15 4 8 -6 19 -9 25 -5z m-3265 -15 c3 -5 -1 -10 -10 -10 -9 0 -13 5
-10 10 3 6 8 10 10 10 2 0 7 -4 10 -10z m2312 -18 c-2 -15 -7 -33 -11 -40 -4
-7 -5 -16 -2 -21 7 -11 -42 -44 -54 -36 -13 8 -13 32 0 40 6 4 17 2 24 -4 10
-8 13 -4 12 22 -1 17 -5 38 -9 45 -5 6 -4 12 0 12 5 0 15 -6 22 -12 7 -7 12
-8 11 -3 -3 14 -1 25 5 25 3 0 3 -13 2 -28z m1200 -39 c-1 -49 -5 -72 -17 -81
-13 -11 -13 -11 3 -6 23 8 22 -8 -3 -24 -18 -11 -19 -10 -16 10 3 13 5 25 6
28 1 3 2 14 1 25 -2 17 0 17 8 5 9 -13 11 -13 11 3 0 9 -5 17 -11 17 -6 0 -7
6 -2 12 4 7 8 20 8 28 6 75 12 66 12 -17z m-3467 47 c0 -5 -2 -10 -4 -10 -3 0
-8 5 -11 10 -3 6 -1 10 4 10 6 0 11 -4 11 -10z m3205 -10 c-3 -5 -10 -10 -16
-10 -5 0 -9 5 -9 10 0 6 7 10 16 10 8 0 12 -4 9 -10z m-2165 -32 c-1 -18 -1
-35 0 -38 8 -24 3 -70 -8 -70 -9 0 -11 7 -7 23 6 20 5 21 -6 3 -9 -16 -9 -21
4 -30 19 -15 27 -62 10 -58 -18 3 -16 -9 5 -24 16 -12 16 -13 0 -14 -26 0 -59
52 -46 73 5 10 7 24 5 31 -7 18 22 58 35 50 7 -4 8 -2 4 4 -4 6 -14 8 -24 5
-16 -6 -16 -5 1 14 9 11 14 22 11 26 -7 7 2 37 11 37 4 0 6 -15 5 -32z m-363
-8 c1 -11 -4 -20 -11 -20 -8 0 -19 -7 -26 -15 -10 -12 -8 -20 9 -41 25 -32 19
-46 -7 -18 -24 26 -23 66 2 81 12 7 17 12 13 13 -10 0 1 20 11 20 4 0 8 -9 9
-20z m2068 0 c-4 -12 -2 -20 5 -20 6 0 8 -5 4 -11 -4 -7 -11 -6 -22 5 -13 12
-13 18 -2 30 17 22 23 20 15 -4z m465 10 c0 -5 -4 -10 -10 -10 -5 0 -10 5 -10
10 0 6 5 10 10 10 6 0 10 -4 10 -10z m576 -17 c18 -24 17 -35 -3 -31 -9 2 -17
13 -18 26 -2 27 3 28 21 5z m-3681 -35 c1 -30 32 -71 48 -61 5 3 8 0 6 -6 -3
-7 -8 -12 -13 -11 -14 3 -26 -23 -20 -41 3 -11 -6 -25 -22 -38 -15 -12 -24
-21 -20 -21 4 0 4 -5 0 -11 -4 -8 -9 -7 -15 2 -13 20 -11 29 5 29 8 0 18 5 21
10 12 19 -14 10 -44 -16 -30 -25 -44 -21 -19 4 10 10 10 17 0 33 -8 12 -11 23
-8 26 2 3 10 -4 17 -15 10 -16 17 -18 32 -11 13 7 23 7 35 -3 15 -12 16 -11 4
4 -10 13 -11 20 -1 36 10 16 9 25 -10 51 -20 27 -21 34 -9 49 11 15 11 16 -3
5 -9 -7 -19 -10 -23 -6 -4 4 -4 0 -1 -9 4 -11 1 -16 -11 -15 -9 1 -19 -5 -21
-13 -4 -13 -3 -13 6 0 5 8 13 11 17 7 4 -3 1 -14 -7 -23 -12 -14 -14 -14 -26
2 -16 23 -17 10 -1 -16 10 -16 9 -22 -8 -39 -14 -13 -25 -16 -37 -10 -8 5 -18
5 -21 1 -3 -5 0 -9 7 -10 7 -1 23 -3 37 -4 28 -3 36 -38 10 -46 -13 -5 -13 -3
-1 11 9 11 10 17 2 17 -6 0 -11 -4 -11 -8 0 -4 -9 -8 -21 -9 -17 -2 -18 1 -9
13 8 8 8 14 2 14 -17 0 -22 -28 -7 -40 8 -7 13 -21 12 -32 -1 -12 4 -22 11
-24 7 -1 8 0 2 3 -5 2 -10 9 -10 14 0 6 5 7 10 4 6 -3 10 -2 10 4 0 5 -4 13
-10 16 -5 3 -10 11 -10 17 0 6 8 4 18 -5 22 -20 22 -55 1 -68 -8 -5 -11 -9 -6
-9 4 0 16 6 28 13 17 10 22 9 33 -5 7 -10 16 -15 19 -11 4 3 7 -4 7 -16 0 -12
-4 -20 -9 -16 -6 3 -14 -2 -19 -12 -9 -15 -14 -15 -37 -5 -14 7 -24 8 -20 2 3
-5 4 -10 1 -10 -2 0 -13 -3 -23 -7 -16 -6 -16 -5 -4 10 7 10 9 17 3 17 -19 0
-19 -25 -1 -48 10 -13 15 -30 12 -39 -4 -11 -2 -14 5 -9 7 4 12 3 12 -3 0 -5
-4 -12 -9 -16 -11 -6 -25 12 -26 37 -1 10 -9 26 -18 36 -10 10 -14 22 -10 26
5 4 9 17 10 29 2 12 5 39 7 59 3 24 0 40 -10 49 -10 9 -11 15 -3 25 6 7 8 18
5 23 -4 5 -2 12 4 16 5 3 8 16 4 29 -4 17 1 25 20 36 14 7 26 17 26 22 0 5 -4
6 -10 3 -5 -3 -10 -2 -10 3 0 14 25 22 49 15 13 -3 23 0 26 9 4 9 16 15 28 14
17 -1 22 -7 22 -28z m2643 -32 c-7 -13 -7 -21 2 -26 8 -5 8 -10 2 -14 -18 -11
-35 21 -22 43 10 20 4 26 -22 22 -5 0 -8 3 -8 7 0 19 14 20 35 4 18 -13 21
-21 13 -36z m-2070 37 c-10 -2 -18 -9 -18 -14 0 -6 4 -8 9 -5 5 3 11 -11 14
-31 5 -27 2 -42 -10 -55 -19 -22 -41 -24 -23 -3 8 9 8 15 2 15 -18 0 -20 -24
-4 -42 17 -20 3 -24 -18 -5 -12 10 -12 9 -2 -5 9 -11 10 -18 2 -23 -5 -3 -10
-11 -10 -18 0 -6 6 -3 13 8 8 10 18 15 23 12 6 -3 16 -2 24 4 11 6 12 9 2 9
-7 0 -10 5 -7 10 12 20 21 10 20 -22 0 -18 2 -52 6 -75 l6 -43 -56 0 c-38 0
-51 3 -41 9 8 6 17 8 20 6 3 -2 7 6 7 17 2 20 1 20 -12 2 -7 -11 -17 -15 -21
-11 -5 4 -2 13 6 18 11 8 12 12 3 15 -7 3 -10 11 -7 18 5 14 12 77 13 129 1
16 5 26 11 22 6 -4 8 -10 6 -14 -3 -4 6 -8 20 -9 29 -2 30 7 3 42 -23 29 -18
47 14 45 17 -1 18 -2 5 -6z m2038 -39 c-4 -16 1 -28 18 -41 19 -15 22 -23 14
-37 -7 -13 -7 -21 2 -26 8 -5 8 -10 2 -14 -18 -11 -35 21 -22 43 10 21 4 27
-24 22 -5 -1 -6 4 -3 12 3 8 -3 13 -17 14 -11 0 -15 -1 -8 -4 13 -5 7 -23 -8
-23 -12 0 -9 64 3 72 6 3 19 6 29 5 14 -1 18 -7 14 -23z m-2637 -10 c-15 -18
-22 -13 -13 10 3 9 10 13 16 10 5 -3 4 -12 -3 -20z m2086 16 c-3 -5 -1 -10 5
-10 6 0 15 -12 20 -26 8 -19 15 -24 30 -19 11 4 20 2 20 -4 0 -6 -6 -11 -12
-12 -7 0 -21 -2 -31 -4 -13 -2 -17 1 -13 11 3 9 2 12 -5 9 -6 -4 -8 -13 -5
-21 3 -8 1 -14 -4 -14 -17 0 -19 17 -6 36 12 16 12 20 -5 32 -23 16 -25 32 -3
32 8 0 12 -4 9 -10z m-1765 -14 c0 -3 -4 -8 -10 -11 -5 -3 -10 -1 -10 4 0 6 5
11 10 11 6 0 10 -2 10 -4z m-293 -22 c9 -24 -11 -38 -36 -25 -14 8 -21 8 -21
1 0 -5 7 -10 15 -10 8 0 15 -4 15 -10 0 -13 -23 -13 -37 1 -14 14 -4 52 13 45
7 -3 16 -1 19 4 9 15 25 12 32 -6z m1692 -10 c20 -1 40 -3 46 -3 5 -1 -8 -10
-30 -21 -44 -23 -45 -23 -44 -12 3 19 -2 32 -12 30 -6 -2 -14 3 -17 11 -3 9 0
11 8 6 7 -5 29 -9 49 -11z m338 5 c6 -6 9 -17 7 -24 -3 -7 -1 -16 5 -20 6 -3
11 -11 11 -17 0 -7 -6 -6 -15 2 -9 8 -15 8 -15 2 0 -20 25 -19 48 1 23 21 32
11 10 -11 -10 -10 -10 -17 -1 -31 17 -27 -4 -68 -34 -68 -12 0 -20 3 -17 8 5
9 -8 13 -37 10 -9 -1 -16 5 -16 13 0 8 6 12 14 9 7 -3 13 0 13 6 0 6 -6 11
-12 11 -11 0 -14 21 -9 73 1 5 5 6 11 2 5 -3 7 -12 4 -19 -3 -8 -1 -16 3 -19
5 -3 9 3 10 13 1 11 -3 22 -8 25 -5 4 -6 11 -3 17 4 6 10 5 15 -3 6 -10 9 -10
9 -2 0 16 -17 26 -25 13 -3 -5 -11 -10 -17 -10 -7 0 -6 6 2 15 15 18 32 19 47
4z m1096 -18 c-5 -3 -8 -23 -8 -43 1 -52 -11 -38 -14 16 -2 39 1 45 14 39 9
-3 13 -9 8 -12z m-517 -27 c-4 -16 1 -28 18 -41 19 -15 22 -23 14 -37 -7 -13
-7 -21 2 -26 8 -5 8 -10 2 -14 -18 -11 -35 21 -22 43 10 21 4 27 -24 22 -5 -1
-6 4 -3 12 3 8 -3 13 -17 14 -11 0 -15 -1 -8 -4 13 -5 7 -23 -8 -23 -12 0 -9
64 3 72 6 3 19 6 29 5 14 -1 18 -7 14 -23z m-2036 -9 c-7 -9 -15 -13 -18 -10
-3 2 1 11 8 20 7 9 15 13 18 10 3 -2 -1 -11 -8 -20z m607 -7 c-3 -8 -6 -5 -6
6 -1 11 2 17 5 13 3 -3 4 -12 1 -19z m948 11 c11 -17 -1 -21 -15 -4 -8 9 -8
15 -2 15 6 0 14 -5 17 -11z m1525 -19 c0 -5 -4 -10 -10 -10 -5 0 -10 5 -10 10
0 6 5 10 10 10 6 0 10 -4 10 -10z m-3550 -16 c0 -2 -13 -10 -29 -18 -22 -12
-31 -12 -40 -3 -20 20 -40 -18 -36 -66 3 -28 -1 -47 -12 -59 -16 -17 -33 -16
-33 3 0 6 4 8 8 5 4 -2 13 -2 19 2 18 12 -3 49 -36 63 -35 16 -37 21 -15 40
13 10 17 10 25 -2 5 -8 7 -20 4 -26 -8 -23 2 -14 27 25 23 33 30 37 72 38 25
1 46 0 46 -2z m1087 -6 c1 -7 2 -24 3 -38 2 -14 -1 -34 -5 -45 -5 -16 -5 -17
4 -5 6 8 11 13 12 10 0 -3 2 -16 5 -30 2 -14 6 -35 9 -47 3 -13 6 -26 6 -30 1
-5 5 -16 11 -27 7 -13 7 -16 -1 -12 -12 8 -15 -6 -4 -18 12 -12 11 -35 -1 -30
-7 3 -19 -2 -26 -11 -7 -8 -17 -15 -22 -15 -6 0 -4 8 3 17 10 11 10 14 2 9 -8
-4 -13 -1 -13 9 0 12 4 14 19 5 12 -6 22 -6 25 -1 9 14 -4 40 -24 46 -21 7
-22 63 -1 89 12 14 12 16 -1 11 -13 -5 -15 4 -13 57 1 35 3 64 4 66 3 6 8 1 8
-10z m1419 -34 c-4 -16 1 -28 16 -41 13 -10 24 -26 24 -36 2 -14 -1 -15 -12
-6 -8 6 -11 15 -8 20 5 8 -10 13 -30 10 -5 -1 -6 4 -3 12 3 8 -3 13 -17 14
-11 0 -15 -1 -8 -4 13 -5 7 -23 -8 -23 -12 0 -9 64 3 72 6 3 19 6 29 5 14 -1
18 -7 14 -23z m-2766 6 c0 -5 -4 -10 -10 -10 -5 0 -10 5 -10 10 0 6 5 10 10
10 6 0 10 -4 10 -10z m250 0 c0 -5 -2 -10 -4 -10 -3 0 -8 5 -11 10 -3 6 -1 10
4 10 6 0 11 -4 11 -10z m2080 0 c0 -5 -5 -10 -11 -10 -5 0 -7 5 -4 10 3 6 8
10 11 10 2 0 4 -4 4 -10z m-40 -34 c0 -3 -4 -8 -10 -11 -5 -3 -10 -1 -10 4 0
6 5 11 10 11 6 0 10 -2 10 -4z m492 -56 c19 -27 24 -55 8 -45 -6 4 -7 11 -4
17 5 7 2 8 -7 2 -8 -4 -22 -10 -33 -11 -15 -3 -16 -1 -7 11 10 12 8 16 -8 21
-24 7 -27 21 -8 28 23 10 42 2 59 -23z m-502 -35 c-7 -8 -17 -15 -23 -15 -5 0
-2 9 8 20 21 23 35 19 15 -5z m104 -7 c-3 -5 0 -15 6 -23 7 -8 8 -15 3 -15
-16 0 -32 22 -26 36 3 8 0 14 -7 14 -6 0 -8 5 -5 10 5 8 11 7 21 -1 7 -6 11
-15 8 -21z m-557 -43 c-16 -18 -40 4 -31 29 6 16 8 16 25 0 14 -13 15 -19 6
-29z m-1698 -1 c-15 -18 -22 -13 -13 10 3 9 10 13 16 10 5 -3 4 -12 -3 -20z
m201 1 c12 -13 28 -22 34 -18 8 4 7 2 0 -6 -9 -10 -16 -10 -32 0 -17 10 -23
10 -36 0 -13 -11 -19 -11 -33 0 -16 13 -17 12 -4 -4 12 -16 12 -20 -3 -35 -17
-16 -18 -16 -11 7 5 16 4 21 -4 17 -6 -4 -11 -14 -11 -22 0 -14 -32 -15 -46
-1 -6 6 1 8 22 6 3 0 15 12 26 26 11 14 27 24 34 21 8 -3 21 -3 29 0 12 5 13
10 4 20 -20 24 7 15 31 -11z m2475 15 c-3 -5 -10 -10 -16 -10 -5 0 -9 5 -9 10
0 6 7 10 16 10 8 0 12 -4 9 -10z m-2595 -20 c0 -5 -4 -10 -10 -10 -5 0 -10 5
-10 10 0 6 5 10 10 10 6 0 10 -4 10 -10z m890 6 c0 -2 -7 -6 -15 -10 -8 -3
-15 -1 -15 4 0 6 7 10 15 10 8 0 15 -2 15 -4z m-943 -22 c9 -24 -11 -38 -36
-25 -14 8 -21 8 -21 1 0 -5 6 -10 14 -10 8 0 18 -5 22 -12 5 -8 0 -9 -17 -5
-15 4 -30 0 -43 -11 -15 -13 -18 -14 -13 -2 18 47 33 69 44 65 7 -2 15 0 18 5
9 15 25 12 32 -6z m2168 6 c3 -5 -1 -10 -10 -10 -9 0 -13 5 -10 10 3 6 8 10
10 10 2 0 7 -4 10 -10z m481 -9 c0 -15 -3 -17 -13 -9 -7 6 -10 14 -7 19 9 15
20 10 20 -10z m-1448 -3 c19 -19 14 -29 -8 -16 -20 13 -27 28 -12 28 4 0 13
-5 20 -12z m1012 2 c0 -5 -2 -10 -4 -10 -3 0 -8 5 -11 10 -3 6 -1 10 4 10 6 0
11 -4 11 -10z"/>
<path d="M2911 4006 c12 -13 12 -29 -1 -21 -5 3 -10 1 -10 -4 0 -6 5 -11 11
-11 5 0 8 -3 6 -7 -3 -5 2 -15 11 -23 14 -13 15 -12 8 5 -12 27 -9 57 5 66 7
4 1 6 -14 6 -16 -1 -22 -6 -16 -11z"/>
<path d="M2980 3939 c0 -5 5 -7 10 -4 6 3 10 8 10 11 0 2 -4 4 -10 4 -5 0 -10
-5 -10 -11z"/>
<path d="M2950 3930 c0 -5 5 -10 10 -10 6 0 10 5 10 10 0 6 -4 10 -10 10 -5 0
-10 -4 -10 -10z"/>
<path d="M2986 3905 c4 -8 11 -15 16 -15 6 0 5 6 -2 15 -7 8 -14 15 -16 15 -2
0 -1 -7 2 -15z"/>
<path d="M3015 3880 c-3 -5 -1 -10 4 -10 6 0 11 5 11 10 0 6 -2 10 -4 10 -3 0
-8 -4 -11 -10z"/>
<path d="M2972 3820 c-13 -11 -18 -21 -12 -25 5 -3 10 -11 10 -17 0 -7 -6 -6
-15 2 -9 7 -15 8 -15 2 0 -19 28 -21 44 -3 10 11 14 25 9 37 -6 17 -5 17 10 5
9 -7 17 -9 17 -3 0 19 -26 20 -48 2z m18 -20 c0 -5 -4 -10 -10 -10 -5 0 -10 5
-10 10 0 6 5 10 10 10 6 0 10 -4 10 -10z"/>
<path d="M2987 4023 c3 -7 6 -13 8 -13 2 0 5 6 8 13 3 8 -1 14 -8 14 -7 0 -11
-6 -8 -14z"/>
<path d="M1040 4000 c-13 -8 -13 -10 2 -10 9 0 20 5 23 10 8 13 -5 13 -25 0z"/>
<path d="M1130 4000 c0 -5 5 -10 11 -10 5 0 7 5 4 10 -3 6 -8 10 -11 10 -2 0
-4 -4 -4 -10z"/>
<path d="M2540 3980 c0 -6 5 -10 11 -10 8 0 7 -5 -1 -15 -7 -9 -10 -18 -6 -22
3 -3 6 0 6 8 0 12 2 12 9 0 6 -9 9 -6 9 12 0 14 -7 28 -14 31 -8 3 -14 1 -14
-4z"/>
<path d="M2472 3845 c4 -4 3 -14 -4 -22 -6 -7 -9 -15 -7 -18 3 -2 10 4 17 15
9 15 9 21 -1 26 -6 4 -9 4 -5 -1z"/>
<path d="M2489 3808 c-1 -7 0 -20 1 -27 1 -13 -1 -13 -14 -2 -11 9 -16 10 -16
2 0 -6 5 -11 11 -11 8 0 8 -4 -1 -15 -10 -12 -8 -20 9 -41 12 -15 21 -22 21
-17 0 5 -5 14 -12 21 -16 16 4 16 21 0 11 -11 11 -9 0 9 -10 16 -16 19 -26 11
-24 -20 -13 6 14 35 23 23 24 27 8 21 -18 -7 -18 -6 -6 9 9 11 10 17 2 17 -6
0 -12 -6 -12 -12z"/>
<path d="M2460 3700 c0 -5 5 -10 11 -10 5 0 7 5 4 10 -3 6 -8 10 -11 10 -2 0
-4 -4 -4 -10z"/>
<path d="M938 3917 c10 -11 11 -21 3 -35 -8 -15 -7 -21 4 -26 8 -3 21 -3 29 0
19 7 3 45 -27 64 -20 12 -21 12 -9 -3z m32 -42 c0 -8 -4 -15 -10 -15 -5 0 -10
7 -10 15 0 8 5 15 10 15 6 0 10 -7 10 -15z"/>
<path d="M1194 3893 c3 -10 -1 -27 -9 -37 -12 -16 -19 -18 -40 -8 -13 6 -32 9
-40 6 -13 -5 -12 -10 5 -34 13 -18 16 -31 10 -35 -5 -3 -10 -2 -10 2 0 5 -7
18 -16 29 -15 18 -15 18 -5 -3 7 -13 7 -24 2 -28 -5 -3 -11 0 -14 7 -2 7 -3 5
-1 -5 1 -11 -13 -28 -39 -45 -41 -27 -43 -28 -59 -10 -20 20 -38 24 -38 8 0
-5 3 -9 8 -9 17 3 35 -2 29 -8 -4 -3 1 -12 11 -19 14 -11 15 -16 5 -33 -7 -12
-13 -24 -13 -28 0 -5 4 -2 9 6 14 21 51 21 64 -1 7 -10 15 -18 20 -18 4 0 5 5
2 10 -3 6 -1 10 4 10 6 0 11 5 11 11 0 8 -5 8 -15 -1 -11 -9 -15 -9 -15 -1 0
17 29 26 42 13 8 -8 8 -15 -1 -25 -9 -12 -8 -16 5 -21 8 -3 22 -2 30 2 12 7
10 13 -12 35 -28 28 -48 34 -59 17 -3 -5 -11 -10 -16 -10 -6 0 1 14 15 31 26
30 35 56 16 44 -5 -3 -10 -13 -10 -21 0 -16 -9 -18 -29 -5 -9 6 -10 11 -2 15
6 4 11 4 11 0 0 -3 8 4 18 16 16 20 19 20 31 7 9 -12 10 -21 2 -35 -8 -16 -7
-21 5 -26 41 -16 46 28 7 62 -24 20 -25 22 -7 17 24 -6 37 13 24 35 -9 15 -4
30 10 30 5 0 7 -6 4 -14 -3 -8 -1 -17 5 -21 8 -4 8 -12 1 -26 -8 -13 -7 -25 0
-39 7 -14 8 -26 0 -39 -12 -23 4 -66 26 -75 12 -5 12 -2 1 17 -7 13 -12 49
-11 87 1 36 -3 71 -9 78 -12 15 -8 21 21 25 12 2 25 7 29 12 5 4 2 5 -4 1 -15
-8 -18 10 -4 19 12 7 10 45 -2 45 -5 0 -6 -8 -3 -17z m-64 -47 c0 -3 -4 -8
-10 -11 -5 -3 -10 -1 -10 4 0 6 5 11 10 11 6 0 10 -2 10 -4z m-4 -143 c-11
-11 -19 6 -11 24 8 17 8 17 12 0 3 -10 2 -21 -1 -24z m-87 8 c12 -8 12 -12 2
-25 -18 -21 -28 -20 -34 3 -7 30 6 38 32 22z m91 -71 c0 -5 -4 -10 -10 -10 -5
0 -10 5 -10 10 0 6 5 10 10 10 6 0 10 -4 10 -10z"/>
<path d="M915 3820 c-3 -5 -1 -10 4 -10 6 0 11 5 11 10 0 6 -2 10 -4 10 -3 0
-8 -4 -11 -10z"/>
<path d="M1170 3816 c0 -2 7 -7 16 -10 8 -3 12 -2 9 4 -6 10 -25 14 -25 6z"/>
<path d="M1180 3780 c0 -5 5 -10 11 -10 5 0 7 5 4 10 -3 6 -8 10 -11 10 -2 0
-4 -4 -4 -10z"/>
<path d="M1001 3643 c-1 -16 14 -24 33 -17 16 6 13 24 -5 24 -6 0 -7 -4 -4
-10 3 -5 2 -10 -4 -10 -5 0 -12 6 -14 13 -4 9 -6 9 -6 0z"/>
<path d="M1123 3591 c-24 -22 -28 -31 -19 -43 10 -14 13 -14 25 0 13 13 16 13
26 -2 12 -15 13 -15 19 0 11 28 -10 39 -38 20 -37 -23 -32 -4 6 28 17 14 27
26 21 26 -5 0 -23 -13 -40 -29z m47 -31 c0 -5 -2 -10 -4 -10 -3 0 -8 5 -11 10
-3 6 -1 10 4 10 6 0 11 -4 11 -10z"/>
<path d="M1170 3600 c-9 -6 -10 -10 -3 -10 6 0 15 5 18 10 8 12 4 12 -15 0z"/>
<path d="M1070 3546 c0 -2 7 -9 15 -16 13 -11 14 -10 9 4 -5 14 -24 23 -24 12z"/>
<path d="M1142 3520 c7 -10 14 -18 15 -16 6 6 -9 36 -18 36 -5 0 -4 -9 3 -20z"/>
<path d="M1110 3509 c0 -5 5 -7 10 -4 6 3 10 2 10 -4 0 -5 -9 -12 -19 -16 -11
-3 -25 -13 -33 -23 -12 -15 -11 -16 4 -4 9 8 22 11 27 8 12 -8 34 30 26 44 -8
13 -25 13 -25 -1z"/>
<path d="M1085 3500 c-3 -5 -1 -10 4 -10 6 0 11 5 11 10 0 6 -2 10 -4 10 -3 0
-8 -4 -11 -10z"/>
<path d="M3015 3760 c-3 -5 -1 -10 4 -10 6 0 11 5 11 10 0 6 -2 10 -4 10 -3 0
-8 -4 -11 -10z"/>
<path d="M1806 3641 c8 -8 43 -8 38 0 -2 4 -13 7 -24 6 -10 -1 -17 -3 -14 -6z"/>
<path d="M788 3696 c-13 -9 -13 -15 -4 -28 9 -13 15 -13 28 -4 13 9 13 15 4
28 -9 13 -15 13 -28 4z m22 -16 c0 -5 -4 -10 -10 -10 -5 0 -10 5 -10 10 0 6 5
10 10 10 6 0 10 -4 10 -10z"/>
<path d="M826 3494 c-20 -14 -20 -14 0 -28 16 -13 20 -13 27 0 4 8 4 20 0 28
-7 13 -11 13 -27 0z m24 -14 c0 -5 -4 -10 -10 -10 -5 0 -10 5 -10 10 0 6 5 10
10 10 6 0 10 -4 10 -10z"/>
<path d="M780 3480 c0 -5 5 -10 10 -10 6 0 10 5 10 10 0 6 -4 10 -10 10 -5 0
-10 -4 -10 -10z"/>
<path d="M1443 3555 c-15 -17 -17 -29 -4 -20 11 6 25 -13 26 -35 0 -18 27 -20
31 -2 1 7 0 8 -3 2 -9 -19 -20 -10 -20 15 0 25 11 34 20 15 3 -6 4 -5 3 2 -2
7 -13 12 -26 10 -19 -2 -21 0 -10 13 16 19 -1 19 -17 0z"/>
<path d="M3485 3721 c-9 -15 15 -25 28 -12 9 9 7 10 -7 5 -13 -5 -17 -4 -12 4
4 7 5 12 2 12 -3 0 -7 -4 -11 -9z"/>
<path d="M890 3680 c0 -5 5 -10 11 -10 5 0 7 5 4 10 -3 6 -8 10 -11 10 -2 0
-4 -4 -4 -10z"/>
<path d="M2925 3590 c-16 -7 -17 -9 -3 -9 9 -1 20 4 23 9 7 11 7 11 -20 0z"/>
<path d="M2953 3577 c-29 -13 -29 -21 2 -35 15 -7 25 -8 25 -2 0 6 -7 10 -15
10 -8 0 -15 5 -15 10 0 14 23 12 40 -2 12 -11 12 -10 0 7 -8 11 -14 21 -15 21
0 1 -10 -3 -22 -9z"/>
<path d="M3485 3641 c-9 -15 15 -25 28 -12 9 9 7 10 -7 5 -13 -5 -17 -4 -12 4
4 7 5 12 2 12 -3 0 -7 -4 -11 -9z"/>
<path d="M2100 3420 c0 -5 7 -7 15 -4 8 4 15 8 15 10 0 2 -7 4 -15 4 -8 0 -15
-4 -15 -10z"/>
<path d="M2116 3401 c-3 -5 0 -11 7 -14 8 -3 14 1 14 9 0 16 -13 19 -21 5z"/>
<path d="M3485 3561 c-9 -15 15 -25 28 -12 9 9 7 10 -7 5 -13 -5 -17 -4 -12 4
4 7 5 12 2 12 -3 0 -7 -4 -11 -9z"/>
<path d="M3490 3488 c0 -2 9 -11 20 -21 11 -9 20 -13 20 -7 0 5 -9 14 -20 20
-11 6 -20 9 -20 8z"/>
<path d="M890 3360 c0 -5 5 -10 11 -10 5 0 7 5 4 10 -3 6 -8 10 -11 10 -2 0
-4 -4 -4 -10z"/>
<path d="M724 4070 c0 -13 4 -16 10 -10 7 7 7 13 0 20 -6 6 -10 3 -10 -10z"/>
<path d="M776 4082 c-4 -7 -5 -12 -2 -12 2 0 11 -3 19 -6 8 -3 17 2 21 12 5
14 4 15 -8 5 -11 -9 -15 -9 -18 1 -3 9 -6 9 -12 0z"/>
<path d="M1195 4079 c-6 -8 -4 -10 5 -4 10 6 12 4 6 -11 -6 -15 -5 -17 5 -6 9
9 10 15 2 23 -8 8 -13 7 -18 -2z"/>
<path d="M2174 4082 c3 -6 -2 -13 -11 -15 -16 -4 -16 -5 -1 -6 21 -1 32 15 17
25 -7 4 -9 3 -5 -4z"/>
<path d="M4513 4068 c1 -14 5 -24 10 -21 4 2 7 -1 7 -6 0 -6 -5 -11 -11 -11
-5 0 -7 -5 -3 -11 15 -25 25 20 10 48 l-14 28 1 -27z"/>
<path d="M4580 4075 c-7 -9 -8 -15 -2 -15 5 0 12 7 16 15 3 8 4 15 2 15 -2 0
-9 -7 -16 -15z"/>
<path d="M5176 4070 c6 -22 5 -23 -10 -11 -10 9 -16 10 -16 2 0 -6 4 -11 9
-11 13 0 8 -43 -7 -48 -7 -2 -10 2 -6 12 3 9 2 16 -4 16 -20 0 -5 -35 15 -36
11 -1 26 -5 33 -9 8 -5 11 -4 7 2 -4 6 -1 13 7 16 18 7 15 73 -4 69 -7 -2 -17
3 -22 10 -6 8 -7 4 -2 -12z m26 -22 c-15 -15 -16 -32 -2 -23 6 3 10 2 10 -3 0
-6 -7 -13 -16 -16 -21 -8 -21 -8 -19 13 1 22 25 54 33 46 3 -3 0 -11 -6 -17z"/>
<path d="M5977 4084 c-9 -9 2 -24 18 -24 7 0 16 8 20 18 5 14 4 15 -6 5 -15
-15 -33 -17 -24 -3 7 11 2 13 -8 4z"/>
<path d="M6047 4084 c-3 -3 -3 -13 1 -22 5 -15 4 -15 -11 -3 -11 9 -17 10 -17
2 0 -6 5 -11 11 -11 5 0 8 -4 5 -9 -3 -5 0 -13 7 -18 8 -7 18 -4 30 9 9 10 13
18 8 18 -6 0 -13 -4 -16 -10 -3 -5 -11 -10 -17 -10 -6 0 -3 9 7 20 10 11 21
17 25 15 4 -3 11 2 14 10 4 13 2 13 -14 5 -24 -13 -33 -13 -25 0 7 11 2 14 -8
4z"/>
<path d="M1750 4069 c0 -5 5 -7 10 -4 6 3 10 8 10 11 0 2 -4 4 -10 4 -5 0 -10
-5 -10 -11z"/>
<path d="M4065 4069 c-4 -6 -4 -13 -1 -16 3 -4 6 -1 6 6 0 7 5 9 10 6 6 -3 10
-1 10 4 0 14 -17 14 -25 0z"/>
<path d="M3973 4047 c0 -8 6 -14 13 -14 7 0 10 6 7 14 -3 7 -8 13 -12 13 -4 0
-8 -6 -8 -13z"/>
<path d="M1216 4033 c-6 -14 -5 -15 5 -6 7 7 10 15 7 18 -3 3 -9 -2 -12 -12z"/>
<path d="M3495 4040 c3 -4 16 -7 30 -7 13 0 23 3 20 7 -3 4 -16 8 -30 8 -13 0
-23 -4 -20 -8z"/>
<path d="M4630 4030 c0 -5 5 -10 10 -10 6 0 10 5 10 10 0 6 -4 10 -10 10 -5 0
-10 -4 -10 -10z"/>
<path d="M2625 3960 c-3 -5 -1 -10 4 -10 6 0 11 5 11 10 0 6 -2 10 -4 10 -3 0
-8 -4 -11 -10z"/>
<path d="M6086 3934 c-3 -9 -2 -22 2 -31 6 -10 9 -5 9 16 0 35 -2 38 -11 15z"/>
<path d="M1719 3921 c7 -5 9 -11 5 -13 -5 -3 -3 -3 4 -1 9 2 11 -3 7 -16 -4
-14 0 -23 14 -30 25 -14 31 -14 31 -1 0 6 -3 9 -7 9 -18 -3 -33 2 -33 10 0 5
11 9 25 9 26 0 28 -6 27 -60 -1 -33 4 -35 18 -8 20 37 -31 105 -80 108 -17 1
-21 -1 -11 -7z m46 -12 c11 -17 -1 -21 -15 -4 -8 9 -8 15 -2 15 6 0 14 -5 17
-11z"/>
<path d="M3095 3920 c-3 -5 -1 -10 4 -10 6 0 11 5 11 10 0 6 -2 10 -4 10 -3 0
-8 -4 -11 -10z"/>
<path d="M5227 3901 c-20 -21 -13 -59 8 -41 9 8 20 63 11 59 0 0 -9 -8 -19
-18z m13 -21 c0 -5 -4 -10 -10 -10 -5 0 -10 5 -10 10 0 6 5 10 10 10 6 0 10
-4 10 -10z"/>
<path d="M2615 3840 c3 -5 11 -10 16 -10 6 0 7 5 4 10 -3 6 -11 10 -16 10 -6
0 -7 -4 -4 -10z"/>
<path d="M3147 3815 c-11 -8 -25 -11 -32 -9 -7 3 -15 -2 -18 -10 -4 -9 -2 -16
3 -16 6 0 10 4 10 9 0 5 12 8 26 5 16 -3 23 -1 19 6 -3 5 -1 10 4 10 6 0 11
-4 11 -9 0 -5 8 -12 17 -15 14 -6 14 -4 -2 16 -11 13 -20 24 -20 25 0 1 -8 -5
-18 -12z"/>
<path d="M4520 3790 c8 -5 20 -10 25 -10 6 0 3 5 -5 10 -8 5 -19 10 -25 10 -5
0 -3 -5 5 -10z"/>
<path d="M6150 3770 c0 -5 5 -10 10 -10 6 0 10 5 10 10 0 6 -4 10 -10 10 -5 0
-10 -4 -10 -10z"/>
<path d="M6250 3759 c0 -5 5 -7 10 -4 6 3 10 8 10 11 0 2 -4 4 -10 4 -5 0 -10
-5 -10 -11z"/>
<path d="M3053 3726 c-18 -11 -33 -24 -33 -29 0 -4 10 -1 23 8 22 14 37 12 37
-6 0 -5 -8 -6 -17 -3 -14 5 -15 4 -4 -4 7 -5 14 -21 14 -36 0 -33 22 -54 31
-29 5 11 1 22 -10 30 -15 11 -15 17 -6 39 19 41 3 55 -35 30z m37 -6 c0 -5 -2
-10 -4 -10 -3 0 -8 5 -11 10 -3 6 -1 10 4 10 6 0 11 -4 11 -10z m10 -80 c0 -5
-4 -10 -10 -10 -5 0 -10 5 -10 10 0 6 5 10 10 10 6 0 10 -4 10 -10z"/>
<path d="M3195 3739 c-4 -6 -5 -12 -2 -15 2 -3 7 2 10 11 7 17 1 20 -8 4z"/>
<path d="M4613 3733 c-15 -5 -17 -23 -4 -23 5 0 11 7 15 15 3 8 4 15 3 14 -1
0 -8 -3 -14 -6z"/>
<path d="M3795 3674 c0 -24 6 -49 13 -56 9 -9 12 -9 12 0 0 7 -4 12 -9 12 -4
0 -7 18 -5 40 2 22 0 41 -4 44 -4 2 -7 -16 -7 -40z"/>
<path d="M4545 3709 c-4 -6 -5 -12 -2 -15 2 -3 7 2 10 11 7 17 1 20 -8 4z"/>
<path d="M3190 3700 c0 -5 5 -10 11 -10 5 0 7 5 4 10 -3 6 -8 10 -11 10 -2 0
-4 -4 -4 -10z"/>
<path d="M6070 3650 c0 -5 5 -10 10 -10 6 0 10 5 10 10 0 6 -4 10 -10 10 -5 0
-10 -4 -10 -10z"/>
<path d="M2472 3637 c-9 -10 -5 -13 15 -12 15 0 27 6 29 13 1 7 0 8 -3 2 -2
-5 -9 -10 -14 -10 -6 0 -7 5 -4 10 9 15 -11 12 -23 -3z"/>
<path d="M4250 3640 c0 -5 5 -10 11 -10 5 0 7 5 4 10 -3 6 -8 10 -11 10 -2 0
-4 -4 -4 -10z"/>
<path d="M4520 3640 c9 -6 9 -9 -1 -12 -7 -2 -9 -7 -4 -10 6 -2 17 3 26 12 15
16 15 18 -8 18 -16 0 -20 -3 -13 -8z"/>
<path d="M2552 3624 c2 -9 -3 -19 -10 -21 -8 -3 -10 2 -6 14 4 14 4 15 -4 4
-5 -7 -23 -14 -38 -14 -16 0 -23 -2 -16 -4 6 -3 12 -9 12 -14 0 -5 -6 -8 -12
-6 -15 2 -20 -51 -7 -59 5 -3 9 -10 9 -15 0 -6 -4 -7 -10 -4 -5 3 -10 1 -10
-5 0 -7 6 -10 12 -8 15 5 21 58 7 58 -17 0 -9 26 9 27 15 1 18 -5 17 -30 -2
-31 -2 -31 13 -9 11 17 18 19 33 11 11 -5 19 -6 19 0 0 15 -32 22 -46 10 -8
-7 -14 -7 -14 -1 0 19 29 35 43 24 9 -8 16 -7 23 6 8 13 6 21 -8 35 -17 17
-19 17 -16 1z m18 -24 c0 -5 -5 -10 -11 -10 -5 0 -7 5 -4 10 3 6 8 10 11 10 2
0 4 -4 4 -10z m-40 -4 c0 -11 -19 -15 -25 -6 -3 5 1 10 9 10 9 0 16 -2 16 -4z"/>
<path d="M1753 3603 c0 -12 5 -19 9 -17 4 3 8 0 8 -5 0 -6 -5 -11 -11 -11 -5
0 -7 -5 -4 -10 9 -14 44 31 38 47 -3 7 -10 13 -15 13 -6 0 -5 -6 2 -15 8 -10
9 -15 2 -15 -6 0 -15 8 -21 18 -9 15 -10 15 -8 -5z"/>
<path d="M3193 3609 c3 -9 -1 -25 -8 -36 -12 -17 -11 -21 8 -33 20 -12 21 -12
9 3 -10 11 -11 21 -3 34 6 13 6 24 -1 34 -8 12 -9 11 -5 -2z"/>
<path d="M3793 3580 c0 -19 2 -29 5 -22 2 6 7 10 11 8 4 -3 7 4 7 14 0 10 -3
17 -7 14 -4 -2 -9 2 -11 8 -3 7 -5 -3 -5 -22z"/>
<path d="M4547 3564 c21 -16 37 -18 28 -4 -10 17 7 11 22 -7 13 -17 14 -17 4
2 -6 12 -21 20 -41 21 -28 2 -29 0 -13 -12z"/>
<path d="M4530 3551 c0 -7 -5 -9 -12 -5 -7 4 -8 3 -4 -4 4 -6 14 -8 24 -5 14
6 15 4 4 -9 -10 -13 -10 -17 2 -21 9 -4 13 -1 10 6 -2 7 4 13 15 14 11 1 22
-6 25 -15 3 -12 4 -11 3 3 -1 11 -10 20 -18 20 -9 0 -24 6 -33 14 -11 9 -16
10 -16 2z"/>
<path d="M3800 3535 c-11 -13 -10 -14 5 -9 12 5 16 4 12 -3 -4 -6 0 -14 8 -17
13 -5 14 -2 4 17 -6 12 -13 23 -14 25 -1 1 -8 -4 -15 -13z"/>
<path d="M6135 3520 c3 -5 14 -10 23 -10 15 0 15 2 2 10 -20 13 -33 13 -25 0z"/>
<path d="M4514 3476 c1 -22 6 -49 11 -60 5 -12 4 -21 -5 -26 -8 -5 -9 -10 -2
-14 17 -10 24 31 10 54 -11 18 -10 23 5 35 18 13 18 14 -1 33 -19 19 -19 19
-18 -22z"/>
<path d="M2482 3484 c-13 -13 -21 -28 -17 -33 8 -14 25 -14 25 0 0 5 -4 7 -10
4 -17 -11 -11 7 8 21 23 18 37 18 22 -1 -6 -8 -9 -18 -6 -23 7 -12 -20 -36
-32 -29 -4 3 -8 -5 -8 -18 0 -18 4 -22 16 -16 8 5 22 6 30 4 9 -3 7 1 -5 11
-20 15 -20 16 4 13 13 -1 25 4 27 11 1 7 0 8 -3 2 -9 -19 -20 -10 -20 15 0 26
12 34 20 13 4 -9 6 -9 6 -2 1 7 -7 21 -16 31 -18 20 -18 20 -41 -3z"/>
<path d="M4566 3495 c-3 -8 -3 -22 1 -30 3 -9 2 -15 -3 -14 -29 5 -34 -2 -19
-25 14 -20 14 -28 3 -45 -7 -11 -19 -22 -28 -25 -8 -3 0 -3 18 -1 22 2 32 0
29 -8 -2 -7 -13 -11 -23 -9 -15 2 -16 1 -5 -7 20 -13 54 9 39 26 -5 7 -14 10
-19 7 -5 -3 -9 -1 -9 4 0 16 13 22 27 11 9 -9 13 -8 13 0 0 6 -5 11 -12 11 -6
0 -9 3 -5 6 3 4 0 13 -8 21 -18 17 -19 34 -3 31 7 -2 12 11 14 30 2 35 -1 40
-10 17z"/>
<path d="M3183 3492 c-8 -5 -8 -12 2 -25 11 -16 13 -16 19 -2 4 11 2 14 -6 9
-8 -5 -9 -2 -5 9 7 19 7 20 -10 9z"/>
<path d="M3799 3492 c11 -8 11 -10 0 -14 -8 -3 -2 -5 14 -5 26 0 49 13 24 14
-7 0 -21 4 -32 8 -14 5 -16 4 -6 -3z"/>
<path d="M6087 3494 c-4 -4 -7 -12 -7 -18 0 -6 4 -4 10 4 5 8 12 11 16 7 4 -4
0 -15 -9 -24 -15 -15 -17 -15 -23 0 -3 9 -10 15 -14 12 -5 -3 2 -17 16 -30 26
-27 44 -34 25 -11 -9 11 -6 14 14 14 21 0 23 -3 14 -14 -10 -12 -9 -13 5 -8
10 4 15 13 12 21 -3 8 -6 17 -6 20 0 3 -7 0 -15 -7 -13 -11 -15 -9 -13 10 3
23 -12 37 -25 24z"/>
<path d="M2990 3478 c0 -9 5 -20 10 -23 13 -8 13 5 0 25 -8 13 -10 13 -10 -2z"/>
<path d="M4215 3480 c-3 -5 2 -16 11 -25 13 -12 19 -13 31 -4 10 9 11 14 2 19
-8 6 -8 9 2 12 8 3 2 5 -14 5 -15 0 -30 -3 -32 -7z m30 -11 c11 -17 -1 -21
-15 -4 -8 9 -8 15 -2 15 6 0 14 -5 17 -11z"/>
<path d="M1780 3470 c-9 -6 -10 -10 -3 -10 6 0 15 5 18 10 8 12 4 12 -15 0z"/>
<path d="M3805 3452 c-10 -7 -14 -61 -5 -63 12 -4 50 13 50 22 0 6 -4 7 -10 4
-5 -3 -10 -2 -10 4 0 5 5 12 10 14 6 3 5 4 -2 3 -7 -2 -12 -11 -12 -20 1 -9
-3 -15 -10 -13 -13 5 -9 39 7 49 7 4 8 8 2 8 -5 0 -14 -4 -20 -8z"/>
<path d="M1775 3433 c11 -7 22 -13 25 -13 3 0 14 6 25 13 16 13 13 14 -25 14
-38 0 -41 -1 -25 -14z"/>
<path d="M3192 3424 c0 -11 -3 -28 -8 -39 -7 -17 -6 -18 8 -5 9 8 14 23 12 34
-5 26 -13 32 -12 10z"/>
<path d="M4224 3426 c11 -9 24 -16 29 -16 4 0 5 -5 1 -11 -4 -8 -9 -8 -17 0
-6 6 -15 11 -20 11 -5 0 -2 -7 7 -15 13 -14 46 -11 46 4 0 9 -20 37 -20 28 0
-4 -10 -3 -22 3 -22 11 -22 10 -4 -4z"/>
<path d="M6100 3400 c0 -5 5 -10 10 -10 6 0 10 5 10 10 0 6 -4 10 -10 10 -5 0
-10 -4 -10 -10z"/>
<path d="M6250 3399 c0 -5 5 -7 10 -4 6 3 10 8 10 11 0 2 -4 4 -10 4 -5 0 -10
-5 -10 -11z"/>
<path d="M3828 3376 c-14 -10 -15 -15 -5 -25 10 -11 7 -12 -12 -6 -21 6 -22 5
-10 -8 12 -13 17 -13 39 1 14 9 26 16 27 16 1 1 -4 8 -11 17 -9 14 -15 15 -28
5z m22 -16 c0 -5 -4 -10 -10 -10 -5 0 -10 5 -10 10 0 6 5 10 10 10 6 0 10 -4
10 -10z"/>
<path d="M4230 3358 c0 -11 28 -10 35 1 3 6 -4 9 -15 8 -11 -1 -20 -5 -20 -9z"/>
<path d="M3486 3343 c-6 -14 -5 -15 5 -6 7 7 10 15 7 18 -3 3 -9 -2 -12 -12z"/>
<path d="M3503 3331 c-10 -16 -9 -20 3 -25 21 -8 24 -8 24 5 0 5 -4 7 -10 4
-5 -3 -10 -1 -10 4 0 6 5 11 10 11 6 0 10 5 10 10 0 16 -14 11 -27 -9z"/>
<path d="M2912 3323 c12 -15 32 -18 23 -3 -3 6 -1 10 4 10 6 0 11 -2 11 -4 0
-2 2 -11 5 -19 6 -15 -20 -17 -43 -3 -6 4 -12 2 -12 -3 0 -6 3 -11 8 -12 56
-6 68 -4 68 12 0 10 -3 16 -7 13 -4 -2 -9 2 -11 8 -3 7 -16 13 -31 13 -20 1
-24 -2 -15 -12z"/>
<path d="M3166 3318 c3 -4 0 -8 -5 -8 -6 0 -11 -5 -11 -11 0 -8 6 -7 17 2 15
12 16 12 11 -2 -5 -13 -2 -16 14 -11 19 4 19 6 3 15 -14 7 -15 11 -4 18 10 6
8 8 -8 6 -12 0 -19 -5 -17 -9z"/>
<path d="M2554 3309 c-3 -6 -2 -15 3 -20 5 -5 9 -1 10 11 2 22 -2 25 -13 9z"/>
<path d="M4522 3311 c-11 -6 -10 -10 0 -19 11 -8 14 -7 14 9 0 10 0 19 -1 19
0 0 -6 -4 -13 -9z"/>
<path d="M3810 3301 c0 -7 -5 -9 -12 -5 -7 5 -8 3 -3 -5 5 -9 10 -10 18 -2 6
6 8 14 4 18 -4 3 -7 1 -7 -6z"/>
<path d="M5990 3299 c0 -5 5 -7 10 -4 6 3 10 8 10 11 0 2 -4 4 -10 4 -5 0 -10
-5 -10 -11z"/>
<path d="M6110 3299 c0 -5 5 -7 10 -4 6 3 10 8 10 11 0 2 -4 4 -10 4 -5 0 -10
-5 -10 -11z"/>
<path d="M5935 3290 c3 -5 8 -10 11 -10 2 0 4 5 4 10 0 6 -5 10 -11 10 -5 0
-7 -4 -4 -10z"/>
</g>
</svg>
