<svg xmlns="http://www.w3.org/2000/svg" viewBox="0 0 101.79 47"><defs><style>.cls-1{fill:#ff8a8a}.cls-2{fill:#212126}.cls-3{fill:#fff}</style></defs><title>StartEX</title><g id="Слой_2" data-name="Слой 2"><g id="Слой_1-2" data-name="Слой 1"><path class="cls-1" d="M60.79 5v37c0 4 4.72 6.4 8.29 4.22l30.27-18.5a4.87 4.87 0 0 0 0-8.45L69.08.82C65.51-1.36 60.79 1 60.79 5z"/><path class="cls-2" d="M.63 27a8.87 8.87 0 0 0 4.49 1.27c2.56 0 4.06-1.35 4.06-3.31s-1-2.85-3.65-3.85C2.36 20 .4 18.35.4 15.62c0-3 2.5-5.26 6.27-5.26a8.81 8.81 0 0 1 4.33.94l-.69 2a7.73 7.73 0 0 0-3.68-.92c-2.65 0-3.65 1.58-3.65 2.91 0 1.81 1.18 2.7 3.85 3.74 3.28 1.27 4.95 2.85 4.95 5.7s-2.21 5.58-6.79 5.58A10 10 0 0 1 0 29.11zM18 12.14v4h3.62v1.93H18v7.51c0 1.73.49 2.7 1.9 2.7a5.6 5.6 0 0 0 1.47-.17l.12 1.9a6.2 6.2 0 0 1-2.24.35 3.51 3.51 0 0 1-2.73-1.06 5.16 5.16 0 0 1-1-3.62v-7.62H13.4v-1.93h2.16V12.8zm14.21 17.92L32 28.3h-.09a5.18 5.18 0 0 1-4.26 2.07 4 4 0 0 1-4.26-4c0-3.37 3-5.21 8.37-5.18v-.29a2.87 2.87 0 0 0-3.16-3.22 6.93 6.93 0 0 0-3.62 1l-.58-1.67a8.64 8.64 0 0 1 4.6-1.19c4.26 0 5.29 2.91 5.29 5.7v5.21a19.58 19.58 0 0 0 .23 3.34zM31.84 23c-2.76-.06-5.9.43-5.9 3.13a2.24 2.24 0 0 0 2.39 2.42 3.46 3.46 0 0 0 3.37-2.33 2.65 2.65 0 0 0 .14-.81zm6.52-2.52c0-1.64 0-3-.11-4.34h2.21l.09 2.73h.12a4.18 4.18 0 0 1 3.85-3 2.74 2.74 0 0 1 .72.09v2.39a3.83 3.83 0 0 0-.86-.09 3.55 3.55 0 0 0-3.38 3.2 7.12 7.12 0 0 0-.12 1.18v7.42h-2.5zm13.15-8.34v4h3.63v1.93h-3.63v7.51c0 1.73.49 2.7 1.9 2.7a5.6 5.6 0 0 0 1.47-.17L55 30a6.2 6.2 0 0 1-2.24.35A3.51 3.51 0 0 1 50 29.28a5.16 5.16 0 0 1-1-3.62v-7.6h-2.12v-1.93H49V12.8z"/><path class="cls-3" d="M74 21.21h-7.31V28h8.18v2H64.25V11.18h10.2v2h-7.76v6H74zm5.09-4.71L81 19.42c.5.76.92 1.46 1.37 2.21h.08c.45-.81.9-1.51 1.34-2.24l1.9-2.88h2.66l-4.62 6.55 4.76 7h-2.8l-2-3.05c-.53-.78-1-1.54-1.46-2.35h-.06c-.45.81-.92 1.54-1.43 2.35l-2 3.05h-2.62l4.82-6.92-4.59-6.64z"/></g></g></svg>