<svg version="1" xmlns="http://www.w3.org/2000/svg" width="2694.667" height="2694.667" viewBox="0 0 2021.000000 2021.000000"><path d="M1204.8 161.4c-.1.2-9.1.6-19.8 1-10.7.3-20.6.8-22 1-1.4.3-6.4.7-11.1 1-4.7.4-9.4.8-10.5 1-1 .2-4.6.7-7.9 1-3.3.4-8.5 1.1-11.5 1.6s-7.2 1.2-9.4 1.6c-2.1.3-4.8.8-6 1-1.1.2-5.7 1.1-10.1 1.9-4.4.9-9.8 2-12 2.6-2.2.6-5.1 1.3-6.5 1.6-1.4.2-4.3.9-6.5 1.5s-4.4 1.2-5 1.3c-1.9.4-16 4.7-25.4 7.6-11.3 3.6-31.2 11.1-39.9 15-3.4 1.6-6.4 2.9-6.7 2.9-.9 0-24.2 11.5-31.4 15.5-4.2 2.3-9.8 5.5-12.6 7-5 2.8-34.2 21.9-38 24.9-38 30.1-63.2 54.9-85.1 84.1-5.5 7.2-13.3 18.4-15.9 22.6-16.3 26.6-26.2 45.6-34.8 66.9-5 12.4-12.1 32.1-13.2 36.6-.3 1.1-2.1 7.9-4 15.3s-3.8 14.8-4 16.3c-.3 1.6-1.2 5.9-1.9 9.6-.8 3.7-1.7 8.7-2.1 11.2-.3 2.5-.8 5.6-1 7-.2 1.4-.7 4.5-1 7-.4 2.5-.8 5.6-1 7-.2 1.4-.6 6.5-1 11.5-.3 4.9-.8 11.2-1.1 14-.7 7.4-.7 42.6 0 53.5 1.4 21.7 3.6 41.7 6.1 55 .3 1.4.7 4.1 1 6 .3 1.9.8 4.2 1 5 .2.8.7 2.8 1 4.5 3.8 22.1 16.3 62.2 26.2 84.4 1.3 3.1 3.1 7.2 4 9.1 14.6 32.9 41 75.5 66.9 108 4.4 5.5 11.9 14.6 12.4 15 .3.3 2.5 3 5 6s5.2 6.2 6 7c.8.9 4.9 5.4 9 10 18.4 20.7 34.7 37.1 119.1 120.5 18.4 18.1 38.2 38.1 43.9 44.4 5.8 6.2 11.4 12.3 12.5 13.5 1.1 1.2 4.9 5.5 8.5 9.6 3.6 4.1 6.7 7.7 7 8 1.9 1.7 18.1 22.4 25.8 33 5.1 6.9 9.5 12.9 10 13.5 1.4 1.8 9.9 14.9 13.9 21.5 13.6 22.3 26.1 48.3 34.7 72.2 3.3 9 11.1 36 12.2 41.8.2 1.4.9 4.7 1.4 7.5 1.9 9.5 2.3 11.3 3.5 19 2.4 15.1 3.8 37.2 3.8 58.6-.1 21.6-2.2 50.2-4.7 63.9-.3 1.4-.7 3.6-1 5-1.1 6.5-2.7 14.7-3.1 16.7-.3 1.3-.7 3.3-1 4.4-14.6 66.5-50.3 126.4-96 161-21.7 16.5-42 27.3-67.3 35.8-11.2 3.8-28.2 8.2-36.7 9.5-2.2.4-6.8 1.1-10.1 1.6-20.2 3.2-64.5 3.5-81.3.5-.9-.1-3.2-.5-5.1-.8-9-1.6-9-1.6-24.8-5.2-7.5-1.8-30-10.4-39.5-15.2-7.5-3.7-25.5-14.4-28.5-16.8-.9-.7-5.1-4-9.2-7.3-15.9-12.5-34.2-32.9-45.9-51.1-14.6-22.8-26.6-52-31.7-77.1-.3-1.4-.9-4.1-1.4-6-.5-1.9-1.2-6.2-1.6-9.5-.3-3.3-.8-6.3-1-6.6-.7-1.2-1.9-22-1.8-33.4 0-11 .8-23.9 1.8-29.1.3-1.2.7-3.9 1-6 6.6-41.8 31.2-84.8 63-110.2 3.9-3.1 7.3-5.9 7.6-6.3.3-.3 4.6-3 9.5-6.1 27.9-17.1 59.1-25.8 93-26 10.4 0 22.9.7 28.5 1.7 1.4.3 4.1.7 6 1 7.1 1.1 21.7 4.5 30.3 7 4.8 1.4 8.9 2.5 9.2 2.5 2 0 11.6-31.1 14-45.5 1.6-9.6 1.7-34.1.1-44.1-7.2-47.4-39.3-85.9-87.2-104.7-9.4-3.7-21.7-7.1-29.4-8.2-2.5-.3-6.1-.9-8-1.3-7.6-1.3-50.4-.4-61.2 1.3-1.3.2-4.8.6-7.9 1-3.1.3-6.7.8-8 1.1-1.3.2-4.2.7-6.4 1-26.1 3.4-71 17.8-96 30.7-23.3 12-46.4 27.5-64.5 43.1-7.6 6.6-30 29.6-36.6 37.6-16.3 19.7-29.8 40.5-41.9 64.5-9 17.8-20.5 46.1-23.1 56.5-.2.8-1.6 6-3.2 11.5-3.3 11.4-5.3 19.1-5.7 22-.2 1.1-1 5.2-1.9 9.1-.8 3.8-1.8 9.2-2.2 12-.3 2.7-.7 5.1-.9 5.4-.2.3-.6 3.4-1 7s-.9 7.2-1 8.1c-.2.9-.6 5.6-1 10.5s-.9 10.5-1.1 12.4c-.5 4.4-.5 49.4 0 53.5.3 2.9 1.3 12.8 2.2 22.5.2 2.5.6 6.3 1 8.5.3 2.2.8 5.3 1 7 .2 1.6.6 4.1.9 5.5.3 1.4.7 3.8 1 5.5.5 2.9.8 4.7 2.1 11 8.4 42 25.3 86.8 46.5 123.5 6.7 11.5 6.3 10.9 15.7 24.9 25.7 38.3 62.9 75.9 99.8 100.9 23.3 15.7 45.1 27.6 73.4 40 21.6 9.5 58.7 20.8 86 26.2 5.8 1.2 11.3 2.3 12.4 2.5 1 .2 3.8.7 6.3 1 2.4.2 4.8.7 5.1.9.4.2 3.4.7 6.7 1 3.3.3 6.9.8 8 1 2.6.5 12.7 1.7 18.5 2.1 2.5.2 8.8.8 14 1.2 19.3 1.6 91.7.8 107.5-1.2 1.7-.2 6.4-.7 10.6-1 4.2-.3 8.7-.7 10-1 1.3-.2 5.1-.6 8.4-1 6.2-.7 35.1-5 39.5-6 1.4-.3 5-.9 8-1.5 6.9-1.3 8.3-1.6 14.5-3 2.8-.6 6.1-1.4 7.4-1.6 8.4-1.6 30.5-7.5 45-12 31.8-9.8 57.3-20 87.6-34.9 52.1-25.7 95.2-56.1 133.5-94.5 21.2-21.2 30.8-32.1 45.6-52 12.3-16.6 31.4-45.6 31.4-47.9 0-.4.8-1.9 1.9-3.2 4.3-5.5 21-40.3 28.6-59.4 11-27.8 22.9-67.5 26.9-90 .3-1.7 1-5.5 1.6-8.5.6-3 1.2-6.6 1.5-8 1.6-9.3 2.5-15.1 3-18.8.3-2.3.8-6.1 1.1-8.5.3-2.3.7-5.6.9-7.2.1-1.7.6-5.9 1-9.5 1.7-15.1 2.8-37.9 2.8-61 .1-18.5-.9-43.8-1.8-47-.3-.8-.7-4.1-1-7.3-.6-6.6-1.3-12.2-2-15.3-.3-1.2-.7-3.9-1-6-1.1-7.9-5.4-27.8-8-36.9-8.3-29.2-15.8-49.1-28.5-75-4.9-9.9-9.5-19.1-10.4-20.5-.8-1.4-3.8-6.6-6.7-11.5-9.2-15.8-23.4-36.9-35.3-52.5-9.4-12.3-11.1-14.5-11.6-15-.3-.3-2.5-3-5-6-5.5-6.8-22.1-26.1-27.1-31.5-18.4-19.9-48.1-50-69.5-70.5-12.4-11.7-37.9-35.9-42.7-40.4-96.1-89.3-144.9-147.7-173.6-207.7-13.9-29-24.2-62.2-27.6-88.4-.3-2.2-.7-4.9-.9-6-2.7-13.8-2.7-66.8 0-81.9.2-1.2.6-4.5.8-7.5.7-7.2 3.5-23.9 4.6-27.6.5-1.7 1.2-4.6 1.5-6.5 1.6-9.6 9.4-34.8 15.2-49 6.2-15.3 18-37.4 25.8-48.3 10.5-14.6 27.6-33.2 38.4-41.8 2.4-1.9 4.8-3.9 5.5-4.4 7.5-6.8 34-20.6 49.6-25.8 20.2-6.7 36.7-9.2 61-9.1 19.2 0 32.4 1.9 47.5 6.9 53.3 17.4 85.6 68.2 84.9 133.5-.1 8-.4 16.4-.8 18.7-.3 2.4-.8 6-1.1 8.1-.3 2.1-.7 4.9-1 6.2-.3 1.4-.8 4.1-1.1 6-.3 1.9-2 8.2-3.6 14-9.3 32.7-24.5 59.5-46.3 81.6-15 15.3-30.9 26-48.2 32.6-4.6 1.7-8.3 3.5-8.3 3.8 0 1.5 5 11.9 8.1 17.1 20.8 34 57 58.8 98.4 67.4 16.9 3.6 38.8 2.6 60.4-2.6 46.9-11.3 86.4-44.9 110.2-93.7 11-22.4 18-45.1 22.4-72.7 3.5-22 3.9-53.2 1.1-76.7-.2-1.3-.7-5.2-1.1-8.8-.4-3.6-.8-6.7-1-7-.2-.3-.6-2.6-1-5-.4-2.5-1.5-8.1-2.6-12.5s-2.2-9-2.4-10.1c-1.6-7.1-9.2-29.5-12.5-36.9-.9-2.2-2.8-6.5-4.1-9.5-6.6-15.8-19.8-38-32.9-55.6-34.8-46.5-82.2-80.8-142.5-103.2-18.6-6.9-44.1-13.5-68-17.6-1.6-.3-4.1-.8-5.5-1-2.9-.6-11.2-1.7-15.5-2.1-5-.5-15.8-1.6-19.5-2.1-1.9-.2-11.8-.6-22-.9-10.2-.4-19-.8-19.7-1-.6-.2-1.3-.2-1.5-.1z"/></svg>