<svg version="1" xmlns="http://www.w3.org/2000/svg" width="2157.333" height="2157.333" viewBox="0 0 1618.000000 1618.000000"><path d="M839.8 276.5c-.2.1-5.7.5-12.3.9-6.6.4-13.8.8-16 1.1-2.2.2-6.9.7-10.5 1-3.6.4-7.8.8-9.5 1.1-1.6.2-4.6.6-6.5.8-12.6 1.6-52.3 9.1-54.3 10.3-.5.3-3.6 1.2-7 1.9-3.4.8-12 3.3-19.2 5.6-7.1 2.3-13.2 4.2-13.5 4.3-3.1.6-25.5 9.4-34 13.2-19.5 8.8-31.8 15.1-53.5 27.3-13.6 7.6-43.1 27.1-55 36.5-12.4 9.7-20.9 16.6-28 22.9-9.9 8.7-33.7 32.4-43.2 43.1-49.5 55.5-86.9 122.4-109.8 196-7.2 23.2-15 55.6-18 75.5-.4 2.5-.9 5.2-1 6-1.8 10.2-3.5 25.8-5.1 46.5-2 25.9-.4 81.6 3 102.5.3 1.4.7 4.6 1.1 7.3 8.7 69.4 38 150.8 77.8 216.7 8.3 13.8 15.9 25.4 17 25.8.4.2.7.8.7 1.2 0 1.7 18.9 27.2 30.4 41 15.4 18.5 19.6 23 38.1 41.5 17.3 17.2 27.2 26 44.5 39.7 43.5 34.4 95 63.4 144.1 81.3 4.9 1.8 26.3 8.4 29.2 9 1 .2 2.7.7 3.7 1 1 .3 2.7.7 3.7.9 1 .2 4.5 1.1 7.8 2 5.6 1.4 17.2 3.9 24 5.1 1.7.2 4.1.7 5.5 1 1.4.3 4.3.7 6.5 1 2.2.3 4.9.7 6 .9 1.9.4 6.6 1 17.5 2.2 29.6 3.3 76.2 3.3 106-.1 1.9-.2 6-.7 9-1 3-.3 6.6-.8 8-1 1.4-.2 4.5-.7 7-1 7.9-1 32.1-5.5 43.5-8.1 67.3-15.3 125.8-40 179.3-75.6 11.2-7.5 29.5-20.8 31.2-22.8.3-.3 2.5-2.1 5-4 13.3-10.3 33.7-29.8 47.5-45.5 20.2-23 38.7-51.9 50.9-79.7l2.5-5.7-8.2-4.6c-4.5-2.5-10.2-5.7-12.7-7.1-15.8-9.2-42.7-24.7-49.5-28.6-4.4-2.5-9.6-5.5-11.5-6.6-1.9-1.1-19.7-11.3-39.5-22.7-19.8-11.4-38.7-22.2-42-24.1l-6-3.3-4 8.7c-8 17.5-21.5 39.6-31.7 51.7-7.8 9.3-29.2 30.1-39.3 38.1-10.3 8.1-27.1 19.6-35.5 24.2-32.4 17.8-65.8 29.2-101.5 34.6-1.6.2-5 .8-7.5 1.2-9.1 1.5-28.8 2.8-42 2.8-13.1 0-32.3-1.2-39.2-2.4-2.9-.5-7-1.2-9.1-1.5-23.4-3.3-54-13.5-77.7-25.7-12.5-6.5-14.7-7.8-30.8-18.3-57.6-37.7-102.4-95.7-128.6-166.7-3.9-10.5-9.9-28.7-11.1-33.8-3.3-13.5-7.6-32.3-8-35.5-.3-2.2-1-6.5-1.5-9.5-6.2-35.4-6.7-79.9-1.4-120 4.7-36.1 17.4-82.7 30.1-111 6.7-14.7 12.9-27.1 18.2-36.4 22.4-38.7 44.5-64.4 81-93.9 3.5-2.8 19.9-13.8 28.6-19 7.9-4.8 26.6-14.7 27.9-14.7.3 0 2.8-1 5.4-2.1 10.3-4.6 14.6-6.1 30.7-10.7 6.5-1.9 9.2-2.5 15.3-3.7 1.3-.2 3.1-.6 4-.9 1.8-.5 6.9-1.3 13.5-2.1 2.3-.3 5.2-.7 6.5-1 14.3-2.7 69.9-2.8 84.2 0 1.3.2 4.6.7 7.3 1 2.8.3 8 1.2 11.6 2 3.6.7 8.2 1.6 10.1 1.9 5.2.8 28.4 7.3 36.3 10.1 41.6 15.1 70.6 33.3 100.7 63.5 19.3 19.3 35.1 41.6 48.7 68.5l5.1 10 .6 71.5c.4 39.3.9 87 1.1 106 .2 19 .7 61.5 1 94.5.8 76 1.3 116.8 1.4 117.6.1.3 12.4.4 27.4.3 14.9-.1 32.2-.3 38.2-.3l11-.1-.2-4.8c-.1-2.6-.3-32.2-.5-65.7l-.3-61 13-.2c57.3-.7 89.8-1.3 94-1.9 9.2-1.2 23.9-5.5 32.4-9.5 21.6-10.1 42.7-29.3 54-49.2 9.1-15.9 15-32.1 17.6-48 .3-1.7.8-4.4 1.1-6 1.6-7.6.4-31.8-2-42.2-.2-1.1-.9-4.2-1.5-6.9-1.6-6.9-6.7-19.7-11.4-28.5-6.7-12.7-13.7-22.1-24.7-33.2-15.6-15.6-34-26.9-52.2-31.9-18.2-5-12-4.8-131.2-3.6-36.2.3-66.2.9-66.7 1.2-.5.3-.9.3-.9 0 0-.2 15.6-11.2 34.8-24.3 19.1-13.2 37.6-26 41.2-28.5 3.6-2.4 10.1-6.9 14.5-9.9 12.4-8.5 53.3-36.7 60.2-41.6l6.2-4.3-4.1-7.8c-21.1-39.6-50.8-77.2-87.4-110.3-17.4-15.7-46.4-36.6-72.8-52.4-10.5-6.3-45-23.5-47.1-23.5-.3 0-2.6-.9-5.1-2-4.3-2-18.4-7.4-23.4-9-17.7-5.7-33.2-10.2-41-12-7.5-1.7-27.7-5.9-31-6.4-1.9-.3-4.4-.8-5.6-1-1.2-.2-4.5-.7-7.5-1.1-3-.3-6.1-.8-6.9-1-2.4-.6-13.8-1.9-27.5-3-3.8-.4-9-.9-11.5-1.1-4.7-.6-67.7-1.4-68.2-.9zM1292 682.4c9.9 1.6 19.7 7.2 27.3 15.6 5.6 6.1 12.9 20.8 14.7 29.5 2 9.5 1.9 26.7-.1 37-4.3 21.4-18 37.6-35.9 42.5-2.9.8-13.9 1.4-30.5 1.6-40.4.5-67.7.5-68 .2-.2-.2-.7-27.8-1-61.3-.3-33.5-.8-61.1-1-61.4-.2-.2 0-1.1.5-2 .7-1.5 4.1-1.7 29.6-1.9 15.9-.2 28.9-.4 29-.5.6-.5 31.5.1 35.4.7z"/><path d="M813.6 620l-15.9.5V632c.1 6.3.4 38.7.8 72 .7 65.7 1 96.9 2 191.5.3 34.1.8 74.4 1 89.5l.3 27.5 26.8-.2c14.8-.1 53.9-.4 86.9-.8 33-.3 75.5-.8 94.5-1 71.9-.7 68-.6 68.1-2.4 0-.9 0-9.3-.1-18.6-.1-9.4-.3-23.6-.3-31.8l-.1-14.7-2.5-.1c-4.9-.2-64.9.4-165.3 1.6-17.5.2-31.8.1-31.9-.3-.3-1.5-.7-35.9-1.3-91.7-1.4-131.4-2.3-215.4-2.5-230.1l-.1-3h-22.2c-12.3.1-29.5.3-38.2.6z"/></svg>