<?xml version="1.0" standalone="no"?>
<!DOCTYPE svg PUBLIC "-//W3C//DTD SVG 20010904//EN"
 "http://www.w3.org/TR/2001/REC-SVG-20010904/DTD/svg10.dtd">
<svg version="1.0" xmlns="http://www.w3.org/2000/svg"
 width="787.000000pt" height="787.000000pt" viewBox="0 0 787.000000 787.000000"
 preserveAspectRatio="xMidYMid meet">
<metadata>
Created by potrace 1.11, written by Peter Selinger 2001-2013
</metadata>
<g transform="translate(0.000000,787.000000) scale(0.100000,-0.100000)"
fill="#000000" stroke="none">
<path d="M2381 6979 c-586 -45 -1047 -301 -1330 -739 -105 -163 -177 -360
-218 -595 -26 -155 -24 -478 5 -611 92 -428 344 -771 734 -999 l91 -53 -99
-50 c-373 -187 -657 -498 -799 -875 -156 -415 -114 -990 100 -1382 153 -280
410 -521 715 -669 51 -26 98 -46 104 -46 10 0 252 618 245 624 -2 1 -33 23
-69 48 -188 132 -310 316 -378 567 -24 89 -26 111 -26 321 -1 211 1 231 26
325 53 205 132 349 267 489 95 97 170 152 292 210 164 79 387 122 593 114 l90
-3 133 349 c73 192 131 351 129 353 -2 3 -35 -5 -73 -16 -200 -58 -497 -53
-688 12 -310 107 -518 337 -606 673 -21 80 -24 111 -24 294 0 178 3 216 23
293 74 295 236 504 489 631 264 132 649 139 919 16 187 -85 350 -242 449 -432
25 -47 45 -76 49 -69 4 6 77 192 161 414 l154 402 -27 23 c-62 51 -213 147
-306 194 -304 153 -705 219 -1125 187z"/>
<path d="M4185 6878 c-11 -27 -767 -2006 -1075 -2813 -48 -126 -338 -887 -645
-1690 -307 -803 -560 -1468 -563 -1477 -4 -17 20 -18 407 -18 l412 0 14 33
c10 25 310 856 514 1427 l38 105 1259 2 1259 3 279 -768 c153 -422 283 -775
288 -784 8 -17 38 -18 418 -18 226 0 410 2 410 3 0 4 -63 170 -615 1612 -229
600 -549 1434 -710 1855 -161 421 -444 1163 -630 1650 -186 487 -343 891 -348
898 -7 9 -90 12 -354 12 l-344 0 -14 -32z m395 -1068 c204 -552 980 -2693 977
-2696 -2 -2 -458 -3 -1013 -2 l-1010 3 111 305 c61 168 288 794 505 1392 217
598 396 1086 397 1085 1 -2 16 -41 33 -87z"/>
</g>
</svg>
