<?xml version="1.0" standalone="no"?>
<!DOCTYPE svg PUBLIC "-//W3C//DTD SVG 1.1//EN" "http://www.w3.org/Graphics/SVG/1.1/DTD/svg11.dtd" >
<svg xmlns="http://www.w3.org/2000/svg">
<metadata>Generated by IcoMoon</metadata>
<defs>
<font id="icons" horiz-adv-x="1024">
<font-face units-per-em="1024" ascent="960" descent="-64" />
<missing-glyph horiz-adv-x="1024" />
<glyph unicode="&#x20;" horiz-adv-x="512" d="" />
<glyph unicode="&#xe900;" glyph-name="case" horiz-adv-x="1188" d="M511.102 272.637h181.787c5.34 0 9.669 4.329 9.669 9.669v55.254h-200.987v-55.254c0 0 0-0.001 0-0.001 0-5.292 4.251-9.591 9.524-9.668zM757.812 365.188v-82.881c-0.078-35.825-29.099-64.845-64.916-64.924h-181.794c-35.825 0.078-64.845 29.099-64.924 64.916v82.889h-446.178v-316.054c0-62.482 50.651-113.133 113.133-113.133h961.701c62.482 0 113.133 50.651 113.133 113.133v316.054zM431.122 867.311c0 5.417 4.391 9.808 9.808 9.808h317.712c5.417 0 9.808-4.391 9.808-9.808v-73.074h82.881v73.074c-0.079 51.159-41.53 92.611-92.682 92.689h-317.72c-51.159-0.079-92.611-41.53-92.689-92.682v-73.081h82.881zM1074.834 794.237h-961.701c-62.482 0-113.133-50.651-113.133-113.133v-246.020h1187.967v246.020c0 62.482-50.651 113.133-113.133 113.133z" />
<glyph unicode="&#xe901;" glyph-name="google" horiz-adv-x="3027" d="M1288.348 434.866c0-142.136-111.193-246.873-247.652-246.873s-247.652 104.737-247.652 246.873c0 143.137 111.193 246.873 247.652 246.873s247.652-103.736 247.652-246.873zM1179.937 434.866c0 88.821-64.445 149.593-139.242 149.593s-139.242-60.772-139.242-149.593c0-87.93 64.445-149.593 139.242-149.593s139.242 61.774 139.242 149.593zM1822.609 434.866c0-142.136-111.193-246.873-247.652-246.873s-247.652 104.737-247.652 246.873c0 143.026 111.193 246.873 247.652 246.873s247.652-103.736 247.652-246.873zM1714.198 434.866c0 88.821-64.445 149.593-139.242 149.593s-139.242-60.772-139.242-149.593c0-87.93 64.445-149.593 139.242-149.593s139.242 61.774 139.242 149.593zM2334.609 666.824v-443.214c0-182.317-107.52-256.779-234.63-256.779-119.652 0-191.666 80.028-218.824 145.475l94.386 39.29c16.807-40.181 57.99-87.597 124.327-87.597 81.363 0 131.784 50.198 131.784 144.696v35.506h-3.784c-24.264-29.941-71.012-56.097-130.003-56.097-123.437 0-236.522 107.52-236.522 245.871 0 139.353 113.085 247.763 236.522 247.763 58.88 0 105.628-26.157 130.003-55.207h3.784v40.181h102.957zM2239.332 433.976c0 86.929-57.99 150.483-131.784 150.483-74.797 0-137.461-63.555-137.461-150.483 0-86.038 62.664-148.703 137.461-148.703 73.795 0 131.784 62.664 131.784 148.703zM2504.348 926.609v-723.478h-105.739v723.478h105.739zM2916.397 353.614l84.146-56.097c-27.158-40.181-92.605-109.412-205.69-109.412-140.243 0-244.981 108.41-244.981 246.873 0 146.81 105.628 246.873 232.849 246.873 128.111 0 190.776-101.955 211.256-157.050l11.242-28.049-330.017-136.682c25.266-49.53 64.557-74.797 119.652-74.797 55.207 0 93.496 27.158 121.544 68.341zM2657.391 442.435l220.605 91.603c-12.132 30.831-48.64 52.313-91.603 52.313-55.096 0-131.784-48.64-129.002-143.917zM392.793 499.089v104.737h352.946c3.45-18.254 5.231-39.847 5.231-63.221 0-78.581-21.482-175.75-90.713-244.981-67.339-70.122-153.377-107.52-267.353-107.52-211.256 0-388.897 172.077-388.897 383.332s177.642 383.332 388.897 383.332c116.87 0 200.125-45.857 262.678-105.628l-73.906-73.906c-44.856 42.073-105.628 74.797-188.883 74.797-154.268 0-274.922-124.327-274.922-278.595s120.654-278.595 274.922-278.595c100.063 0 157.050 40.181 193.558 76.689 29.607 29.607 49.085 71.903 56.765 129.67l-250.323-0.111z" />
<glyph unicode="&#xe902;" glyph-name="apple" d="M905.758 175.435c-14.758-34.093-32.226-65.476-52.465-94.328-27.588-39.334-50.176-66.56-67.584-81.679-26.985-24.817-55.898-37.527-86.859-38.249-22.227 0-49.032 6.325-80.233 19.155-31.304 12.77-60.073 19.095-86.377 19.095-27.588 0-57.175-6.325-88.823-19.095-31.696-12.83-57.23-19.516-76.752-20.179-29.69-1.265-59.284 11.806-88.823 39.273-18.854 16.444-42.436 44.634-70.686 84.57-30.31 42.647-55.23 92.1-74.752 148.48-20.908 60.898-31.389 119.868-31.389 176.959 0 65.397 14.131 121.802 42.436 169.068 22.245 37.966 51.838 67.915 88.877 89.901s77.059 33.19 120.157 33.906c23.582 0 54.507-7.294 92.937-21.63 38.322-14.384 62.928-21.679 73.716-21.679 8.066 0 35.4 8.529 81.739 25.534 43.821 15.77 80.806 22.299 111.104 19.727 82.101-6.626 143.782-38.99 184.802-97.298-73.427-44.49-109.749-106.803-109.026-186.741 0.663-62.265 23.251-114.080 67.644-155.22 20.119-19.095 42.586-33.852 67.584-44.333-5.421-15.721-11.144-30.78-17.227-45.237zM717.463 916.39c0-48.803-17.83-94.371-53.368-136.547-42.888-50.14-94.762-79.113-151.016-74.541-0.717 5.855-1.132 12.017-1.132 18.492 0 46.851 20.396 96.991 56.615 137.987 18.083 20.757 41.080 38.016 68.969 51.784 27.829 13.563 54.152 21.063 78.908 22.347 0.723-6.524 1.024-13.049 1.024-19.522z" />
<glyph unicode="&#xe903;" glyph-name="asus" horiz-adv-x="5159" d="M4940.368 830.319c0 58.597 47.069 106.627 104.705 106.627 27.857 0 53.794-11.527 73.966-30.739 20.173-20.173 30.739-47.069 30.739-74.927s-10.567-54.754-30.739-74.927c-20.173-20.173-46.109-31.7-73.966-31.7-57.636 0-104.705 47.069-104.705 105.666zM4931.722 830.319c0-63.4 50.912-115.272 114.311-115.272 30.739 0 58.597 11.527 79.73 33.621s33.621 50.912 33.621 81.651-11.527 59.557-33.621 81.651-49.951 33.621-79.73 33.621c-63.4 0-114.311-51.872-114.311-115.272zM5002.807 762.116h16.33v53.794h36.503c5.764 0 10.567 0 14.409-1.921 4.803-2.882 7.685-8.645 8.645-16.33l1.921-21.133c0-4.803 0-7.685 0-9.606 0.961-1.921 0.961-2.882 1.921-3.842h20.173v2.882c-2.882 0.961-3.842 3.842-4.803 7.685-0.961 1.921-0.961 5.764-0.961 10.567l-0.961 16.33c0 7.685-1.921 12.488-3.842 15.37-2.882 2.882-6.724 5.764-11.527 7.685 5.764 2.882 9.606 6.724 12.488 11.527s3.842 10.567 3.842 18.251c0 14.409-5.764 24.015-16.33 29.779-5.764 2.882-13.448 3.842-22.094 3.842h-54.754l-0.961-124.878zM5018.176 830.319v43.227h38.424c5.764 0 10.567-0.961 13.448-2.882 5.764-2.882 8.645-9.606 8.645-18.251s-1.921-14.409-6.724-17.291c-3.842-2.882-9.606-4.803-17.291-4.803h-36.503zM466.852 671.82l-466.852-733.899h318.919l449.561 701.238-301.629 32.66zM2389.013 688.15v271.85h-907.767c-123.917-7.685-177.711-67.242-218.056-109.508-43.227-45.148-67.242-140.248-67.242-140.248v247.835h-483.182c-36.503 0-71.084-15.37-97.021-51.872-26.897-35.542-137.366-218.056-137.366-218.056h1910.634zM4857.756 688.15v271.85h-971.167c-122.957-7.685-177.711-67.242-218.056-109.508-43.227-45.148-67.242-140.248-67.242-140.248v-22.094h1256.465zM2707.932 959.039h-271.85v-270.889h271.85v270.889zM3598.409 959.039h-270.889v-270.889h270.889v270.889zM3598.409 590.169l-267.047 16.33v-314.116c0 0-0.961-90.296-88.375-90.296h-457.246c0 0-77.809 6.724-77.809 89.336v357.343l-268.968 19.212v-481.261c43.227-230.544 251.677-248.795 251.677-248.795s21.133-0.961 24.976-1.921h619.587c0 0 265.126 21.133 265.126 276.653l-1.921 377.516zM919.295-62.079h1269.914c220.938 44.188 243.992 245.914 243.992 245.914 10.567 59.557 4.803 108.548 4.803 108.548-6.724 40.345-83.572 219.017-248.795 234.386-98.942 9.606-979.812 79.73-979.812 79.73 17.291-88.375 56.675-133.523 83.572-158.499 61.478-58.597 158.499-75.887 158.499-75.887 23.054-1.921 679.144-56.675 679.144-56.675 21.133-0.961 60.518-6.724 59.557-58.597 0-6.724-5.764-51.872-55.715-51.872h-950.034v403.452l-264.165 19.212c-0.961 0-0.961-689.711-0.961-689.711zM3600.33-64h972.128c243.992 14.409 278.574 245.914 278.574 245.914 8.645 60.518 1.921 110.469 1.921 110.469-6.724 54.754-84.533 219.977-250.717 236.308-97.981 9.606-984.615 61.478-984.615 61.478 25.936-91.257 61.478-119.114 88.375-144.090 61.478-59.557 152.735-73.006 152.735-73.006 23.054-1.921 685.869-57.636 685.869-57.636 21.133-0.961 64.36-2.882 64.36-54.754 0-15.37-7.685-31.7-17.291-40.345 0 0-23.054-12.488-45.148-12.488h-943.31l-2.882-271.85z" />
<glyph unicode="&#xe904;" glyph-name="bbc" horiz-adv-x="3563" d="M1929.979 299.974c0-109.967-136.847-103.447-136.847-103.447h-136.847v198.751h136.847c140.923 0.811 136.847-95.304 136.847-95.304zM1656.284 698.298h104.268c108.334-5.708 104.258-86.341 104.258-86.341 0-100.192-119.741-101.824-119.741-101.824h-88.785v188.165zM1904.731 471.033c0 0 93.672 39.911 92.861 145.811 0 0 14.242 173.493-215.662 194.675h-255.162v-727.402h292.433c0 0 244.37-0.821 244.37 205.271 0 0 5.699 140.102-158.841 181.645zM1244.491 954.062h1074.037v-1012.123h-1074.037v1012.123zM691.426 299.974c0-109.967-136.847-103.447-136.847-103.447h-136.847v198.751h136.847c140.923 0.811 136.847-95.304 136.847-95.304zM417.732 698.298h104.268c108.334-5.708 104.258-86.341 104.258-86.341 0-100.192-119.741-101.824-119.741-101.824h-88.785v188.165zM666.178 471.033c0 0 93.672 39.911 92.861 145.811 0 0 14.242 173.493-215.662 194.675h-255.162v-727.402h292.433c0 0 244.37-0.821 244.37 205.271 0 0 5.699 140.102-158.841 181.645zM5.938 954.062h1074.037v-1012.123h-1074.037v1012.123zM3337.957 759.377v-134.404c0 0-131.149 80.642-276.138 82.275 0 0-270.43 5.278-282.648-259.248 0 0-9.775-243.344 279.393-257.195 0 0 121.374-14.662 285.913 90.417v-139.291c0 0-220.745-131.139-476.522-30.136 0 0-215.046 78.589-223.198 336.205 0 0-8.964 264.946 277.771 352.92 0 0 76.576 29.324 214.235 16.295 0 0 82.265-8.152 201.195-57.838zM2483.042-58.062h1074.037v1012.123h-1074.037v-1012.123z" />
<glyph unicode="&#xe905;" glyph-name="behance" d="M430.899 533.504c0.609 2.313 0.959 4.969 0.959 7.706 0 16.022-11.986 29.244-27.48 31.19l-109.825 0.016v-83.968h102.912c17.766 0 33.434 5.632 33.434 45.056zM685.056 488.448c-33.712-0.137-61.559-25.067-66.261-57.494l123.605-0.362c0.022 0.586 0.035 1.274 0.035 1.965 0 30.878-25.032 55.91-55.91 55.91-0.516 0-1.031-0.007-1.544-0.021zM404.224 430.592h-109.619v-100.864h104.141c1.009-0.085 2.185-0.134 3.371-0.134 23.442 0 42.445 19.003 42.445 42.445 0 2.416-0.202 4.785-0.59 7.090 0.57 2.306 0.876 5.241 0.876 8.248 0 22.885-17.748 41.625-40.231 43.207zM512 960c-282.77 0-512-229.23-512-512s229.23-512 512-512c282.77 0 512 229.23 512 512-0.378 282.617-229.382 511.621-511.963 512zM602.522 617.472h155.238v-46.592h-155.443v46.592zM523.93 373.76c-0.28-61.573-50.259-111.379-111.871-111.379-2.757 0-5.491 0.1-8.197 0.296l-195.631-0.021v376.832h196.25c3.169 0.37 6.84 0.581 10.561 0.581 53.132 0 96.205-43.072 96.205-96.205 0-1.663-0.042-3.317-0.126-4.959 0.24-1.83 0.372-4.219 0.372-6.638 0-33.429-25.146-60.984-57.555-64.782 75.214-0.029 69.992-93.725 69.992-93.725zM814.746 379.904h-195.226c-0.096-1.287-0.151-2.788-0.151-4.301 0-33.932 27.508-61.44 61.44-61.44 1.765 0 3.513 0.074 5.24 0.22 62.392-0.015 60.139 40.945 60.139 40.945h66.56c0-108.032-128.922-100.352-128.922-100.352-3.475-0.321-7.515-0.504-11.599-0.504-73.775 0-133.581 59.806-133.581 133.581 0 3.8 0.159 7.563 0.47 11.282-0.056 0.469-0.069 1.593-0.069 2.721 0 78.271 63.451 141.722 141.722 141.722 1.075 0 2.147-0.012 3.216-0.036 152.161 0.003 130.759-163.837 130.759-163.837z" />
<glyph unicode="&#xe906;" glyph-name="cisco" horiz-adv-x="1820" d="M616.676 6.9h-74.262v294.298h74.262v-294.298zM1215.474 216.868c-3.034 1.553-26.957 15.713-62.477 15.713-48.011 0-81.319-33.426-81.319-78.496 0-43.729 31.874-78.567 81.319-78.567 34.908 0 59.208 13.855 62.477 15.619v-78.99c-9.315-2.611-34.696-10.468-67.676-10.468-83.53 0-156.852 57.584-156.852 152.406 0 87.882 66.335 152.335 156.852 152.335 34.814 0 60.642-8.492 67.676-10.562v-78.99zM440.314 216.868c-2.987 1.553-26.863 15.713-62.383 15.713-48.105 0-81.39-33.426-81.39-78.496 0-43.729 31.897-78.567 81.39-78.567 34.908 0 59.184 13.855 62.383 15.619v-78.99c-9.221-2.611-34.555-10.468-67.723-10.468-83.483 0-156.711 57.584-156.711 152.406 0 87.882 66.335 152.335 156.711 152.335 34.955 0 60.737-8.492 67.723-10.562v-78.99zM1449.095 231.479c-44.059 0-76.779-34.673-76.779-77.391 0-42.812 32.721-77.461 76.779-77.461 44.012 0 76.826 34.649 76.826 77.461 0 42.718-32.815 77.391-76.826 77.391zM1604.606 154.088c0-84.189-64.994-152.406-155.511-152.406s-155.417 68.217-155.417 152.406c0 84.048 64.9 152.335 155.417 152.335s155.511-68.287 155.511-152.335zM898.303 234.304c-1.106 0.353-32.368 8.986-58.055 8.986-29.757 0-45.941-9.974-45.941-24.111 0-17.925 21.829-24.182 34.038-28.039l20.489-6.516c48.199-15.337 70.169-48.34 70.169-84.189 0-73.933-65.018-98.773-121.849-98.773-39.495 0-76.497 7.269-80.143 8.045v67.723c6.539-1.647 37.684-10.938 70.122-10.938 36.955 0 53.938 10.797 53.938 27.475 0 14.914-14.702 23.523-33.12 29.31-4.493 1.505-11.244 3.623-15.855 5.128-41.354 13.079-75.838 37.378-75.838 86.094 0 55.044 41.212 91.999 109.664 91.999 36.155 0 70.169-8.774 72.38-9.362v-62.83zM137.135 617.473c0 20.277-16.56 36.719-36.861 36.719s-36.884-16.443-36.884-36.719v-77.25c0-20.394 16.584-36.861 36.884-36.861s36.861 16.466 36.861 36.861v77.25zM339.652 718.869c0 20.277-16.56 36.767-36.861 36.767-20.324 0-36.884-16.49-36.884-36.767v-178.658c0-20.394 16.56-36.837 36.884-36.837 20.3 0 36.861 16.443 36.861 36.837v178.658zM542.171 857.596c0 20.277-16.56 36.743-36.861 36.743-20.324 0-36.884-16.466-36.884-36.743v-390.788c0-20.394 16.56-36.861 36.884-36.861 20.3 0 36.861 16.466 36.861 36.861v390.788zM744.691 718.869c0 20.277-16.56 36.767-36.861 36.767-20.324 0-36.884-16.49-36.884-36.767v-178.658c0-20.394 16.56-36.837 36.884-36.837 20.3 0 36.861 16.443 36.861 36.837v178.658zM946.979 617.473c0 20.277-16.443 36.719-36.649 36.719-20.3 0-36.861-16.443-36.861-36.719v-77.25c0-20.394 16.56-36.861 36.861-36.861 20.206 0 36.649 16.466 36.649 36.861v77.25zM1149.59 718.869c0 20.277-16.443 36.767-36.743 36.767-20.277 0-36.767-16.49-36.767-36.767v-178.658c0-20.394 16.49-36.837 36.767-36.837 20.3 0 36.743 16.443 36.743 36.837v178.658zM1352.246 857.596c0 20.277-16.443 36.743-36.743 36.743-20.324 0-36.767-16.466-36.767-36.743v-390.788c0-20.394 16.443-36.861 36.767-36.861 20.3 0 36.743 16.466 36.743 36.861v390.788zM1554.857 718.869c0 20.277-16.443 36.767-37.213 36.767-20.3 0-36.743-16.49-36.743-36.767v-178.658c0-20.394 16.443-36.837 36.743-36.837 20.771 0 37.213 16.443 37.213 36.837v178.658zM1757.054 617.473c0 20.277-16.49 36.719-36.767 36.719-20.3 0-36.79-16.443-36.79-36.719v-77.25c0-20.394 16.49-36.861 36.79-36.861 20.277 0 36.767 16.466 36.767 36.861v77.25zM1714.557 45.661v-4.611h-13.126v-34.132h-5.387v34.132h-13.196v4.611h31.709zM1717.312 45.661h8.445l11.597-31.78h0.188l11.22 31.78h8.28v-38.742h-5.528v31.756h-0.188l-11.762-31.756h-5.105l-11.479 31.756h-0.259v-31.756h-5.41v38.742z" />
<glyph unicode="&#xe907;" glyph-name="cnn" horiz-adv-x="2154" d="M1864.668 956.166v-475.807c0 0-76.219 129.212-205.882 352.007-127.183 218.285-366.89 128.085-366.89-59.758v-292.024c0 0-74.415 129.212-204.078 352.007-127.183 218.059-367.116 127.859-367.116-59.983v-502.642c0-18.040-13.305-34.051-33.149-34.051h-157.174c-339.83-0.451-309.613 434.54-20.295 434.991 128.536 0.226 173.636 0 173.636 0v285.259h-157.625c-706.495 0-699.73-1006.636 9.697-1007.087h277.141c119.29 0 195.96 70.582 195.735 201.147v254.816c0 0 155.37-257.748 216.481-358.547 103.73-171.606 354.939-137.781 354.262 76.445v281.876c0 0 155.37-257.748 216.481-358.772 103.73-171.606 354.939-137.781 354.262 76.67v833.452h-285.484zM2023.646 141.206c0-36.982-20.295-56.601-39.237-62.689-23.227-7.442-48.708 2.255-64.719 25.482-3.383 5.412-336.447 538.722-419.432 674.699-7.667 11.050-19.619 16.011-30.443 12.628-11.275-3.608-18.040-15.56-18.040-32.021v-617.873c0-37.208-19.844-56.826-38.786-62.915-23.001-7.216-47.806 2.481-63.817 25.707-3.383 5.412-336.673 538.722-419.432 674.699-7.667 11.050-19.844 16.011-30.668 12.403-11.501-3.608-18.266-15.56-18.040-32.021v-614.039c0-37.208-30.443-67.425-67.65-67.425h-296.985c-267.895 0-390.117 193.931-390.342 374.106-0.226 186.94 129.663 376.361 377.94 376.812h179.95v-32.021h-179.724c-227.53-0.226-346.37-173.636-346.144-344.791 0-164.841 112.299-342.085 358.321-342.085h296.534c19.393 0 35.629 16.236 35.629 35.404v614.039c-0.226 30.668 15.334 54.571 40.365 62.689 24.129 7.667 50.963-2.255 67.199-25.482 83.435-136.654 416.5-669.963 419.432-674.699 7.667-10.824 18.040-15.785 27.511-12.628 10.599 3.383 16.462 15.334 16.462 32.247v617.873c0 30.668 15.334 54.571 40.59 62.464 24.129 7.667 50.738-2.255 66.974-25.482 83.661-136.654 416.726-669.963 419.432-674.473 7.442-10.824 18.491-15.785 28.413-12.628 10.599 3.383 16.913 15.334 16.913 32.247v814.735h32.021v-814.961z" />
<glyph unicode="&#xe908;" glyph-name="dribbble" d="M512 960c-282.77 0-512-229.23-512-512s229.23-512 512-512c282.77 0 512 229.23 512 512-0.407 282.605-229.394 511.592-511.96 512zM848.845 718.336c58.18-71.502 93.97-163.26 95.586-263.325-60.118 11.911-129.266 18.988-200.047 19.101-0.946 0.003-1.959 0.005-2.973 0.005-33.717 0-66.955-2.048-99.598-6.027 1.055 7.046-1.761 13.702-4.731 20.87-8.704 20.48-18.022 40.448-27.75 60.416 95.579 36.982 176.053 94.776 238.84 168.154zM512 880.128c109.44-0.079 209.348-40.819 285.451-107.928-58.266-69.414-133.909-122.534-220.452-152.164-57.336 95.865-109.983 177.496-167.232 255.54 33.971 0.364 67.601 4.464 102.175 4.551zM326.195 837.632c50.556-69.293 102.874-149.698 151.052-232.801-109.665-45.128-244.138-64.084-382.783-65.686l-5.172-0.009c29.798 132.789 117.377 240.6 234.325 297.367zM79.462 447.488q0 5.376 0 10.752c2.611 0 6.4-0.512 11.366-0.512 154.235 1.054 302.785 23.611 443.367 64.814 0.281-25.902 11.391-48.942 21.683-71.982l-14.387-4.608c-149.095-54.483-270.821-154.204-351.6-282.329-69.179 72.76-110.43 173.065-110.43 283.005 0 0.302 0 0.605 0.001 0.907zM512 14.848c-0.019 0-0.041 0-0.063 0-99.796 0-191.672 33.909-264.735 90.835 76.719 126.542 194.924 221.811 335.673 266.407s4.593 1.158 4.747 1.67c36.747-92.005 68.408-201.070 89.669-313.808-47.102-32.675-104.056-45.106-163.914-45.106-0.484 0-0.969 0.001-1.453 0.002zM756.941 91.136c-21.875 116.76-50.564 218.639-87.162 316.663 30.41-8.839 60.565-6.42 91.279-6.391 0.282 0 0.581 0.001 0.88 0.001 62.963 0 123.785-9.165 181.205-26.235-24.911-117.849-91.496-218.354-184.775-283.101z" />
<glyph unicode="&#xe909;" glyph-name="intel" horiz-adv-x="1548" d="M458.054 524.874v-248.231h-79.019v312.015l163.135-0.162c69.29 0 92.894-48.863 92.894-93.246v-218.607h-78.876v218.198c0 18.592-9.624 30.033-32.838 30.033h-65.296zM995.37 528.602c-27.008 0-47.912-13.885-56.642-32.734-5.173-11.317-6.952-19.99-7.56-33.846h121.567c-1.56 33.846-16.909 66.58-57.364 66.58zM931.168 408.243c0-40.418 25.125-70.165 69.984-70.165 34.902 0 52.248 9.672 72.428 29.747l48.806-46.599c-31.25-30.851-64.041-49.585-121.814-49.585-75.643 0-148.033 41.245-148.033 161.452 0 102.708 63.204 160.853 146.255 160.853 84.183 0 132.817-68.073 132.817-157.239v-28.464h-200.443zM785.836 277.033c-64.373 0-91.686 44.811-91.686 89.071v307.564h78.895v-85.010h59.476v-63.784h-59.476v-153.825c0-18.126 8.559-28.188 27.379-28.188h32.096v-65.828h-46.685zM308.727 631.777h-79.561v75.576h79.561v-75.576zM308.927 273.363c-59.58 5.725-79.846 41.863-79.846 83.565l0.086 231.731h79.761v-315.296zM1257.182 280.029c-59.457 5.735-79.627 41.816-79.627 83.46v354.62h79.627v-438.080zM1535.55 666.859c-72.162 351.824-755.106 374.096-1195.306 106.113v-29.586c439.753 225.996 1063.431 224.665 1120.253-99.38 19.011-107.15-41.369-218.864-149.203-283.076v-84.012c129.793 47.484 262.905 201.46 224.256 389.94zM735.367 51.304c-303.807-28.083-620.396 16.015-664.694 253.414-21.683 117.030 31.63 241.089 102.356 318.149v41.207c-127.32-111.648-196.42-252.995-156.64-420.010 50.774-214.166 322.485-335.533 737.208-295.229 164.086 16.015 378.851 68.777 528.159 150.724v116.422c-135.48-80.674-359.669-147.386-546.389-164.676zM1349.226 694.561c0 3.861-2.254 5.088-7.408 5.088h-4.974v-10.927c0.723 0 4.337-0.133 4.974-0.133 5.154 0 7.408 1.721 7.408 5.335v0.637zM1356.986 667.467h-5.896c-0.533 0-0.999 0.333-1.227 0.78l-8.045 13.637c-0.143 0.275-0.837 0.609-1.113 0.609h-3.614v-13.523c0-0.723-0.495-1.503-1.446-1.503h-5.335c-0.666 0-1.331 0.78-1.331 1.503v34.208c0 1.978 0.77 2.805 2.444 3.062 1.883 0.247 6.999 0.418 9.757 0.418 9.795 0 15.72-2.891 15.72-12.097v-0.637c0-5.697-2.834-8.702-7.228-10.176l8.34-14.103c0.053-0.285 0.247-0.676 0.247-1.008 0-0.552-0.333-1.17-1.274-1.17zM1342.988 712.83c-14.512 0-26.248-11.983-26.248-26.409 0-14.446 11.735-26.238 26.248-26.238 14.436 0 26.286 11.792 26.286 26.238 0 14.427-11.849 26.409-26.286 26.409zM1342.988 654.743c-17.632 0-31.697 14.227-31.697 31.678 0 17.422 14.065 31.687 31.697 31.687 17.441 0 31.773-14.265 31.773-31.687 0-17.451-14.332-31.678-31.773-31.678z" />
<glyph unicode="&#xe90a;" glyph-name="microsoft" horiz-adv-x="4797" d="M1679.36 374.745l-28.357-80.345h-2.363c-4.726 18.117-13.391 45.686-27.569 78.769l-152.025 382.031h-148.874v-608.886h98.462v375.729c0 23.631 0 50.412-0.788 83.495-0.788 16.542-2.363 29.145-3.151 38.597h2.363c4.726-23.631 10.24-40.96 14.178-51.988l182.745-444.258h69.317l181.169 448.197c3.938 10.24 7.877 30.72 11.815 48.049h2.363c-2.363-44.898-3.938-85.071-4.726-109.489v-385.969h104.763v608.098h-143.36l-155.963-382.031zM2077.932 585.058h102.4v-436.382h-102.4zM2129.92 769.378c-17.329 0-31.508-6.302-43.323-17.329s-18.117-25.206-18.117-42.535c0-16.542 6.302-30.72 18.117-41.748s25.994-16.542 43.323-16.542 32.295 6.302 43.323 16.542c11.815 11.028 18.117 25.206 18.117 41.748s-6.302 30.72-18.117 42.535c-10.24 11.028-25.206 17.329-43.323 17.329zM2543.458 588.997c-18.905 3.938-38.597 6.302-57.502 6.302-46.474 0-89.009-10.24-124.455-30.72s-63.803-48.837-81.92-84.283c-18.905-36.234-28.357-77.982-28.357-126.031 0-41.748 9.452-78.769 27.569-112.64 18.117-33.083 43.323-59.865 77.194-77.982 32.295-18.117 70.105-27.569 112.64-27.569 48.837 0 90.585 10.24 123.668 29.145l0.788 0.788v94.523l-3.938-3.151c-14.966-11.028-32.295-20.48-49.625-25.994-18.117-6.302-34.658-9.452-48.837-9.452-40.96 0-73.255 11.815-96.098 37.809-23.631 25.206-35.446 59.865-35.446 103.188 0 44.898 11.815 80.345 36.234 106.338s56.714 39.385 96.098 39.385c33.083 0 66.954-11.028 97.674-33.083l3.938-3.151v100.037l-0.788 0.788c-13.391 5.514-28.357 11.815-48.837 15.754zM2881.378 592.148c-25.206 0-48.837-7.877-69.317-24.418-17.329-14.178-29.145-34.658-39.385-59.077h-0.788v76.406h-102.4v-436.382h102.4v222.917c0 37.809 7.877 69.317 25.206 92.16 17.329 23.631 39.385 35.446 66.166 35.446 9.452 0 18.905-2.363 30.72-3.938 11.028-3.151 18.905-6.302 24.418-10.24l3.938-3.151v102.4l-2.363 0.788c-7.089 4.726-21.268 7.089-38.597 7.089zM3160.222 594.511c-71.68 0-129.182-21.268-169.354-63.015-40.96-41.748-60.652-99.249-60.652-171.717 0-67.742 20.48-122.88 59.865-163.052 39.385-39.385 92.948-59.865 159.902-59.865 70.105 0 126.031 21.268 166.203 63.803 40.96 42.535 60.652 99.249 60.652 169.354 0 69.317-18.905 124.455-57.502 164.628-37.022 40.172-91.372 59.865-159.114 59.865zM3242.142 258.954c-18.905-24.418-48.837-36.234-85.858-36.234s-66.954 11.815-88.222 37.809c-21.268 24.418-31.508 59.865-31.508 104.763 0 46.474 11.028 81.92 31.508 107.126 21.268 25.206 50.412 37.809 87.434 37.809 36.234 0 64.591-11.815 85.071-36.234s31.508-59.865 31.508-106.338c-1.575-47.262-10.24-84.283-29.932-108.702zM3605.268 403.889c-32.295 13.391-52.775 23.631-62.228 32.295-7.877 7.877-11.815 18.905-11.815 33.083 0 11.815 4.726 23.631 16.542 31.508s25.206 11.815 44.898 11.815c17.329 0 35.446-3.151 52.775-7.877s33.083-11.815 45.686-21.268l3.938-3.151v96.098l-2.363 0.788c-11.815 4.726-27.569 9.452-46.474 13.391-18.905 3.151-36.234 4.726-50.412 4.726-48.837 0-89.009-11.815-120.517-37.809-31.508-24.418-46.474-57.502-46.474-96.098 0-20.48 3.151-38.597 10.24-53.563s17.329-29.145 31.508-40.96c14.178-11.028 34.658-23.631 63.015-35.446 23.631-10.24 41.748-18.117 52.775-24.418s18.117-13.391 23.631-18.905c3.938-6.302 6.302-14.178 6.302-24.418 0-29.145-22.055-43.323-66.954-43.323-17.329 0-35.446 3.151-56.714 10.24s-40.96 17.329-57.502 29.145l-3.938 3.151v-100.037l2.363-0.788c14.966-7.089 33.083-11.815 55.138-17.329 22.055-3.938 41.748-7.089 59.077-7.089 52.775 0 96.098 11.815 126.818 37.809 31.508 25.206 48.049 57.502 48.049 99.249 0 29.145-7.877 55.138-25.206 74.831-22.843 18.905-51.2 38.597-92.16 54.351zM3992.812 594.511c-71.68 0-129.182-21.268-169.354-63.015s-60.652-99.249-60.652-171.717c0-67.742 20.48-122.88 59.865-163.052 39.385-39.385 92.948-59.865 159.902-59.865 70.105 0 126.031 21.268 166.203 63.803 40.96 42.535 60.652 99.249 60.652 169.354 0 69.317-18.905 124.455-57.502 164.628-37.022 40.172-91.372 59.865-159.114 59.865zM4073.945 258.954c-18.905-24.418-48.837-36.234-85.858-36.234-37.809 0-66.954 11.815-88.222 37.809-21.268 24.418-31.508 59.865-31.508 104.763 0 46.474 11.028 81.92 31.508 107.126 21.268 25.206 50.412 37.809 87.434 37.809 35.446 0 64.591-11.815 85.071-36.234s31.508-59.865 31.508-106.338c0-47.262-10.24-84.283-29.932-108.702zM4756.874 500.775v84.283h-103.188v129.182l-3.151-0.788-100.037-29.932v-98.462h-154.388v55.138c0 25.206 6.302 44.898 17.329 57.502s27.569 18.905 48.049 18.905c14.178 0 29.145-3.151 45.686-10.24l3.938-2.363v89.009l-2.363 0.788c-14.178 4.726-33.083 7.877-57.502 7.877-30.72 0-57.502-7.089-81.92-18.905-24.418-13.391-42.535-31.508-55.926-55.926-13.391-23.631-20.48-50.412-20.48-81.132v-60.652h-71.68v-83.495h71.68v-352.886h103.188v352.098h154.388v-224.492c0-92.16 43.323-138.634 129.969-138.634 14.178 0 29.145 2.363 43.323 4.726 14.966 3.151 25.994 7.089 32.295 10.24l0.788 0.788v84.283l-3.938-3.151c-6.302-3.938-11.815-7.089-21.268-9.452-7.877-2.363-14.966-3.151-20.48-3.151-20.48 0-34.658 4.726-44.898 16.542-9.452 11.028-14.178 29.145-14.178 55.926v206.375h104.763zM0 960h482.855v-482.855h-482.855zM533.268 960h482.855v-482.855h-482.855zM0 426.732h482.855v-482.855h-482.855zM533.268 426.732h482.855v-482.855h-482.855z" />
<glyph unicode="&#xe90b;" glyph-name="newyorktimes" horiz-adv-x="7779" d="M583.821 855.068c0 83.548-78.515 107.706-143.944 104.687v-13.078c39.257-0.951 69.456-14.092 69.456-40.221 0-18.162-13.078-41.271-52.343-41.271-31.205 0-91.601 18.119-139.918 34.224-53.35 18.119-103.68 35.231-145.957 35.231-82.541 0-144.951-61.446-144.951-136.898 0-61.446 46.304-83.548 65.429-91.644l6.040 10.066c-12.079 8.1-24.158 17.112-24.158 41.271 0 18.162 16.106 47.353 58.383 47.353 38.251 0 88.581-17.112 155.017-36.238 57.376-16.106 120.792-31.205 155.017-35.274v-130.815l-64.423-53.393v-5.041l64.423-56.37v-180.182c-33.218-19.125-71.469-24.158-104.687-24.158-61.403 0-119.786 16.106-166.089 67.442l173.135 83.548v288.895l-212.393-94.621c22.145 56.37 66.436 93.614 111.733 120.792l-3.012 10.066c-125.825-34.224-240.578-149.941-240.578-292.921 0-171.122 138.911-297.911 296.948-297.911 171.122 0 279.835 133.835 277.822 275.766l-10.066 0.951c-25.165-54.356-61.403-105.693-108.713-132.871v175.149l68.449 54.356-0.951 6.040-67.442 54.399v130.815c62.409 0 127.838 42.277 127.838 121.799zM216.411 386.998l-51.337-25.165c-29.191 38.251-48.317 89.588-48.317 161.056 0 29.191 3.012 65.472 12.079 90.594l88.581 39.257zM664.349 293.384l-56.37-42.318 7.054-8.005 27.178 19.125 94.621-86.527 126.832 84.555-6.040 9.051-33.218-21.139-41.271 41.229v289.901l34.224 25.206 72.475-58.383v-256.725c0-160.008-35.231-186.18-107.706-212.393v-11.112c119.786-4.993 227.492 35.272 227.492 240.578v275.85l38.251 30.241-7.054 9.020-33.218-26.13-103.68 89.588-120.792-90.594v348.243h-9.067l-149.984-100.66v-9.067c15.091-9.099 40.264-15.091 40.264-65.47zM1437.419 338.681l-103.68-80.528-107.706 84.597v50.33l200.314 133.835v6.087l-99.654 153.003-218.433-116.807v-277.781l-43.284-33.259 7.054-9.020 39.257 31.205 142.937-103.721 191.254 150.99zM1226.033 408.137v207.36l7.054 5.041 92.607-145.957zM2246.686 893.319c0 13.094-3.028 24.158-8.053 39.216h-10.066c-13.078-35.231-29.191-54.315-70.462-54.315-36.238 0-64.423 22.104-79.522 38.251 0-0.951-120.792-139.918-120.792-139.918l10.066-9.099 34.224 39.257c26.172-20.132 45.254-39.257 103.68-40.221v-352.311l-247.624 428.854c-19.125 32.211-51.337 80.528-110.726 80.528-66.436 0-127.838-57.418-119.786-154.051h12.079c3.028 26.172 16.106 54.356 45.297 54.356 23.152 0 44.29-22.104 55.363-42.277v-137.904c-76.502 0-126.832-35.231-126.832-97.599 0-32.252 16.106-86.568 69.456-96.675l0.951 9.099c-7.054 7.038-14.14 15.059-14.14 29.149 0 23.152 17.112 38.251 48.317 38.251 5.041 0 19.125-0.951 22.145-2.013v-179.175c-89.588-0.951-159.043-50.287-159.043-134.885 0-80.528 69.456-118.779 141.931-114.71l0.951 10.018c-45.297 5.041-69.456 26.172-69.456 55.363 0 36.238 26.172 55.32 59.39 55.32 34.224 0 64.423-21.139 85.561-45.297l121.799 135.891-10.066 9.099-31.205-35.231c-46.304 41.229-72.475 56.37-125.825 64.381v423.863l341.238-594.944h24.158v592.931c65.47 3.979 126.873 53.307 126.873 126.789zM2551.686 338.681l-103.68-80.569-107.706 84.596v50.33l200.314 133.837v6.087l-99.654 153.003-218.433-116.807v-277.781l-43.284-33.259 7.054-9.020 39.257 31.205 142.937-103.723 191.254 150.99-8.053 11.112zM2340.3 408.137v207.36l7.054 5.041 92.607-145.957zM3244.185 639.655l-31.205-23.152-80.528 68.449-93.614-84.596 38.251-36.196v-319.093l-102.673 65.429v259.703l33.218 23.152-98.647 91.644-91.601-84.597 38.251-36.195v-303.030l-13.078-8.005-89.588 63.416v254.629c0 58.383-28.185 75.495-65.429 98.647-31.205 19.125-45.297 35.231-45.297 64.423 0 24.158 24.158 38.251 36.238 45.297-0.951 0.951-0.951 10.066-0.951 10.066-32.211 0.951-121.799-34.224-123.812-115.8-0.951-42.277 19.125-60.355 40.264-80.528 21.139-20.091 40.264-39.257 40.264-74.447v-244.604l-45.297-35.231 7.054-9.099 41.271 32.211 111.733-87.574 105.693 71.469 116.766-71.469 224.472 130.858v283.903l55.363 40.264-7.054 10.066zM4028.328 872.18l-42.277-38.251-94.621 82.584-137.904-102.716v96.634h-14.092l3.012-685.496c-14.092 2.013-49.323 10.066-81.535 15.059l-3.012 572.799c0 42.277-30.198 100.66-105.693 100.66-77.508 0-127.838-59.39-127.838-118.779h12.079c4.026 25.165 17.112 47.31 42.277 47.31 26.172 0 48.317-16.106 48.317-72.475v-165.083c-77.508-3.012-121.799-46.304-121.799-99.654 0-33.218 15.107-84.555 69.456-86.568l2.013 10.066c-18.119 8.005-22.145 19.125-22.145 29.191 0 24.116 23.152 34.182 55.363 34.182h15.091v-261.716c-61.403-21.139-89.588-66.436-89.588-117.772 0-70.462 56.37-123.812 138.911-123.812 58.383 0 108.713 10.066 162.063 22.145 43.284 9.067 95.627 19.125 120.792 19.125 32.211 0 46.304-15.091 46.304-38.251 0-29.149-13.094-40.264-30.198-45.297l2.013-10.066c69.456 13.078 109.72 54.399 109.72 116.766 0 64.423-61.403 102.673-129.852 102.673-35.231 0-104.687-11.081-157.030-23.193-58.383-13.046-117.772-19.084-135.891-19.084-29.191 0-65.429 14.092-65.429 53.35 0 35.231 29.191 63.416 101.667 63.416 39.257 0 83.548-6.040 131.865-17.069 51.337-11.112 96.634-25.208 140.924-25.208 61.403 0 116.766 22.145 116.766 111.733v521.462l49.323 42.318zM3855.192 611.47c-11.081-12.079-29.191-24.158-50.33-24.158-23.152 0-40.264 14.092-51.337 24.158v188.235l43.284 29.191 58.383-53.35zM3855.192 485.645c-10.066 10.018-28.185 21.139-50.33 21.139s-42.277-13.046-51.337-21.139v110.726c9.067-8.005 29.191-22.102 51.337-22.102s40.264 12.032 50.33 22.102zM3855.192 288.351c0-34.224-23.152-67.4-67.442-67.4-7.054 0-27.178 0.951-34.224 1.966v247.624c10.066 9.099 28.185 23.193 51.337 23.193 21.139 0 38.251-12.127 50.33-23.193zM4432.982 588.361l-136.898 97.64-205.347-117.815v-275.809l-42.277-34.224 6.040-9.020 33.218 27.137 135.891-99.654 209.373 127.838zM4208.509 321.569v301.981l106.7-76.502v-301.981zM4836.629 674.886c0-0.951-8.053 0-8.053 0-11.081-10.018-25.165-17.069-37.244-17.069-16.106 0-37.244 10.018-47.31 23.109h-8.053l-71.469-78.472-73.482 78.472-124.819-86.525 6.040-10.018 33.218 22.102 43.284-46.304v-266.749l-56.37-42.318 7.054-8.005 27.178 19.125 101.667-86.527 131.865 87.574-6.040 9.067-37.244-22.145-49.323 44.333v296.948c21.139-23.195 46.304-43.327 75.495-43.327 56.37-0.082 87.574 62.327 93.614 126.748zM5344.963 269.226l-143.944-94.621-195.281 294.934 137.904 214.365 9.067 0.951c16.106-16.106 44.29-33.218 70.462-33.218 29.191 0 49.323 16.106 61.403 33.218 0 0 8.053-0.951 8.053 0-5.025-85.561-62.409-133.878-105.693-133.878-44.29 0-65.429 20.132-88.581 34.224l-13.078-19.125 211.386-313.053 42.277 26.172zM4879.913 293.384l-56.37-42.318 7.038-8.005 27.178 19.125 94.621-86.527 126.832 84.555-7.054 9.051-32.211-21.139-41.271 41.229v653.285h-9.067l-153.003-101.667v-9.067c15.091-9.051 43.284-13.078 43.284-64.423zM6046.523 855.068c0 83.548-78.515 107.706-143.944 104.687v-13.078c39.257-0.951 69.456-14.092 69.456-40.221 0-18.162-13.078-41.271-52.343-41.271-31.205 0-91.601 18.119-139.918 34.224-53.35 18.119-103.68 35.231-145.957 35.231-82.541 0-144.951-61.446-144.951-136.898 0-61.446 46.304-83.548 65.429-91.644l6.040 10.066c-12.079 8.053-24.158 17.071-24.158 41.229 0 18.16 16.106 47.351 58.383 47.351 38.251 0 88.581-17.112 155.017-36.238 57.376-16.106 120.792-31.205 155.017-35.272v-130.817l-64.423-53.391v-5.041l64.423-56.37v-180.182c-33.218-19.125-71.469-24.158-104.687-24.158-61.403 0-119.786 16.106-166.089 67.442l173.135 83.548v288.936l-212.393-94.662c22.145 56.411 66.436 93.614 111.733 120.833l-3.012 10.066c-125.825-34.224-240.578-149.984-240.578-292.921 0-171.122 138.911-297.911 296.948-297.911 171.122 0 279.835 133.835 277.822 275.766l-10.066 0.951c-25.165-54.356-61.403-105.693-108.713-132.871v175.149l68.449 54.356-0.951 6.040-67.442 54.399v130.815c62.409 0 127.838 42.277 127.838 121.799zM5679.113 386.998l-51.337-25.165c-29.191 38.251-48.317 89.588-48.317 161.056 0 29.191 3.012 65.472 12.079 90.594l88.581 39.257-0.951-265.743zM6191.474 894.368l-6.040 0.951-84.555-71.469v-6.040l71.469-80.528h7.054l84.555 70.462-0.951 5.041-71.469 81.576zM6320.319 269.226l-32.211-21.139-41.271 41.229v291.999l40.264 30.198-8.053 10.018-31.205-24.117-73.482 87.574-120.792-84.596 7.054-11.081 30.198 20.173 37.244-46.304v-273.796l-54.356-41.228 6.040-8.053 28.185 20.132 92.607-84.555 126.832 84.555zM7024.94 274.266l-30.198-20.132-45.297 41.271v286.881l43.284 32.211-7.054 9.099-37.244-28.185-96.634 89.588-124.819-88.581-95.627 88.581-122.805-87.574-75.495 87.574-120.792-84.596 6.040-11.081 30.198 20.173 41.271-45.297v-273.796l-33.218-33.218 96.634-81.492 93.614 84.555-38.251 36.195v285.834l36.238 24.158 65.429-60.355v-255.718l-32.211-33.218 97.64-81.494 91.601 84.555-38.251 36.196v287.929l32.211 21.139 69.456-59.39v-251.65l-28.185-29.191 98.647-89.588 129.852 88.54zM7392.349 338.689l-103.68-80.569-107.706 84.596v50.33l200.314 133.837v6.087l-99.654 153.003-218.433-116.807v-286.881l145.957-105.652 191.254 150.99zM7180.963 408.144v207.36l7.054 5.041 92.607-145.957zM7778.884 447.57l-81.535 61.403c54.356 47.31 75.495 110.769 75.495 154.010 0 6.040-0.951 17.112-2.013 27.178h-10.066c-8.053-22.145-24.158-41.271-57.376-41.271-32.211 0-55.363 18.119-75.495 40.307l-190.248-103.723v-154.010l70.462-55.363c-71.469-63.416-84.555-107.706-84.555-139.918 0-42.277 19.125-72.517 55.363-86.568l5.025 9.099c-9.051 8.005-17.112 13.094-17.112 32.211 0 14.092 17.112 34.224 49.323 34.224 41.271 0 66.436-28.185 79.522-43.284 0 0.951 183.202 109.72 183.202 109.72zM7733.587 574.445c-28.185-50.33-93.614-99.696-129.852-127.881l-46.304 36.238v149.984c18.119-40.264 62.409-74.489 110.726-74.489 28.185 0 43.284 5.073 65.429 16.148zM7659.099 238.197c-21.139 47.31-70.462 81.535-120.792 81.535-12.079 0-47.31 0-79.522-20.173 19.125 32.252 75.495 92.649 147.97 135.891l52.343-40.264z" />
<glyph unicode="&#xe90c;" glyph-name="qualcomm" horiz-adv-x="4628" d="M1885.201 334.826c0-18.953 22.013-41.002 40.93-41.002l280.517 0.18-62.781 101.083h-162.497v388.855h-96.134l-0.036-449.116zM856.351 527.223c0 233.899-189.639 423.557-423.575 423.557-233.917 0-423.557-189.657-423.557-423.557 0-233.917 189.639-423.575 423.557-423.575 24.875 0 48.508 2.322 72.213 6.426l-0.72-164.855h119.119v205.101c137.568 70.017 232.964 212.012 232.964 376.903zM623.388 329.574v136.38l-119.119-34.018 0.126-169.030c-22.859-6.21-46.798-10.044-71.619-10.044-151.517 0-274.362 122.826-274.362 274.362 0 151.499 122.844 274.344 274.362 274.344 151.535 0 274.362-122.844 274.362-274.344 0-77.559-32.093-147.683-83.75-197.649zM1247.065 293.774h-276.792c-18.953 0-41.236 21.977-41.236 40.93l-0.198 449.242h96.152v-388.855h166.762v388.855h96.17l0.090-449.242c0-18.953-21.995-40.93-40.948-40.93zM2538.090 765.862c-38.428 22.517-83.48 35.494-131.268 35.494-143.526 0-259.908-116.365-259.908-259.89 0-143.58 116.383-259.962 259.908-259.962 44.854 0 87.746 11.699 124.59 31.715l-46.906 84.398c-23.147-12.581-49.48-19.817-77.685-19.817-90.392 0-163.667 73.275-163.667 163.667 0 90.356 73.275 163.631 163.667 163.631 30.527 0 59.217-8.64 83.678-23.201l47.59 83.966zM2760.747 799.989c-143.526 0-259.692-117.031-259.692-260.574s116.167-259.224 259.692-259.224c143.58 0 259.962 116.383 259.962 259.89 0 143.562-116.383 259.908-259.962 259.908zM2760.747 376.45c-90.338 0-163.433 72.609-163.433 162.965s73.095 164.315 163.433 164.315c90.392 0 163.721-73.275 163.721-163.649s-73.329-163.631-163.721-163.631zM1634.221 783.091h-95.288l-214.424-486.698h102.091l50.38 107.257 222.254-0.054 4.554-10.296 42.766-96.908h102.091l-214.424 486.698zM1509.108 483.441l77.325 175.87 77.595-175.87h-154.919zM4567.091 354.037l-176.068 406.278c-10.53 19.583-28.601 28.619-54.196 28.619-25.541 0-43.612-9.036-54.142-28.619l-129.432-297.923-129.432 297.923c-10.476 19.583-28.547 28.619-54.142 28.619s-43.666-9.036-54.196-28.619l-129.432-298.607-129.378 298.607c-10.53 19.583-28.601 28.619-54.142 28.619-25.595 0-43.666-9.036-54.196-28.619l-129.432-297.923-129.378 297.923c-10.584 19.583-28.619 28.619-54.196 28.619-25.595 0-43.63-9.036-54.196-28.619l-176.068-406.278c-24.227-63.573 63.231-96.296 91.796-45.142l138.468 323.535 138.414-323.535c18.089-33.119 73.761-31.625 90.32 0l138.468 323.535 138.414-323.535c9.090-16.253 24.101-23.237 39.562-24.245 1.926-0.306 3.672-0.396 5.544-0.486 1.926 0.090 3.726 0.18 5.598 0.486 15.461 1.008 30.527 7.992 39.598 24.245l138.432 323.535 138.432-323.535c16.541-31.625 72.213-33.119 90.248 0l138.468 323.535 138.432-323.535c28.655-51.154 116.023-18.431 91.832 45.142zM4561.55 779.772c-31.265 0-57.723-24.065-57.723-56.679 0-32.921 26.459-56.985 57.723-56.985 30.959 0 57.471 24.065 57.471 56.985 0 32.615-26.513 56.679-57.471 56.679zM4561.55 675.575c-26.027 0-46.294 20.141-46.294 47.518 0 26.891 20.267 47.212 46.294 47.212 25.721 0 46.024-20.321 46.024-47.212 0-27.377-20.303-47.518-46.024-47.518zM4587.702 737.060c0 12.923-7.65 18.647-23.147 18.647h-24.929v-65.535h9.864v28.403h11.447l17.297-28.403h11.123l-18.629 28.853c9.594 1.206 16.973 6.318 16.973 18.035zM4549.49 726.998v20.285h13.553c6.93 0 14.273-1.512 14.273-9.63 0-10.062-7.47-10.656-15.947-10.656h-11.879z" />
<glyph unicode="&#xe90d;" glyph-name="search" horiz-adv-x="994" d="M690.251 291.547c65.479 70.868 106.33 165.761 106.33 270.264 0 219.215-178.42 398.189-398.291 398.189s-398.291-178.974-398.291-398.189 178.42-398.189 398.291-398.189c0.197 0 0.43-0.001 0.664-0.001 89.682 0 172.408 29.784 238.827 79.999l295.16-296.811c6.406-6.599 15.332-10.722 25.222-10.81 0.050 0 0.090 0 0.13 0 9.884 0 18.8 4.147 25.102 10.795 13.834 13.83 13.834 36.65 0.015 51.065zM72.090 561.811c0 179.576 145.979 326.119 326.201 326.119 179.622 0 326.206-145.948 326.206-326.119s-145.984-326.119-326.206-326.119-326.201 146.542-326.201 326.119z" />
<glyph unicode="&#xe90e;" glyph-name="techcrunch" horiz-adv-x="2041" d="M3.425 956.575c339.039 0.068 678.078 0.068 1017.117 0 0.136-113.013 0.034-226.026 0.068-339.039-113.013-0.034-226.026 0.068-339.005-0.034-0.17-226.026 0.034-452.052-0.136-678.078-113.454-0.068-226.941-0.102-340.429 0-0.543 225.517-0.203 451.035-0.17 676.552-112.47 0.17-224.975 1.322-337.445 1.628-0.068 112.979-0.102 225.992 0 338.971zM1359.75 956.575c225.992 0.068 452.018 0.068 678.044 0 0.102-112.979 0.068-225.992 0-338.971-226.026-0.136-452.086-0.034-678.112-0.068 0.034 113.013-0.068 226.026 0.068 339.039zM1020.609 617.536c113.013 0 226.060 0 339.073 0 0.034-113.013-0.068-226.026 0.034-339.039 226.026-0.136 452.052 0.068 678.078-0.102 0.068-112.979 0.102-225.958 0-338.971-339.039-0.068-678.078-0.068-1017.117 0-0.136 226.026-0.034 452.086-0.068 678.112z" />
<glyph unicode="&#xe90f;" glyph-name="twitter" d="M512 960c-282.77 0-512-229.23-512-512s229.23-512 512-512c282.77 0 512 229.23 512 512s-229.23 512-512 512zM766.771 563.2l0.358-16.384c0-0.127 0-0.277 0-0.427 0-197.939-160.461-358.4-358.4-358.4-71.882 0-138.821 21.162-194.928 57.595 10.242-1.977 20.677-2.716 31.25-2.892 59.586 0.018 114.147 20.457 157.29 54.67-55.473 0.607-101.745 36.636-118.031 86.26 6.858-0.667 15.051-1.596 23.449-1.669 0.196-0.001 0.363-0.001 0.53-0.001 11.65 0 22.906 1.684 33.539 4.821-58.833 11.86-101.809 62.48-101.957 123.164v1.552c16.492-9.162 36.073-14.783 56.915-15.356-33.908 22.728-56.074 60.99-56.147 104.433-0.001 0.22-0.002 0.468-0.002 0.716 0 23.144 6.335 44.809 17.366 63.355 62.079-76.983 154.468-126.864 258.623-132.121-1.252 8.588-2.459 18.487-2.459 28.667 0 69.646 56.459 126.106 126.106 126.106 36.379 0 69.161-15.405 92.177-40.046 30.289 6.349 57.073 16.973 81.393 31.329-11.019-30.369-30.625-54.573-56.134-69.997 26.287 2.887 50.748 9.923 73.37 20.282-18.587-26.267-39.446-47.843-63.572-65.153z" />
<glyph unicode="&#xe910;" glyph-name="yahoo" horiz-adv-x="5402" d="M1473.641 698.259c-26.427-2.611-136.442-27.258-173.42-35.184-39.595-10.537-401.342-290.015-425.106-358.642-5.268-23.75-7.909-60.292-7.909-94.632l-2.651-55.466c0-39.575 10.995-103.402 16.26-137.715 23.783-5.301 195.907-0.673 227.583-5.934l-3.897-70.987c-30.951 2.255-249.52 1.728-374.391 1.728-63.388 0-267.155-6.989-329.761-5.103l11.836 67.506c34.33 2.664 176.469-6.132 207.716 26.849 15.521 16.365 10.576 33.905 10.576 128.945v44.876c0 21.126 0 60.754-5.298 97.731-13.194 39.615-331.815 437.449-413.666 500.801-23.783 7.912-172.714 22.807-209.675 30.746l-1.84 60.813c18.439 9.244 184.048-2.248 344.762 3.699 105.624 3.903 346.621 0 376.355-3.541l-7.619-53.593c-31.676-7.932-184.276-10.866-223.891-21.416 102.986-153.144 265.813-350.307 318.631-426.886 29.061 42.239 284.321 217.854 292.234 278.582-39.621 7.952-170.766 26.823-191.898 26.823l-12.544 69.141c35.952 5.624 224.992 0 318.974 0 81.108 0 254.422 0 303.67-4.035l-45.035-65.106zM1583.998 498.656l-1.648 10.49c-29.955-69.912-80.825-179.763-90.801-206.375l163.905 0.073c-19.979 51.595-56.475 152.551-71.455 195.812zM2019.278-30.742c-11.625 1.681-143.939 1.662-192.185 1.662-28.313 0-172.417 0.837-197.401 0.837l7.49 61.835c33.311 1.655 95.225 15.139 123.539 18.462-18.304 41.58-78.708 173.67-92.021 198.627-34.953 0-160.654-3.936-195.607-10.589-6.646-11.658-54.365-58.453-62.659-121.686 23.309-4.985 68-14.598 94.619-17.915l-9.844-63.194c-28.28 1.662-141.117-1.655-167.742 0-24.99 0-140.936-0.277-162.58-3.6l20.612 66.794c26.612 3.317 87.972 22.392 111.241 27.357 34.966 49.914 196.827 366.31 210.153 396.278-21.66 5.005-58.413 22.399-81.741 25.722l-3.198 45.72c28.3-1.688 168.942-5.908 183.884-5.163 33.463 1.635 157.674 1.022 185.98 2.657l-10.49-44.903c-24.957-1.635-65.561-13.807-88.876-18.792 11.651-34.946 57.998-147.612 92.951-230.817 26.632-59.936 70.829-177.356 112.428-245.6 28.28-4.985 93.188-24.040 123.143-25.695l1.681-16.675-3.376-41.322zM2994.136 140.528c-22.952 1.767-133.396 1.609-189.871 0-45.292-1.279-152.887 4.114-204.106 1.892l-3.91 62.752c17.645 1.78 127.831 9.271 149.003 12.831 7.055 33.529 3.679 81.108 3.679 121.666l-2.723 73.888c-56.494 0-429.959-19.431-445.856-21.166l-27.285-3.561c0-100.665 5.295-132.473 12.363-169.549 30.034-5.262 137.761-12.33 160.694-15.891l-1.391-68.389c-26.506 1.774-192.159 0-243.378 0-61.782 0-212.058 1.332-247.38-0.435l4.787 70.605c28.254 1.78 135.064 12.297 158.023 15.812 3.534 45.964 5.295 118.316 5.295 194.262v93.59c0 31.781-1.761 123.605-3.541 155.412-22.959 3.481-129.77 10.642-161.551 12.403l-5.638 53.468c21.185-1.793 168.633 2.248 246.312 2.248 72.405 0 236.573-1.431 255.998 0.356l-5.756-56.072c-33.548-1.761-144.803-10.589-164.221-14.117-5.321-26.513-10.616-49.479-10.616-134.22l-2.604-44.177c31.781 0 425.725 1.55 474.789 8.539v60.853c0 77.686 12.060 161.683 3.244 184.668-19.438 5.268-124.686 20.091-158.261 21.878l4.708 56.369c21.199-1.78 120.413-1.18 194.559-2.954 77.7 0 190.583-3.191 213.529 0.336l-5.216-46.426c-22.946-1.78-125.325-27.667-125.325-27.667s-6.989-48.384-1.853-117.98c4.24-57.793 5.532-171.468 5.532-171.468 2.928-126.572 10.734-228.852 3.686-234.173-8.493-6.336 81.069-11.789 105.769-15.343l9.666-16.774-1.154-43.465zM3762.975 420.778c6.396 178.47-133.291 225.977-309.75 213.865-92.331-6.343-280.223-55.156-280.223-213.865 0-156.85 144.131-241.789 336.447-225.015 148.845 12.95 226.96 67.756 246.134 143.906l7.391 81.108zM3904.936 435.528c8.381-215.665-188.545-322.64-444.326-322.64-106.448 0-236.013 20.282-346.628 86.654-86.298 51.787-100.586 118.956-100.586 202.972 0 173.67 189.060 317.636 478.494 315.763 110.153 0 216.344-16.801 302.174-83.739 76.592-59.732 89.529-89.397 103.487-154.753l7.385-44.257zM5116.842 72.271l-61.268 5.255-0.653 132.704 77.568-9.666 69.517-3.224-19.293-129.941-65.871 4.873zM5195.761 306.682l-114.334 11.097c11.994 57.813 1.556 501.638 0.626 548.987l-5.888 93.234c31.854-6.277 27.027-2.98 161.432-17.117 81.788-8.585 92.463-12.251 119.378-13.313l-35.131-110.562c-29.975-88.427-116.859-482.787-126.084-512.326zM4824.915 494.515c12.159 193.919-174.672 264.557-376.095 250.75-105.413-7.22-302.371-69.556-302.371-250.75 0-179.037 164.828-269.298 384.443-250.176 169.866 14.803 240.582 78.708 279.294 165.355 0 0 11.071 25.834 14.73 84.821zM4977.294 523.158c15.080-201.95-217.986-369.693-510.052-369.693-121.488 0-224.916 14.73-344.762 93.992-98.562 65.205-145.647 121.699-157.944 232.947-21.799 197.038 215.836 362.618 546.257 360.488 125.78 0 246.972-19.135 345.013-95.588 87.399-68.165 102.689-132.855 118.646-207.522l2.842-14.625zM5323.513 135.563h11.829c10.26 0 20.196 0.521 20.196 12.68 0 10.458-9.079 11.684-16.886 11.684h-15.139v-24.364zM5312.027 169.343h28.531c17.928 0 26.46-7.128 26.46-21.601 0-13.754-8.697-19.517-20.012-20.711l21.779-33.45h-12.37l-20.533 32.573h-12.37v-32.573h-11.486v75.761zM5336.72 75.99c29.612 0 53.29 24.040 53.29 55.387s-23.678 55.387-53.29 55.387c-29.764 0-53.283-24.040-53.283-55.387s23.52-55.387 53.283-55.387zM5336.72 196.172c35.184 0 64.796-27.878 64.796-64.796 0-36.924-29.612-64.796-64.796-64.796-35.335 0-64.756 27.871-64.756 64.796 0 36.918 29.421 64.796 64.756 64.796z" />
<glyph unicode="&#xe911;" glyph-name="meter" horiz-adv-x="1310" d="M655.059 960c-361.713 0-655.059-303.435-655.059-677.647-0.001-0.409-0.001-0.894-0.001-1.379 0-126.964 34.158-245.95 93.784-348.269l1124.325 3.296c57.853 99.023 92.011 218.009 92.011 344.974 0 0.485 0 0.969-0.001 1.453 0 374.138-293.346 677.573-655.059 677.573zM655.059 864.376c52.063 0 94.268-42.205 94.268-94.268s-42.205-94.268-94.268-94.268c-52.063 0-94.268 42.205-94.268 94.268s42.205 94.268 94.268 94.268zM188.235 210.824c-52.063 0-94.268 42.205-94.268 94.268s42.205 94.268 94.268 94.268c52.063 0 94.268-42.205 94.268-94.268 0 0 0 0 0 0 0-51.957-42.034-94.096-93.951-94.268zM323.765 536.546c-52.063 0-94.268 42.205-94.268 94.268s42.205 94.268 94.268 94.268c52.063 0 94.268-42.205 94.268-94.268 0 0 0 0 0 0 0-51.957-42.034-94.096-93.951-94.268zM796.612 560.489l-77.553-283.708v-1.054c38.726-24.307 64.092-66.778 64.092-115.173 0-74.851-60.679-135.529-135.529-135.529s-135.529 60.679-135.529 135.529c0 70.258 53.461 128.030 121.922 134.855 0.527 0.698 0.505 1.461 0.505 2.229s0.022 1.531 0.064 2.289l78 283.603c4.882 17.464 20.654 30.061 39.368 30.061 3.835 0 7.546-0.529 11.065-1.518l5.134-1.437c17.393-4.93 29.921-20.667 29.921-39.33 0-3.849-0.533-7.573-1.529-11.103zM880.791 630.814c0 52.063 42.205 94.268 94.268 94.268s94.268-42.205 94.268-94.268c0-52.063-42.205-94.268-94.268-94.268s-94.268 42.205-94.268 94.268zM1116.311 210.824c-52.063 0-94.268 42.205-94.268 94.268s42.205 94.268 94.268 94.268c52.063 0 94.268-42.205 94.268-94.268s-42.205-94.268-94.268-94.268z" />
<glyph unicode="&#xe912;" glyph-name="camera" horiz-adv-x="1206" d="M1116.136 960h-1025.82c-49.88 0-90.316-40.436-90.316-90.316v-843.368c0-49.88 40.436-90.316 90.316-90.316h1025.82c49.88 0 90.316 40.436 90.316 90.316v843.368c0 49.88-40.436 90.316-90.316 90.316zM213.257 927.094q87.095-2.24 174.191 0c34.026 0.84 44.108-14.843 43.968-46.488s-12.602-42.007-42.007-42.007h-89.896c-28.005 0-56.010 0.84-84.015 0-30.665-1.26-47.048 7.561-46.628 42.988 0 32.766 11.062 46.348 44.388 45.508zM142.405 795.191c107.679 0 214.938 1.82 322.057 0 36.826 0 63.991 6.161 76.173 44.948s40.327 43.688 76.453 43.688c146.466-1.82 294.052-2.52 440.517 0 48.589 0.84 62.591-21.844 62.591-62.731s9.522-113.14-82.474-113.14c-84.015 0-294.052 1.68-440.377 1.68h-454.52c-30.805 0-59.65-6.581-59.791 42.988s28.985 42.567 59.37 42.567zM859.051 411.944q0-3.641 0-7.281c-2.065-140.709-116.614-253.981-257.619-253.981-142.294 0-257.645 115.352-257.645 257.645s115.352 257.645 257.645 257.645c1.222 0 2.442-0.009 3.659-0.025l-0.185 0.002c0.042 0 0.091 0 0.14 0 140.283 0 254.005-113.722 254.005-254.005zM1055.786 22.815q-229.64-0.98-460.541-0.98h-453.68c-31.506 0-58.53-3.501-58.25 44.528 0 50.549 32.066 42.007 60.771 42.007h914.361c28.005 0 61.191 10.502 62.311-40.467 1.26-54.47-33.606-45.088-64.971-45.088zM602.106 579.693c93.894-0.596 169.78-76.849 169.78-170.827 0-94.347-76.483-170.83-170.83-170.83s-170.83 76.483-170.83 170.83c0 93.978 75.886 170.231 169.723 170.827zM618.489 492.458c-1.26 11.902-6.161 19.043-16.663 20.304-3.178 0.414-6.854 0.65-10.584 0.65-25.5 0-48.424-11.030-64.261-28.578-19.168-17.319-31.12-42.167-31.12-69.806 0-1.577 0.039-3.145 0.116-4.703 2.464-8.566 8.739-15.531 16.882-18.894 1.482-0.435 2.963-0.645 4.493-0.645 8.412 0 15.343 6.34 16.276 14.502 6.31 37.773 35.761 67.082 73.013 73.101 5.268 0.068 8.489 9.729 11.709 14.070z" />
<glyph unicode="&#xe913;" glyph-name="arr-down" horiz-adv-x="717" d="M286.72 960v-752.64l-286.72 284.672v-204.8l358.4-351.232 358.4 355.328v204.8l-286.72-287.744v751.616z" />
<glyph unicode="&#xe914;" glyph-name="arr-left" d="M1024 519.68h-752.64l284.672 286.72h-204.8l-351.232-358.4 355.328-358.4h204.8l-287.744 286.72h751.616z" />
<glyph unicode="&#xe915;" glyph-name="arr-right" d="M0 376.32h752.64l-284.672-286.72h204.8l351.232 358.4-355.328 358.4h-204.8l287.744-286.72h-751.616z" />
<glyph unicode="&#xe916;" glyph-name="arr-up" horiz-adv-x="717" d="M430.080-64v752.64l286.72-284.672v204.8l-358.4 351.232-358.4-355.328v-204.8l286.72 287.744v-751.616z" />
<glyph unicode="&#xe917;" glyph-name="move-down" d="M0 628.224c0.165 70.002 56.951 126.687 126.976 126.687 33.718 0 64.367-13.143 87.103-34.585l297.921-283.589 296.96 283.648c22.806 21.94 53.857 35.453 88.064 35.453 70.196 0 127.101-56.905 127.101-127.101 0-35.989-14.958-68.484-38.996-91.609l-384.041-367.655c-22.735-21.674-53.586-35.011-87.552-35.011s-64.817 13.337-87.603 35.059l-385.997 366.544c-24.544 23.147-39.85 55.858-39.936 92.144z" />
<glyph unicode="&#xe918;" glyph-name="move-left" horiz-adv-x="621" d="M494.592 960c70.002-0.165 126.687-56.951 126.687-126.976 0-33.718-13.143-64.367-34.585-87.103l-279.493-297.921 278.528-296.96c21.94-22.806 35.453-53.857 35.453-88.064 0-70.196-56.905-127.101-127.101-127.101-35.989 0-68.484 14.958-91.609 38.996l-367.655 384.041c-21.674 22.735-35.011 53.586-35.011 87.552s13.337 64.817 35.059 87.603l367.568 385.997c23.147 24.544 55.858 39.85 92.144 39.936z" />
<glyph unicode="&#xe919;" glyph-name="move-right" horiz-adv-x="621" d="M126.976-64c-70.002 0.165-126.687 56.951-126.687 126.976 0 33.718 13.143 64.367 34.585 87.103l283.589 297.921-283.648 296.96c-21.94 22.806-35.453 53.857-35.453 88.064 0 70.196 56.905 127.101 127.101 127.101 35.989 0 68.484-14.958 91.609-38.996l367.655-384.041c21.674-22.735 35.011-53.586 35.011-87.552s-13.337-64.817-35.059-87.603l-366.544-385.997c-23.147-24.544-55.858-39.85-92.144-39.936z" />
<glyph unicode="&#xe91a;" glyph-name="move-up" d="M1024 260.608c-0.165-70.002-56.951-126.687-126.976-126.687-33.718 0-64.367 13.143-87.103 34.585l-297.921 279.493-296.96-278.528c-22.806-21.94-53.857-35.453-88.064-35.453-70.196 0-127.101 56.905-127.101 127.101 0 35.989 14.958 68.484 38.996 91.609l384.041 367.655c22.735 21.674 53.586 35.011 87.552 35.011s64.817-13.337 87.603-35.059l385.997-367.568c24.544-23.147 39.85-55.858 39.936-92.144z" />
<glyph unicode="&#xe91b;" glyph-name="facebook" d="M512.257 960c-282.912 0-512.257-229.345-512.257-512.257s229.345-512.257 512.257-512.257c282.912 0 512.257 229.345 512.257 512.257 0 0.153 0 0.334 0 0.515 0 282.628-229.115 511.743-511.743 511.743-0.181 0-0.362 0-0.543 0zM666.707 651.101h-57.146c-43.246 0-51.483-20.593-51.483-51.483v-66.928h102.966l-13.386-102.966h-90.096v-293.454h-108.115v291.395h-89.066v102.966h89.066v78.769c-0.409 3.811-0.642 8.231-0.642 12.706 0 69.662 56.472 126.134 126.134 126.134 3.306 0 6.582-0.127 9.824-0.377 0.307 0.029 1.179 0.031 2.051 0.031 27.597 0 54.845-1.498 81.666-4.416z" />
<glyph unicode="&#xe91c;" glyph-name="menu" d="M128 192h768v85.333h-768v-85.333zM128 405.333h768v85.333h-768v-85.333zM128 704v-85.333h768v85.333h-768z" />
</font>
</defs>
</svg>
